<svg xmlns="http://www.w3.org/2000/svg" xmlns:xlink="http://www.w3.org/1999/xlink" viewBox="0 0 228.89 180.96"><defs><style>.cls-1{fill:#365c94;}.cls-2,.cls-8{fill:#fff;}.cls-3{fill:#6680b6;}.cls-4{fill:#5c76ae;}.cls-5{fill:#ff4132;}.cls-6{fill:#a1a5b1;}.cls-7{fill:#ff4b3d;}.cls-8{font-size:25.97px;font-family:MyriadPro-Regular, Myriad Pro;}.cls-9{fill:url(#Gradient_bez_nazwy_11);}.cls-10{fill:#e2e2e2;}</style><linearGradient id="Gradient_bez_nazwy_11" x1="180.68" y1="102.82" x2="178.73" y2="139.3" gradientTransform="translate(57.79 -60.31) rotate(18.57)" gradientUnits="userSpaceOnUse"><stop offset="0" stop-color="#f70f47"/><stop offset="1" stop-color="#ffb41d"/></linearGradient></defs><title>addsRecurso 5</title><g id="Capa_2" data-name="Capa 2"><g id="Pagina_interna_Escritorio" data-name="Pagina interna Escritorio"><path class="cls-1" d="M47.41,76.34a8.1,8.1,0,0,0,5.42.39L86,60.55s6.65-4.22,3.94-12a10.24,10.24,0,0,0-2-3.18,8.49,8.49,0,0,0-2.09-10C88.71,28.09,83.6,25.2,83.6,25.2s2.25-4.41-.2-8.5A7.36,7.36,0,0,0,75,13.28C73.62,13.89,53,24,53,24s-1.37-8.89-4.14-13.34S41.9,3.05,37.9.3C33.59-1.08,27.1,2.5,26.63,7.73l5.76,11.34s.06,15.82-3,23.6a.3.3,0,0,1-.18.18l-.64-.33L1.49,55.68A3.66,3.66,0,0,0,0,59.1C.71,60.48,2,62.62,2,62.62l17.62,30a3.4,3.4,0,0,0,3.55,1.45l24.19-11.8A2.62,2.62,0,0,0,48.62,79C47.54,76.65,47.41,76.34,47.41,76.34Z"/><path class="cls-2" d="M43.1,74.37,30.36,48.27l3.05-5.32a134.88,134.88,0,0,0,2.66-24.77L30.58,6.9a5.78,5.78,0,0,1,6.1-3.2c.73.56,6.67,5.51,8.76,8.7s5.22,16.68,5.22,16.68l25-12.13a3.74,3.74,0,0,1,4.72,1.75c1.9,3-.56,6.08-1.1,6.69a.89.89,0,0,0,0,1.19,1,1,0,0,0,.61.33,5.56,5.56,0,0,1,2.91,2.92c.48,1.57.45,3.42-1.46,5.76a1.08,1.08,0,0,0,.44,1.68,4.19,4.19,0,0,1,2.34,1.42,5.78,5.78,0,0,1-1,7.26,1.31,1.31,0,0,0,.35,1.5A5,5,0,0,1,86.08,49c1.27,1.43,1.24,5.46-1.77,8.37-5.87,2.93-32.7,15.84-32.7,15.84L46.2,72.8Z"/><polygon class="cls-3" points="3.96 59.01 26.42 48.05 42.48 80.96 22.55 90.68 3.96 59.01"/><polygon class="cls-4" points="8.64 62.18 26.53 53.45 39.04 79.91 23.68 87.4 8.64 62.18"/><circle class="cls-2" cx="32.77" cy="77.05" r="3.26" transform="translate(-30.47 22.18) rotate(-26.01)"/><path class="cls-5" d="M147.85,23.19a25.27,25.27,0,0,1,18.21-10.57,22.66,22.66,0,0,1,19,7.58s8.27,8.62,5.05,23.2-33,35.49-42.22,40.09C142.52,80.39,109,61,104.61,40.19c-3.22-18.84,15-26.17,15-26.17S134.6,6.53,147.85,23.19Z"/><path class="cls-6" d="M125.19,154.1,53.72,176.4a6.31,6.31,0,0,1-5-3.52,2.86,2.86,0,0,1,.45-3.14l6.35-10.83-8.37-28.81S43.23,110.45,61.35,99.8c-1.22-4.22-1.53-5.2-1.53-5.2a6.47,6.47,0,0,1,4.83-6.27,7,7,0,0,1,7.89,2.5l1.66,4.7s19.1-1.33,28.5,16.43c4.16,12.6,9.45,29.25,9.45,29.25l13.9,6S129.36,150.2,125.19,154.1Z"/><circle class="cls-2" cx="99.85" cy="102.14" r="23.3" transform="translate(-25.89 34.38) rotate(-17.33)"/><circle class="cls-7" cx="99.85" cy="102.14" r="20.07" transform="translate(-25.89 34.38) rotate(-17.33)"/><text class="cls-8" transform="translate(95.73 111.41) rotate(-17.33)">1</text><path class="cls-6" d="M80.72,174.21l19.18-6s3.79,8.8-6.18,12C82.68,183.64,80.72,174.21,80.72,174.21Z"/><path class="cls-9" d="M223.52,113.83,167,87.87a9.22,9.22,0,0,0-12.22,4.52l-12.76,27.75a9.22,9.22,0,0,0,4.52,12.22l5.52,2.54s2.95,12.82,4.24,17a5.51,5.51,0,0,0,7.34,3.37c4-1.75,15.67-7.85,15.67-7.85l23.71,10.9a9.21,9.21,0,0,0,12.22-4.53L228,126.05A9.21,9.21,0,0,0,223.52,113.83Z"/><path class="cls-10" d="M211.95,124.92l-45.8-21a2.72,2.72,0,1,1,2.28-5l45.8,21a2.72,2.72,0,1,1-2.28,5Z"/><path class="cls-10" d="M206.43,136.94l-45.8-21a2.72,2.72,0,0,1,2.27-4.95l45.8,21a2.72,2.72,0,0,1-2.28,5Z"/><path class="cls-10" d="M175.75,137.4l-20.65-9.49a2.72,2.72,0,1,1,2.28-5L178,132.45a2.72,2.72,0,1,1-2.28,5Z"/></g></g></svg>