<svg id="Capa_1" data-name="Capa 1" xmlns="http://www.w3.org/2000/svg" xmlns:xlink="http://www.w3.org/1999/xlink" viewBox="0 0 277.61 232.56"><defs><style>.cls-1{fill:none;}.cls-2{clip-path:url(#clip-path);}.cls-3{fill:#aec0d7;}.cls-4{fill:#dde4ee;}.cls-5{fill:#edf4ff;}.cls-6{fill:#80a1bd;}.cls-7{fill:#d9e1ee;}.cls-8{fill:#e4eaf3;}.cls-9{fill:#fff;}.cls-10{fill:#5486b3;}.cls-11{fill:#243c8c;}.cls-12{fill:#6b7dbd;}.cls-13{fill:#c60d05;}.cls-14{fill:#fa493f;}.cls-15{clip-path:url(#clip-path-2);}.cls-16{fill:#81a4bf;}.cls-17{fill:#dae3f0;}.cls-18{fill:#233c8f;}.cls-19{fill:#6b7dbf;}.cls-20{fill:#e6ecf5;}.cls-21{clip-path:url(#clip-path-3);}.cls-22{fill:#ff57a4;}.cls-23{opacity:0.51;}.cls-24{fill:#3f02a8;}.cls-25{fill:#4105a9;}.cls-26{fill:#4408aa;}.cls-27{fill:#460bab;}.cls-28{fill:#480eac;}.cls-29{fill:#4a11ad;}.cls-30{fill:#4d14ae;}.cls-31{fill:#4f18af;}.cls-32{fill:#511bb0;}.cls-33{fill:#541eb1;}.cls-34{fill:#5621b2;}.cls-35{fill:#5824b3;}.cls-36{fill:#5b27b4;}.cls-37{fill:#5d2ab5;}.cls-38{fill:#5f2db7;}.cls-39{fill:#6130b8;}.cls-40{fill:#6433b9;}.cls-41{fill:#6636ba;}.cls-42{fill:#6839bb;}.cls-43{fill:#6b3cbc;}.cls-44{fill:#6d3fbd;}.cls-45{fill:#6f43be;}.cls-46{fill:#7246bf;}.cls-47{fill:#7449c0;}.cls-48{fill:#764cc1;}.cls-49{fill:#784fc2;}.cls-50{fill:#7b52c3;}.cls-51{fill:#7d55c4;}.cls-52{fill:#7f58c5;}.cls-53{fill:#825bc6;}.cls-54{fill:#845ec7;}.cls-55{fill:#8661c8;}.cls-56{fill:#8864c9;}.cls-57{fill:#8b67ca;}.cls-58{fill:#8d6bcb;}.cls-59{fill:#8f6ecc;}.cls-60{fill:#9271cd;}.cls-61{fill:#9474ce;}.cls-62{fill:#9677cf;}.cls-63{fill:#997ad0;}.cls-64{fill:#9b7dd1;}.cls-65{fill:#9d80d3;}.cls-66{fill:#9f83d4;}.cls-67{fill:#a286d5;}.cls-68{fill:#a489d6;}.cls-69{fill:#a68cd7;}.cls-70{fill:#a98fd8;}.cls-71{fill:#ab92d9;}.cls-72{fill:#ad96da;}.cls-73{fill:#b099db;}.cls-74{fill:#b29cdc;}.cls-75{fill:#b49fdd;}.cls-76{fill:#b6a2de;}.cls-77{fill:#b9a5df;}.cls-78{fill:#bba8e0;}.cls-79{fill:#bdabe1;}.cls-80{fill:#c0aee2;}.cls-81{fill:#c2b1e3;}.cls-82{fill:#c4b4e4;}.cls-83{fill:#c6b7e5;}.cls-84{fill:#c9bae6;}.cls-85{fill:#cbbee7;}.cls-86{fill:#cdc1e8;}.cls-87{fill:#d0c4e9;}.cls-88{fill:#d2c7ea;}.cls-89{fill:#d4caeb;}.cls-90{fill:#d7cdec;}.cls-91{fill:#d9d0ed;}.cls-92{fill:#dbd3ef;}.cls-93{fill:#ddd6f0;}.cls-94{fill:#e0d9f1;}.cls-95{fill:#e2dcf2;}.cls-96{fill:#e4dff3;}.cls-97{fill:#e7e2f4;}.cls-98{fill:#e9e5f5;}.cls-99{fill:#ebe9f6;}.cls-100{fill:#eeecf7;}.cls-101{fill:#f0eff8;}.cls-102{fill:#f2f2f9;}.cls-103{fill:#f4f5fa;}.cls-104{fill:#f7f8fb;}.cls-105{fill:#f9fbfc;}</style><clipPath id="clip-path"><rect class="cls-1" x="-6.64" y="60.71" width="71.09" height="171.81"/></clipPath><clipPath id="clip-path-2"><polygon class="cls-1" points="90.26 68.51 128.44 39.42 174.55 68.49 173.5 232.54 88.92 232.52 90.26 68.51"/></clipPath><clipPath id="clip-path-3"><path class="cls-1" d="M317.86,168.56l-28.76,64H203L172.44,70.1s19.72-61,21.64-61h88.73Z"/></clipPath></defs><title>edificios</title><g id="Capa_2" data-name="Capa 2"><g id="Pagina_inicial_Escritorio" data-name="Pagina inicial Escritorio"><g class="cls-2"><polygon class="cls-3" points="32.43 123.94 32.43 254.35 63.16 236.61 63.16 106.2 32.43 123.94"/><polygon class="cls-4" points="32.43 123.94 1.7 106.2 1.7 236.61 32.43 254.35 32.43 123.94"/><polygon class="cls-5" points="32.43 88.46 63.16 106.2 32.43 123.94 1.7 106.2 32.43 88.46"/><polygon class="cls-6" points="32.43 123.94 32.43 254.35 63.16 236.61 63.16 106.2 32.43 123.94"/><polygon class="cls-7" points="32.43 123.94 1.7 106.2 1.7 236.61 32.43 254.35 32.43 123.94"/><polygon class="cls-5" points="32.43 88.46 63.16 106.2 32.43 123.94 1.7 106.2 32.43 88.46"/><polygon class="cls-8" points="32.43 88.5 63.13 106.22 32.43 123.94 1.73 106.22 32.43 88.5"/><polygon class="cls-6" points="41.41 154.37 41.41 253.93 61.02 242.61 61.02 143.05 41.41 154.37"/><polygon class="cls-8" points="41.41 154.37 37.3 152 37.3 251.56 41.41 253.93 41.41 154.37"/><polygon class="cls-9" points="56.88 140.69 60.99 143.06 41.41 154.36 37.3 151.99 56.88 140.69"/><polygon class="cls-10" points="32.43 91.12 32.43 91.12 40.11 95.55 32.43 91.12"/><polygon class="cls-10" points="6.22 108.42 32.43 93.29 58.64 108.42 60.86 107.53 40.11 95.55 32.43 91.12 22.2 97.03 4 107.53 6.22 108.42"/><path class="cls-9" d="M32.43,91.06l26.26,15.16L32.43,121.38,6.17,106.22,32.43,91.06m0-2.56L1.73,106.22l30.7,17.72,30.7-17.72Z"/><polygon class="cls-6" points="32.43 105.48 32.43 117.57 51.16 106.75 51.16 94.66 32.43 105.48"/><polygon class="cls-7" points="32.43 105.48 13.7 94.66 13.7 106.75 32.43 117.57 32.43 105.48"/><polygon class="cls-8" points="32.43 83.85 51.16 94.66 32.43 105.48 13.7 94.66 32.43 83.85"/><polygon class="cls-10" points="32.44 85.41 32.44 85.41 37.12 88.12 32.44 85.41"/><polygon class="cls-10" points="16.49 96.23 32.44 87.03 48.43 96.26 49.78 95.43 37.12 88.12 32.44 85.41 26.19 89.02 15.09 95.43 16.49 96.23"/><path class="cls-9" d="M32.43,85.41l16,9.25-16,9.25L16.36,94.66l16-9.25m0-1.56L13.7,94.66l18.73,10.82L51.16,94.66,32.43,83.85Z"/><polygon class="cls-6" points="32.43 94.44 32.43 100.87 42.41 95.11 42.41 88.68 32.43 94.44"/><polygon class="cls-7" points="32.43 94.44 22.46 88.68 22.46 95.11 32.43 100.87 32.43 94.44"/><polygon class="cls-8" points="32.43 82.92 42.41 88.68 32.43 94.44 22.46 88.68 32.43 82.92"/><polygon class="cls-10" points="32.43 83.76 32.43 83.76 34.93 85.2 32.43 83.76"/><polygon class="cls-10" points="23.92 89.51 32.43 84.59 40.95 89.51 41.67 89.09 34.93 85.2 32.43 83.76 29.11 85.68 23.2 89.09 23.92 89.51"/><path class="cls-9" d="M32.43,83.75,41,88.68,32.43,93.6,23.9,88.67l8.53-4.93m0-.83-10,5.76,10,5.76,10-5.76Z"/><polygon class="cls-10" points="39.17 150.91 47.71 150.73 61.02 143.06 56.88 140.69 39.17 150.91"/><polygon class="cls-11" points="5.79 113.67 5.79 117.22 8.86 119 8.86 115.45 5.79 113.67"/><polygon class="cls-12" points="8.86 119 8.86 116.12 6.31 114.64 6.31 117.52 8.86 119"/><polygon class="cls-11" points="11.94 117.24 11.94 120.79 15.01 122.56 15.01 119.02 11.94 117.24"/><polygon class="cls-12" points="15.01 122.56 15.01 119.68 12.46 118.21 12.46 121.09 15.01 122.56"/><polygon class="cls-11" points="18.08 120.8 18.08 124.34 21.15 126.12 21.15 122.57 18.08 120.8"/><polygon class="cls-12" points="21.15 126.12 21.15 123.24 18.6 121.77 18.6 124.65 21.15 126.12"/><polygon class="cls-11" points="24.23 124.36 24.23 127.91 27.3 129.69 27.3 126.14 24.23 124.36"/><polygon class="cls-12" points="27.3 129.69 27.3 126.81 24.75 125.33 24.75 128.21 27.3 129.69"/><polygon class="cls-11" points="5.79 120.8 5.79 124.34 8.86 126.12 8.86 122.57 5.79 120.8"/><polygon class="cls-12" points="8.86 126.12 8.86 123.24 6.31 121.77 6.31 124.65 8.86 126.12"/><polygon class="cls-11" points="11.94 124.36 11.94 127.91 15.01 129.69 15.01 126.14 11.94 124.36"/><polygon class="cls-12" points="15.01 129.69 15.01 126.81 12.46 125.33 12.46 128.21 15.01 129.69"/><polygon class="cls-11" points="18.08 127.92 18.08 131.47 21.15 133.24 21.15 129.69 18.08 127.92"/><polygon class="cls-12" points="21.15 133.24 21.15 130.36 18.6 128.89 18.6 131.77 21.15 133.24"/><polygon class="cls-11" points="24.23 131.49 24.23 135.04 27.3 136.81 27.3 133.26 24.23 131.49"/><polygon class="cls-12" points="27.3 136.81 27.3 133.93 24.75 132.46 24.75 135.34 27.3 136.81"/><polygon class="cls-11" points="5.79 127.92 5.79 131.47 8.86 133.24 8.86 129.69 5.79 127.92"/><polygon class="cls-12" points="8.86 133.24 8.86 130.36 6.31 128.89 6.31 131.77 8.86 133.24"/><polygon class="cls-11" points="11.94 131.49 11.94 135.04 15.01 136.81 15.01 133.26 11.94 131.49"/><polygon class="cls-12" points="15.01 136.81 15.01 133.93 12.46 132.46 12.46 135.34 15.01 136.81"/><polygon class="cls-11" points="18.08 135.04 18.08 138.59 21.15 140.37 21.15 136.82 18.08 135.04"/><polygon class="cls-12" points="21.15 140.37 21.15 137.49 18.6 136.01 18.6 138.89 21.15 140.37"/><polygon class="cls-11" points="24.23 138.61 24.23 142.16 27.3 143.94 27.3 140.39 24.23 138.61"/><polygon class="cls-12" points="27.3 143.94 27.3 141.05 24.75 139.58 24.75 142.46 27.3 143.94"/><polygon class="cls-11" points="5.79 135.04 5.79 138.59 8.86 140.37 8.86 136.82 5.79 135.04"/><polygon class="cls-12" points="8.86 140.37 8.86 137.49 6.31 136.01 6.31 138.89 8.86 140.37"/><polygon class="cls-11" points="11.94 138.61 11.94 142.16 15.01 143.94 15.01 140.39 11.94 138.61"/><polygon class="cls-12" points="15.01 143.94 15.01 141.05 12.46 139.58 12.46 142.46 15.01 143.94"/><polygon class="cls-11" points="18.08 142.17 18.08 145.72 21.15 147.49 21.15 143.94 18.08 142.17"/><polygon class="cls-12" points="21.15 147.49 21.15 144.61 18.6 143.13 18.6 146.02 21.15 147.49"/><polygon class="cls-11" points="24.23 145.74 24.23 149.28 27.3 151.06 27.3 147.51 24.23 145.74"/><polygon class="cls-12" points="27.3 151.06 27.3 148.18 24.75 146.7 24.75 149.58 27.3 151.06"/><polygon class="cls-11" points="5.79 142.17 5.79 145.72 8.86 147.49 8.86 143.94 5.79 142.17"/><polygon class="cls-12" points="8.86 147.49 8.86 144.61 6.31 143.13 6.31 146.02 8.86 147.49"/><polygon class="cls-11" points="11.94 145.74 11.94 149.28 15.01 151.06 15.01 147.51 11.94 145.74"/><polygon class="cls-12" points="15.01 151.06 15.01 148.18 12.46 146.7 12.46 149.58 15.01 151.06"/><polygon class="cls-11" points="18.08 149.29 18.08 152.84 21.15 154.61 21.15 151.06 18.08 149.29"/><polygon class="cls-12" points="21.15 154.61 21.15 151.73 18.6 150.26 18.6 153.14 21.15 154.61"/><polygon class="cls-11" points="24.23 152.86 24.23 156.41 27.3 158.18 27.3 154.63 24.23 152.86"/><polygon class="cls-12" points="27.3 158.18 27.3 155.3 24.75 153.83 24.75 156.71 27.3 158.18"/><polygon class="cls-11" points="5.79 149.29 5.79 152.84 8.86 154.61 8.86 151.06 5.79 149.29"/><polygon class="cls-12" points="8.86 154.61 8.86 151.73 6.31 150.26 6.31 153.14 8.86 154.61"/><polygon class="cls-11" points="11.94 152.86 11.94 156.41 15.01 158.18 15.01 154.63 11.94 152.86"/><polygon class="cls-12" points="15.01 158.18 15.01 155.3 12.46 153.83 12.46 156.71 15.01 158.18"/><polygon class="cls-11" points="18.08 156.41 18.08 159.96 21.15 161.74 21.15 158.19 18.08 156.41"/><polygon class="cls-12" points="21.15 161.74 21.15 158.86 18.6 157.38 18.6 160.26 21.15 161.74"/><polygon class="cls-11" points="24.23 159.98 24.23 163.53 27.3 165.31 27.3 161.76 24.23 159.98"/><polygon class="cls-12" points="27.3 165.31 27.3 162.42 24.75 160.95 24.75 163.83 27.3 165.31"/><polygon class="cls-11" points="5.79 156.41 5.79 159.96 8.86 161.74 8.86 158.19 5.79 156.41"/><polygon class="cls-12" points="8.86 161.74 8.86 158.86 6.31 157.38 6.31 160.26 8.86 161.74"/><polygon class="cls-11" points="11.94 159.98 11.94 163.53 15.01 165.31 15.01 161.76 11.94 159.98"/><polygon class="cls-12" points="15.01 165.31 15.01 162.42 12.46 160.95 12.46 163.83 15.01 165.31"/><polygon class="cls-11" points="18.08 163.54 18.08 167.09 21.15 168.86 21.15 165.31 18.08 163.54"/><polygon class="cls-12" points="21.15 168.86 21.15 165.98 18.6 164.5 18.6 167.39 21.15 168.86"/><polygon class="cls-11" points="24.23 167.11 24.23 170.65 27.3 172.43 27.3 168.88 24.23 167.11"/><polygon class="cls-12" points="27.3 172.43 27.3 169.55 24.75 168.07 24.75 170.95 27.3 172.43"/><polygon class="cls-11" points="5.79 163.54 5.79 167.09 8.86 168.86 8.86 165.31 5.79 163.54"/><polygon class="cls-12" points="8.86 168.86 8.86 165.98 6.31 164.5 6.31 167.39 8.86 168.86"/><polygon class="cls-11" points="11.94 167.11 11.94 170.65 15.01 172.43 15.01 168.88 11.94 167.11"/><polygon class="cls-12" points="15.01 172.43 15.01 169.55 12.46 168.07 12.46 170.95 15.01 172.43"/><polygon class="cls-11" points="18.08 170.66 18.08 174.21 21.15 175.98 21.15 172.44 18.08 170.66"/><polygon class="cls-12" points="21.15 175.98 21.15 173.1 18.6 171.63 18.6 174.51 21.15 175.98"/><polygon class="cls-11" points="24.23 174.23 24.23 177.78 27.3 179.55 27.3 176 24.23 174.23"/><polygon class="cls-12" points="27.3 179.55 27.3 176.67 24.75 175.2 24.75 178.08 27.3 179.55"/><polygon class="cls-11" points="5.74 170.66 5.74 174.21 8.82 175.98 8.82 172.44 5.74 170.66"/><polygon class="cls-12" points="8.82 175.98 8.82 173.1 6.26 171.63 6.26 174.51 8.82 175.98"/><polygon class="cls-11" points="11.89 174.23 11.89 177.78 14.96 179.55 14.96 176 11.89 174.23"/><polygon class="cls-12" points="14.96 179.55 14.96 176.67 12.41 175.2 12.41 178.08 14.96 179.55"/><polygon class="cls-11" points="18.04 177.78 18.04 181.33 21.11 183.11 21.11 179.56 18.04 177.78"/><polygon class="cls-12" points="21.11 183.11 21.11 180.23 18.56 178.75 18.56 181.63 21.11 183.11"/><polygon class="cls-11" points="24.18 181.35 24.18 184.9 27.26 186.68 27.26 183.13 24.18 181.35"/><polygon class="cls-12" points="27.26 186.68 27.26 183.79 24.7 182.32 24.7 185.2 27.26 186.68"/><polygon class="cls-11" points="5.74 177.78 5.74 181.33 8.82 183.11 8.82 179.56 5.74 177.78"/><polygon class="cls-12" points="8.82 183.11 8.82 180.23 6.26 178.75 6.26 181.63 8.82 183.11"/><polygon class="cls-11" points="11.89 181.35 11.89 184.9 14.96 186.68 14.96 183.13 11.89 181.35"/><polygon class="cls-12" points="14.96 186.68 14.96 183.79 12.41 182.32 12.41 185.2 14.96 186.68"/><polygon class="cls-11" points="18.04 184.91 18.04 188.46 21.11 190.23 21.11 186.68 18.04 184.91"/><polygon class="cls-12" points="21.11 190.23 21.11 187.35 18.56 185.88 18.56 188.76 21.11 190.23"/><polygon class="cls-11" points="24.18 188.48 24.18 192.02 27.26 193.8 27.26 190.25 24.18 188.48"/><polygon class="cls-12" points="27.26 193.8 27.26 190.92 24.7 189.44 24.7 192.32 27.26 193.8"/><polygon class="cls-11" points="5.74 184.91 5.74 188.46 8.82 190.23 8.82 186.68 5.74 184.91"/><polygon class="cls-12" points="8.82 190.23 8.82 187.35 6.26 185.88 6.26 188.76 8.82 190.23"/><polygon class="cls-11" points="11.89 188.48 11.89 192.02 14.96 193.8 14.96 190.25 11.89 188.48"/><polygon class="cls-12" points="14.96 193.8 14.96 190.92 12.41 189.44 12.41 192.32 14.96 193.8"/><polygon class="cls-11" points="18.04 192.03 18.04 195.58 21.11 197.35 21.11 193.81 18.04 192.03"/><polygon class="cls-12" points="21.11 197.35 21.11 194.47 18.56 193 18.56 195.88 21.11 197.35"/><polygon class="cls-11" points="24.18 195.6 24.18 199.15 27.26 200.92 27.26 197.37 24.18 195.6"/><polygon class="cls-12" points="27.26 200.92 27.26 198.04 24.7 196.57 24.7 199.45 27.26 200.92"/><polygon class="cls-11" points="5.74 192.03 5.74 195.58 8.82 197.35 8.82 193.81 5.74 192.03"/><polygon class="cls-12" points="8.82 197.35 8.82 194.47 6.26 193 6.26 195.88 8.82 197.35"/><polygon class="cls-11" points="11.89 195.6 11.89 199.15 14.96 200.92 14.96 197.37 11.89 195.6"/><polygon class="cls-12" points="14.96 200.92 14.96 198.04 12.41 196.57 12.41 199.45 14.96 200.92"/><polygon class="cls-11" points="18.04 199.16 18.04 202.7 21.11 204.48 21.11 200.93 18.04 199.16"/><polygon class="cls-12" points="21.11 204.48 21.11 201.6 18.56 200.12 18.56 203 21.11 204.48"/><polygon class="cls-11" points="24.18 202.72 24.18 206.27 27.26 208.04 27.26 204.5 24.18 202.72"/><polygon class="cls-12" points="27.26 208.04 27.26 205.16 24.7 203.69 24.7 206.57 27.26 208.04"/><polygon class="cls-11" points="5.74 199.16 5.74 202.7 8.82 204.48 8.82 200.93 5.74 199.16"/><polygon class="cls-12" points="8.82 204.48 8.82 201.6 6.26 200.12 6.26 203 8.82 204.48"/><polygon class="cls-11" points="11.89 202.72 11.89 206.27 14.96 208.04 14.96 204.5 11.89 202.72"/><polygon class="cls-12" points="14.96 208.04 14.96 205.16 12.41 203.69 12.41 206.57 14.96 208.04"/><polygon class="cls-11" points="18.04 206.28 18.04 209.83 21.11 211.6 21.11 208.05 18.04 206.28"/><polygon class="cls-12" points="21.11 211.6 21.11 208.72 18.56 207.25 18.56 210.13 21.11 211.6"/><polygon class="cls-11" points="24.18 209.85 24.18 213.4 27.26 215.17 27.26 211.62 24.18 209.85"/><polygon class="cls-12" points="27.26 215.17 27.26 212.29 24.7 210.81 24.7 213.69 27.26 215.17"/><polygon class="cls-11" points="5.74 206.28 5.74 209.83 8.82 211.6 8.82 208.05 5.74 206.28"/><polygon class="cls-12" points="8.82 211.6 8.82 208.72 6.26 207.25 6.26 210.13 8.82 211.6"/><polygon class="cls-11" points="11.89 209.85 11.89 213.4 14.96 215.17 14.96 211.62 11.89 209.85"/><polygon class="cls-12" points="14.96 215.17 14.96 212.29 12.41 210.81 12.41 213.69 14.96 215.17"/><polygon class="cls-11" points="18.04 213.4 18.04 216.95 21.11 218.72 21.11 215.18 18.04 213.4"/><polygon class="cls-12" points="21.11 218.72 21.11 215.84 18.56 214.37 18.56 217.25 21.11 218.72"/><polygon class="cls-11" points="24.18 216.97 24.18 220.52 27.26 222.29 27.26 218.74 24.18 216.97"/><polygon class="cls-12" points="27.26 222.29 27.26 219.41 24.7 217.94 24.7 220.82 27.26 222.29"/><polygon class="cls-11" points="5.74 213.4 5.74 216.95 8.82 218.72 8.82 215.18 5.74 213.4"/><polygon class="cls-12" points="8.82 218.72 8.82 215.84 6.26 214.37 6.26 217.25 8.82 218.72"/><polygon class="cls-11" points="11.89 216.97 11.89 220.52 14.96 222.29 14.96 218.74 11.89 216.97"/><polygon class="cls-12" points="14.96 222.29 14.96 219.41 12.41 217.94 12.41 220.82 14.96 222.29"/><polygon class="cls-11" points="18.04 220.53 18.04 224.07 21.11 225.85 21.11 222.3 18.04 220.53"/><polygon class="cls-12" points="21.11 225.85 21.11 222.97 18.56 221.49 18.56 224.37 21.11 225.85"/><polygon class="cls-11" points="24.18 224.09 24.18 227.64 27.26 229.42 27.26 225.87 24.18 224.09"/><polygon class="cls-12" points="27.26 229.42 27.26 226.53 24.7 225.06 24.7 227.94 27.26 229.42"/><polygon class="cls-11" points="5.74 220.53 5.74 224.07 8.82 225.85 8.82 222.3 5.74 220.53"/><polygon class="cls-12" points="8.82 225.85 8.82 222.97 6.26 221.49 6.26 224.37 8.82 225.85"/><polygon class="cls-11" points="11.89 224.09 11.89 227.64 14.96 229.42 14.96 225.87 11.89 224.09"/><polygon class="cls-12" points="14.96 229.42 14.96 226.53 12.41 225.06 12.41 227.94 14.96 229.42"/><polygon class="cls-11" points="18.04 227.65 18.04 231.2 21.11 232.97 21.11 229.42 18.04 227.65"/><polygon class="cls-12" points="21.11 232.97 21.11 230.09 18.56 228.62 18.56 231.5 21.11 232.97"/><polygon class="cls-11" points="24.18 231.22 24.18 234.76 27.26 236.54 27.26 232.99 24.18 231.22"/><polygon class="cls-12" points="27.26 236.54 27.26 233.66 24.7 232.18 24.7 235.06 27.26 236.54"/><polygon class="cls-11" points="5.74 226.75 5.74 230.3 8.82 232.08 8.82 228.53 5.74 226.75"/><polygon class="cls-12" points="8.82 232.08 8.82 229.2 6.26 227.72 6.26 230.6 8.82 232.08"/><polygon class="cls-11" points="11.89 230.32 11.89 233.87 14.96 235.65 14.96 232.1 11.89 230.32"/><polygon class="cls-12" points="14.96 235.65 14.96 232.76 12.41 231.29 12.41 234.17 14.96 235.65"/><polygon class="cls-11" points="59.22 113.67 59.22 117.22 56.15 119 56.15 115.45 59.22 113.67"/><polygon class="cls-11" points="56.15 119 56.15 116.12 58.7 114.64 58.7 117.52 56.15 119"/><polygon class="cls-11" points="53.07 117.24 53.07 120.79 50 122.56 50 119.02 53.07 117.24"/><polygon class="cls-11" points="50 122.56 50 119.68 52.55 118.21 52.55 121.09 50 122.56"/><polygon class="cls-11" points="46.93 120.8 46.93 124.34 43.85 126.12 43.85 122.57 46.93 120.8"/><polygon class="cls-11" points="43.85 126.12 43.85 123.24 46.41 121.77 46.41 124.65 43.85 126.12"/><polygon class="cls-11" points="40.78 124.36 40.78 127.91 37.71 129.69 37.71 126.14 40.78 124.36"/><polygon class="cls-11" points="37.71 129.69 37.71 126.81 40.26 125.33 40.26 128.21 37.71 129.69"/><polygon class="cls-11" points="59.22 120.8 59.22 124.34 56.15 126.12 56.15 122.57 59.22 120.8"/><polygon class="cls-11" points="56.15 126.12 56.15 123.24 58.7 121.77 58.7 124.65 56.15 126.12"/><polygon class="cls-11" points="53.07 124.36 53.07 127.91 50 129.69 50 126.14 53.07 124.36"/><polygon class="cls-11" points="50 129.69 50 126.81 52.55 125.33 52.55 128.21 50 129.69"/><polygon class="cls-11" points="46.93 127.92 46.93 131.47 43.85 133.24 43.85 129.69 46.93 127.92"/><polygon class="cls-11" points="43.85 133.24 43.85 130.36 46.41 128.89 46.41 131.77 43.85 133.24"/><polygon class="cls-11" points="40.78 131.49 40.78 135.04 37.71 136.81 37.71 133.26 40.78 131.49"/><polygon class="cls-11" points="37.71 136.81 37.71 133.93 40.26 132.46 40.26 135.34 37.71 136.81"/><polygon class="cls-11" points="59.22 128.8 59.22 132.35 56.15 134.13 56.15 130.58 59.22 128.8"/><polygon class="cls-11" points="56.15 134.13 56.15 131.25 58.7 129.77 58.7 132.65 56.15 134.13"/><polygon class="cls-11" points="53.07 132.37 53.07 135.92 50 137.69 50 134.15 53.07 132.37"/><polygon class="cls-11" points="50 137.69 50 134.81 52.55 133.34 52.55 136.22 50 137.69"/><polygon class="cls-11" points="46.93 135.93 46.93 139.48 43.85 141.25 43.85 137.7 46.93 135.93"/><polygon class="cls-11" points="43.85 141.25 43.85 138.37 46.41 136.9 46.41 139.78 43.85 141.25"/><polygon class="cls-11" points="40.78 139.5 40.78 143.04 37.71 144.82 37.71 141.27 40.78 139.5"/><polygon class="cls-11" points="37.71 144.82 37.71 141.94 40.26 140.46 40.26 143.34 37.71 144.82"/></g><path class="cls-13" d="M24.59,59.46l.1-.07Z"/><path class="cls-13" d="M25,59.18H25l.16-.09Z"/><path class="cls-13" d="M30.72,57.64c-1.47-.34-4.28.8-5.52,1.45a5.64,5.64,0,0,1,3.93-.4C34,59.8,40.86,64.31,40.06,73c-.57,6.31-6.54,16.32-7.53,16.16.2.14,1.71-.64,1.86-.71,1.55-.7,7-9.85,7.53-16.16C42.72,63.6,35.54,58.75,30.72,57.64Z"/><path class="cls-13" d="M33.61,75a3.07,3.07,0,0,1-.83-.08c-2.27-.52-4.44-3.34-4.85-6.29a4.21,4.21,0,0,1,1.13-4c-1.75.12-2.82,1.93-2.47,4.48.42,3,2.59,5.77,4.85,6.29A2.4,2.4,0,0,0,33.61,75Z"/><path class="cls-14" d="M40.06,73c.8-8.71-6.1-13.22-10.93-14.33a5.64,5.64,0,0,0-3.93.4h-.08l-.16.09-.27.17-.1.07C22.51,60.89,21.43,64,22,68c.87,6.29,8.17,20.74,10.54,21.12C33.52,89.34,39.48,79.33,40.06,73Zm-8.61,2.39c-2.27-.52-4.44-3.34-4.85-6.29-.35-2.55.71-4.36,2.47-4.48a3,3,0,0,1,.9.07A6.56,6.56,0,0,1,34.81,71a4.82,4.82,0,0,1-1.2,4,2.4,2.4,0,0,1-2.16.41Z"/><g class="cls-15"><polygon class="cls-16" points="167.34 70.78 131.39 91.54 131.39 278.98 167.34 258.27 167.34 70.78"/><polygon class="cls-17" points="131.39 91.54 95.44 70.78 95.44 258.24 131.39 279 131.39 91.54"/><polygon class="cls-18" points="128.44 152.7 97.89 135.04 97.89 144.2 128.44 161.86 128.44 152.7"/><polygon class="cls-19" points="128.44 161.86 128.44 153.7 98.75 136.54 98.75 144.7 128.44 161.86"/><polygon class="cls-18" points="128.44 139.29 97.89 121.63 97.89 130.79 128.44 148.45 128.44 139.29"/><polygon class="cls-19" points="128.44 148.45 128.44 140.29 98.75 123.13 98.75 131.29 128.44 148.45"/><polygon class="cls-18" points="128.44 125.88 97.89 108.22 97.89 117.38 128.44 135.04 128.44 125.88"/><polygon class="cls-19" points="128.44 135.04 128.44 126.88 98.75 109.71 98.75 117.88 128.44 135.04"/><polygon class="cls-18" points="128.44 112.47 97.89 94.81 97.89 103.97 128.44 121.63 128.44 112.47"/><polygon class="cls-19" points="128.44 121.63 128.44 113.47 98.75 96.3 98.75 104.47 128.44 121.63"/><polygon class="cls-18" points="128.44 99.06 97.89 81.4 97.89 90.56 128.44 108.22 128.44 99.06"/><polygon class="cls-19" points="128.44 108.22 128.44 100.06 98.75 82.89 98.75 91.06 128.44 108.22"/><polygon class="cls-20" points="131.39 50.07 167.31 70.8 131.39 91.54 95.48 70.8 131.39 50.07"/><polygon class="cls-18" points="134.42 152.7 164.98 135.04 164.98 144.2 134.42 161.86 134.42 152.7"/><polygon class="cls-18" points="134.42 161.86 134.42 153.7 164.11 136.54 164.11 144.7 134.42 161.86"/><polygon class="cls-18" points="134.42 139.29 164.98 121.63 164.98 130.79 134.42 148.45 134.42 139.29"/><polygon class="cls-18" points="134.42 148.45 134.42 140.29 164.11 123.13 164.11 131.29 134.42 148.45"/><polygon class="cls-18" points="134.42 125.88 164.98 108.22 164.98 117.38 134.42 135.04 134.42 125.88"/><polygon class="cls-18" points="134.42 135.04 134.42 126.88 164.11 109.71 164.11 117.88 134.42 135.04"/><polygon class="cls-18" points="134.42 112.47 164.98 94.81 164.98 103.97 134.42 121.63 134.42 112.47"/><polygon class="cls-18" points="134.42 121.63 134.42 113.47 164.11 96.3 164.11 104.47 134.42 121.63"/><polygon class="cls-18" points="134.42 99.06 164.98 81.4 164.98 90.56 134.42 108.22 134.42 99.06"/><polygon class="cls-18" points="134.42 108.22 134.42 100.06 164.11 82.89 164.11 91.06 134.42 108.22"/><polygon class="cls-18" points="128.4 219.77 97.85 202.11 97.85 211.26 128.4 228.93 128.4 219.77"/><polygon class="cls-19" points="128.4 228.93 128.4 220.77 98.71 203.6 98.71 211.77 128.4 228.93"/><polygon class="cls-18" points="128.4 206.36 97.85 188.69 97.85 197.85 128.4 215.52 128.4 206.36"/><polygon class="cls-19" points="128.4 215.52 128.4 207.35 98.71 190.19 98.71 198.35 128.4 215.52"/><polygon class="cls-18" points="128.4 192.95 97.85 175.28 97.85 184.44 128.4 202.11 128.4 192.95"/><polygon class="cls-19" points="128.4 202.11 128.4 193.94 98.71 176.78 98.71 184.94 128.4 202.11"/><polygon class="cls-18" points="128.4 179.54 97.85 161.87 97.85 171.03 128.4 188.69 128.4 179.54"/><polygon class="cls-19" points="128.4 188.69 128.4 180.53 98.71 163.37 98.71 171.53 128.4 188.69"/><polygon class="cls-18" points="128.4 166.13 97.85 148.46 97.85 157.62 128.4 175.28 128.4 166.13"/><polygon class="cls-19" points="128.4 175.28 128.4 167.12 98.71 149.96 98.71 158.12 128.4 175.28"/><polygon class="cls-18" points="134.38 219.77 164.94 202.11 164.94 211.26 134.38 228.93 134.38 219.77"/><polygon class="cls-18" points="134.38 228.93 134.38 220.77 164.08 203.6 164.08 211.77 134.38 228.93"/><polygon class="cls-18" points="134.38 206.36 164.94 188.69 164.94 197.85 134.38 215.52 134.38 206.36"/><polygon class="cls-18" points="134.38 215.52 134.38 207.35 164.08 190.19 164.08 198.35 134.38 215.52"/><polygon class="cls-18" points="134.38 192.95 164.94 175.28 164.94 184.44 134.38 202.11 134.38 192.95"/><polygon class="cls-18" points="134.38 202.11 134.38 193.94 164.08 176.78 164.08 184.94 134.38 202.11"/><polygon class="cls-18" points="128.4 247.34 97.85 229.68 97.85 238.84 128.4 256.5 128.4 247.34"/><polygon class="cls-19" points="128.4 256.5 128.4 248.34 98.71 231.17 98.71 239.34 128.4 256.5"/><polygon class="cls-18" points="128.4 233.93 97.85 216.27 97.85 225.42 128.4 243.09 128.4 233.93"/><polygon class="cls-19" points="128.4 243.09 128.4 234.93 98.71 217.76 98.71 225.93 128.4 243.09"/><polygon class="cls-18" points="134.38 247.34 164.94 229.68 164.94 238.84 134.38 256.5 134.38 247.34"/><polygon class="cls-18" points="134.38 256.5 134.38 248.34 164.08 231.17 164.08 239.34 134.38 256.5"/><polygon class="cls-18" points="134.38 233.93 164.94 216.27 164.94 225.42 134.38 243.09 134.38 233.93"/><polygon class="cls-18" points="134.38 243.09 134.38 234.93 164.08 217.76 164.08 225.93 134.38 243.09"/><polygon class="cls-18" points="134.38 179.54 164.94 161.87 164.94 171.03 134.38 188.69 134.38 179.54"/><polygon class="cls-18" points="134.38 188.69 134.38 180.53 164.08 163.37 164.08 171.53 134.38 188.69"/><polygon class="cls-18" points="134.38 166.13 164.94 148.46 164.94 157.62 134.38 175.28 134.38 166.13"/><polygon class="cls-18" points="134.38 175.28 134.38 167.12 164.08 149.96 164.08 158.12 134.38 175.28"/><polygon class="cls-16" points="131.39 81.4 131.39 84.71 153.72 71.82 153.72 68.51 131.39 81.4"/><polygon class="cls-17" points="131.39 81.4 109.07 68.51 109.07 71.82 131.39 84.71 131.39 81.4"/><polygon class="cls-9" points="149.04 65.78 149.04 65.79 131.38 55.59 113.65 65.83 113.66 65.84 109.07 68.49 131.39 81.38 153.72 68.49 149.04 65.78"/></g><path class="cls-13" d="M123.36,41.23l.08-.06Z"/><path class="cls-13" d="M123.72,41h-.06l.13-.08Z"/><path class="cls-13" d="M128.67,39.46c-1.3-.26-3.74.82-4.8,1.42a5,5,0,0,1,3.44-.46c4.26.84,10.44,4.62,10,12.28-.33,5.55-5.3,14.49-6.17,14.38.18.12,1.48-.61,1.61-.67,1.34-.65,5.84-8.83,6.17-14.38C139.36,44.37,132.93,40.3,128.67,39.46Z"/><path class="cls-13" d="M131.7,54.64a2.72,2.72,0,0,1-.74,0c-2-.4-4-2.84-4.47-5.45a3.73,3.73,0,0,1,.9-3.55c-1.55.16-2.45,1.79-2.06,4,.45,2.61,2.45,5,4.47,5.45A2.13,2.13,0,0,0,131.7,54.64Z"/><path class="cls-14" d="M137.27,52.7c.47-7.66-5.71-11.43-10-12.28a5,5,0,0,0-3.44.46h-.07l-.13.08-.23.16-.08.06c-1.79,1.36-2.65,4.14-2.05,7.61.94,5.49,7.73,18,9.82,18.25C132,67.19,136.94,58.25,137.27,52.7Zm-7.48,2.38c-2-.4-4-2.84-4.47-5.45-.38-2.25.51-3.88,2.06-4a2.69,2.69,0,0,1,.8,0,5.82,5.82,0,0,1,4.47,5.45,4.2,4.2,0,0,1-1,3.56,2.13,2.13,0,0,1-1.86.44Z"/><g class="cls-21"><polygon class="cls-8" points="231.51 78.15 203.64 62.05 203.64 237.69 231.51 253.78 231.51 78.15"/><polygon class="cls-7" points="231.51 78.15 203.64 62.05 203.64 237.69 231.51 253.78 231.51 78.15"/><polygon class="cls-6" points="231.51 78.15 237.09 74.93 237.09 250.56 231.51 253.78 231.51 78.15"/><polygon class="cls-8" points="237.09 74.93 242.66 78.15 242.66 253.78 237.09 250.56 237.09 74.93"/><polygon class="cls-9" points="242.66 78.15 270.54 62.05 237.09 42.74 203.64 62.05 231.51 78.15 237.09 74.93 242.66 78.15"/><polygon class="cls-9" points="242.66 78.15 270.54 62.05 237.09 42.74 203.64 62.05 231.51 78.15 237.09 74.93 242.66 78.15"/><polygon class="cls-8" points="241.96 70.67 257.16 61.89 238.92 51.37 220.69 61.89 235.88 70.67 238.92 68.91 241.96 70.67"/><polygon class="cls-1" points="238.92 52.92 223.38 61.89 223.43 61.92 238.92 52.97 254.42 61.92 254.46 61.89 238.92 52.92"/><polygon class="cls-6" points="223.38 61.89 238.92 52.92 254.46 61.89 254.42 61.92 255.77 62.7 257.16 61.89 238.92 51.37 220.69 61.89 222.08 62.7 223.43 61.92 223.38 61.89"/><polygon class="cls-6" points="242.66 78.15 270.54 62.05 270.54 237.69 242.66 253.78 242.66 78.15"/><polygon class="cls-12" points="207.15 239.71 208.49 240.49 208.49 71.29 207.15 70.51 207.15 239.71"/><polygon class="cls-12" points="211.33 242.13 212.67 242.9 212.67 73.71 211.33 72.93 211.33 242.13"/><polygon class="cls-12" points="215.51 244.54 216.85 245.32 216.85 76.12 215.51 75.34 215.51 244.54"/><polygon class="cls-12" points="219.69 246.96 221.04 247.73 221.04 78.53 219.69 77.76 219.69 246.96"/><polygon class="cls-12" points="223.87 249.37 225.22 250.15 225.22 80.95 223.87 80.17 223.87 249.37"/><polygon class="cls-6" points="238.2 60.38 238.2 67.89 249.84 61.17 249.84 53.66 238.2 60.38"/><polygon class="cls-7" points="238.2 60.38 226.56 53.66 226.56 61.17 238.2 67.89 238.2 60.38"/><polygon class="cls-10" points="238.2 50.01 238.2 50.01 240.76 51.49 238.2 50.01"/><polygon class="cls-10" points="229.48 55.9 238.2 50.86 246.93 55.9 247.67 55.48 240.76 51.49 238.2 50.01 234.8 51.98 228.74 55.48 229.48 55.9"/><path class="cls-9" d="M238.2,50l8.74,5-8.74,5-8.74-5,8.74-5m0-.85L228,55l10.22,6,10.22-6L238.2,49.1Z"/><polygon class="cls-6" points="238.2 48.07 225.88 55.19 223.52 55.19 223.52 56.55 238.2 65.03 238.2 65.03 238.2 48.07 238.2 48.07"/><polygon class="cls-10" points="252.89 55.19 250.53 55.19 238.2 48.07 238.2 65.03 252.89 56.55 252.89 55.19"/><polygon class="cls-9" points="238.2 46.71 252.89 55.19 238.2 63.67 223.52 55.19 238.2 46.71"/><polygon class="cls-11" points="266.18 240.19 264.83 240.97 264.83 71.77 266.18 71 266.18 240.19"/><polygon class="cls-11" points="262 242.61 260.65 243.39 260.65 74.19 262 73.41 262 242.61"/><polygon class="cls-11" points="257.82 245.02 256.47 245.8 256.47 76.6 257.82 75.82 257.82 245.02"/><polygon class="cls-11" points="253.64 247.44 252.29 248.22 252.29 79.02 253.64 78.24 253.64 247.44"/><polygon class="cls-11" points="249.46 249.85 248.11 250.63 248.11 81.43 249.46 80.65 249.46 249.85"/><rect class="cls-6" x="245.17" y="80.24" width="25.32" height="2.87" transform="translate(-6.29 139.86) rotate(-30)"/><rect class="cls-7" x="214.8" y="69.02" width="2.87" height="25.32" transform="translate(37.38 228.1) rotate(-60)"/></g><path class="cls-13" d="M244.86,26.67l-.08-.06Z"/><path class="cls-13" d="M244.48,26.41h.06l-.13-.08Z"/><path class="cls-13" d="M239.53,24.9c1.3-.26,3.74.82,4.8,1.42a5,5,0,0,0-3.44-.46c-4.26.84-10.44,4.62-10,12.28.33,5.55,5.3,14.49,6.17,14.38-.18.12-1.48-.61-1.61-.67-1.34-.65-5.84-8.83-6.17-14.38C228.85,29.81,235.27,25.74,239.53,24.9Z"/><path class="cls-13" d="M236.5,40.08a2.72,2.72,0,0,0,.74,0c2-.4,4-2.84,4.47-5.45a3.73,3.73,0,0,0-.9-3.55c1.55.16,2.45,1.79,2.06,4-.45,2.61-2.45,5-4.47,5.45A2.13,2.13,0,0,1,236.5,40.08Z"/><path class="cls-14" d="M237.1,52.52c2.09-.27,8.88-12.75,9.82-18.25.6-3.47-.26-6.25-2.05-7.61l-.08-.06-.23-.16-.13-.08h-.07a5,5,0,0,0-3.44-.46c-4.26.84-10.44,4.62-10,12.28C231.26,43.69,236.23,52.63,237.1,52.52Zm-.59-12.44a4.2,4.2,0,0,1-1-3.56A5.82,5.82,0,0,1,240,31.07a2.69,2.69,0,0,1,.8,0c1.55.16,2.45,1.79,2.06,4-.45,2.61-2.45,5-4.47,5.45a2.13,2.13,0,0,1-1.87-.44Z"/><path class="cls-22" d="M85.05,31.74A22.53,22.53,0,0,1,64.46,0a22.55,22.55,0,1,0,28.6,30.25A22.46,22.46,0,0,1,85.05,31.74Z"/><g class="cls-23"><circle class="cls-9" cx="138.08" cy="23.46" r="0.95"/><circle class="cls-9" cx="146.3" cy="62.44" r="0.29"/><circle class="cls-9" cx="154.27" cy="32.35" r="0.64"/><circle class="cls-9" cx="150.94" cy="35.55" r="1.03"/><circle class="cls-9" cx="169.71" cy="54.92" r="0.58"/><circle class="cls-9" cx="141.48" cy="51.65" r="0.46"/><circle class="cls-9" cx="131.16" cy="54.21" r="1.12"/><circle class="cls-9" cx="103.64" cy="56.02" r="0.36"/><circle class="cls-9" cx="84.23" cy="48.79" r="0.86"/><circle class="cls-9" cx="12.21" cy="114.75" r="0.45"/><circle class="cls-9" cx="87.87" cy="69.25" r="0.85"/><circle class="cls-9" cx="56.11" cy="61.74" r="0.71"/><circle class="cls-9" cx="43.1" cy="30.46" r="0.5"/><circle class="cls-9" cx="43.89" cy="47.04" r="1.09"/><circle class="cls-9" cx="56.11" cy="49.53" r="0.58"/><circle class="cls-9" cx="38.65" cy="40.55" r="0.78"/><circle class="cls-9" cx="263.4" cy="19.33" r="0.7"/><circle class="cls-9" cx="241.15" cy="31.27" r="0.22"/><circle class="cls-9" cx="236.79" cy="23.39" r="1.09"/><circle class="cls-9" cx="256.77" cy="61.75" r="0.47"/><circle class="cls-9" cx="79.29" cy="10.75" r="0.95" transform="matrix(0.52, -0.86, 0.86, 0.52, 29.24, 73.18)"/><circle class="cls-9" cx="114.38" cy="24.01" r="0.86" transform="translate(34.89 109.68) rotate(-59)"/><circle class="cls-9" cx="80.17" cy="31.99" r="0.12" transform="matrix(0.52, -0.86, 0.86, 0.52, 11.46, 84.23)"/><circle class="cls-9" cx="170.3" cy="21.28" r="1.12" transform="translate(64.35 156.29) rotate(-59)"/><circle class="cls-9" cx="223.66" cy="53.15" r="0.5"/><circle class="cls-9" cx="238.14" cy="55.54" r="1.12" transform="translate(67.88 231.06) rotate(-59)"/><circle class="cls-9" cx="39.09" cy="8" r="1" transform="translate(12.1 37.39) rotate(-59)"/><circle class="cls-9" cx="36.3" cy="16.95" r="0.22" transform="translate(3.07 39.34) rotate(-59)"/><circle class="cls-9" cx="11.77" cy="17.58" r="0.51" transform="matrix(0.52, -0.86, 0.86, 0.52, -9.36, 18.61)"/><circle class="cls-9" cx="24.79" cy="42.03" r="0.76" transform="translate(-24 41.63) rotate(-59)"/><circle class="cls-9" cx="51.03" cy="39.78" r="0.56" transform="translate(-9.35 63.03) rotate(-59)"/><circle class="cls-9" cx="205.04" cy="106.42" r="0.88"/><circle class="cls-9" cx="189.68" cy="96.57" r="1.12"/><circle class="cls-9" cx="76.26" cy="73.63" r="0.89"/><circle class="cls-9" cx="27.09" cy="77.68" r="0.18"/><circle class="cls-9" cx="38.4" cy="67.6" r="0.34"/><circle class="cls-9" cx="14.75" cy="61.03" r="0.12"/><circle class="cls-9" cx="261.75" cy="38.21" r="0.58"/><circle class="cls-9" cx="247.9" cy="17.37" r="0.94"/><circle class="cls-9" cx="275.01" cy="64.79" r="0.22"/><circle class="cls-9" cx="93.08" cy="14" r="0.48" transform="matrix(0.52, -0.86, 0.86, 0.52, 33.14, 86.57)"/><circle class="cls-9" cx="208.14" cy="16.36" r="0.52" transform="translate(87.9 187.04) rotate(-59.33)"/><circle class="cls-9" cx="205.26" cy="18.81" r="1.1" transform="translate(83.42 185.07) rotate(-59)"/><circle class="cls-9" cx="210.37" cy="20.49" r="0.26" transform="translate(84.45 190.26) rotate(-59)"/><circle class="cls-9" cx="185.32" cy="133.78" r="0.42"/><circle class="cls-9" cx="180.78" cy="141.85" r="0.86"/><circle class="cls-9" cx="199.19" cy="115.13" r="0.53"/><circle class="cls-9" cx="183.36" cy="115.34" r="0.26"/><circle class="cls-9" cx="172.04" cy="117.56" r="0.66"/><circle class="cls-9" cx="75.96" cy="109.36" r="0.31"/><circle class="cls-9" cx="276.07" cy="79.34" r="0.84"/><circle class="cls-9" cx="8.59" cy="141.73" r="0.98"/><circle class="cls-9" cx="186.35" cy="65.85" r="0.84"/><circle class="cls-9" cx="197.31" cy="76.64" r="1.05"/><circle class="cls-9" cx="181.44" cy="88.51" r="0.74"/><circle class="cls-9" cx="65.88" cy="116.05" r="0.32"/><circle class="cls-9" cx="158.55" cy="63.34" r="0.72"/><circle class="cls-9" cx="203.14" cy="117.09" r="0.13"/><circle class="cls-9" cx="0.42" cy="42.31" r="0.42" transform="translate(-36.06 20.88) rotate(-59)"/><circle class="cls-9" cx="9.87" cy="46.67" r="1.04" transform="translate(-35.22 31.09) rotate(-59)"/><circle class="cls-9" cx="254.19" cy="21.28" r="0.2"/><circle class="cls-9" cx="266.57" cy="45.88" r="0.67"/><circle class="cls-9" cx="276.87" cy="33.91" r="0.74"/></g><path class="cls-24" d="M169.6,4.76s27.51,24.77,39.61,36.86c3.82,3.82,4.94,6.17,4.18,6.93s-2.77,0-6.93-4.18C194.36,32.28,169.6,4.76,169.6,4.76Z"/><path class="cls-25" d="M170.08,5.24s27.2,24.48,39.15,36.43c3.78,3.78,4.89,6.11,4.14,6.86s-2.75,0-6.86-4.14C194.56,32.44,170.08,5.25,170.08,5.24Z"/><path class="cls-26" d="M170.56,5.72s26.88,24.19,38.7,36c3.75,3.75,4.85,6,4.1,6.8s-2.72,0-6.8-4.1C194.75,32.61,170.56,5.73,170.56,5.72Z"/><path class="cls-27" d="M171,6.21s26.56,23.9,38.25,35.58c3.72,3.72,4.8,6,4.06,6.73s-2.69,0-6.73-4.06C194.94,32.77,171,6.21,171,6.21Z"/><path class="cls-28" d="M171.52,6.69s26.25,23.6,37.84,35.15c3.68,3.68,4.75,5.94,4,6.67s-2.66,0-6.67-4C195.13,32.94,171.52,6.7,171.52,6.69Z"/><path class="cls-29" d="M172,7.17s25.93,23.32,37.35,34.73c3.65,3.65,4.71,5.88,4,6.6s-2.63,0-6.6-4C195.36,33.1,172,7.18,172,7.17Z"/><path class="cls-30" d="M172.49,7.65s25.61,23,36.87,34.35c3.61,3.61,4.66,5.82,3.95,6.53s-2.6,0-6.53-4C195.52,33.26,172.48,7.66,172.49,7.65Z"/><path class="cls-31" d="M173,8.13S198.27,30.87,209.36,42c3.58,3.58,4.61,5.76,3.91,6.47s-2.58,0-6.47-3.91C195.71,33.43,172.95,8.14,173,8.13Z"/><path class="cls-32" d="M173.45,8.61s25,22.45,36,33.45c3.55,3.55,4.57,5.7,3.87,6.4s-2.55,0-6.4-3.87C195.9,33.59,173.43,8.63,173.45,8.61Z"/><path class="cls-33" d="M173.93,9.09s24.66,22.16,35.54,33c3.51,3.51,4.52,5.64,3.83,6.34s-2.52,0-6.34-3.83C196.09,33.76,173.91,9.11,173.93,9.09Z"/><path class="cls-34" d="M174.41,9.58s24.35,21.87,35.08,32.6c3.48,3.48,4.47,5.58,3.79,6.27s-2.49,0-6.27-3.79C196.28,33.92,174.36,9.59,174.41,9.58Z"/><path class="cls-35" d="M174.89,10.06s24,21.58,34.63,32.18c3.45,3.45,4.43,5.53,3.75,6.2s-2.46,0-6.2-3.75C196.47,34.09,174.87,10.08,174.89,10.06Z"/><path class="cls-36" d="M175.36,10.54s23.72,21.29,34.18,31.75c3.41,3.41,4.38,5.47,3.71,6.14s-2.43,0-6.14-3.71C196.66,34.25,175.36,10.56,175.36,10.54Z"/><path class="cls-37" d="M175.86,11s23.4,21,33.73,31.33c3.38,3.38,4.33,5.41,3.67,6.07s-2.41,0-6.07-3.67C196.86,34.42,175.83,11,175.86,11Z"/><path class="cls-38" d="M176.36,11.5s23.08,20.71,33.27,30.9c3.35,3.35,4.29,5.35,3.63,6s-2.38,0-6-3.63C197.05,34.58,176.36,11.53,176.36,11.5Z"/><path class="cls-39" d="M176.82,12s22.77,20.42,32.82,30.48c3.31,3.31,4.24,5.29,3.59,5.94s-2.35,0-5.94-3.59C197.24,34.75,176.79,12,176.82,12Z"/><path class="cls-40" d="M177.3,12.46s22.45,20.13,32.37,30c3.28,3.28,4.2,5.23,3.55,5.87s-2.32,0-5.87-3.55C197.43,34.91,177.27,12.49,177.3,12.46Z"/><path class="cls-41" d="M177.78,12.94s22.13,19.84,31.92,29.63c3.25,3.25,4.15,5.17,3.52,5.81s-2.29,0-5.81-3.52C197.62,35.08,177.75,13,177.78,12.94Z"/><path class="cls-42" d="M178.26,13.43S200.08,33,209.73,42.63c3.21,3.21,4.1,5.12,3.48,5.74s-2.26,0-5.74-3.48C197.81,35.24,178.23,13.46,178.26,13.43Z"/><path class="cls-43" d="M178.74,13.91s21.5,19.26,31,28.77c3.18,3.18,4.06,5.06,3.44,5.67s-2.24,0-5.67-3.44C198,35.41,178.71,13.94,178.74,13.91Z"/><path class="cls-44" d="M179.23,14.39s21.18,19,30.56,28.35c3.14,3.14,4,5,3.4,5.61s-2.21,0-5.61-3.4C198.2,35.57,179.19,14.43,179.23,14.39Z"/><path class="cls-45" d="M179.71,14.87s20.87,18.68,30.11,27.92c3.11,3.11,4,4.94,3.36,5.54s-2.18,0-5.54-3.36C198.36,35.73,179.67,14.91,179.71,14.87Z"/><path class="cls-46" d="M180.19,15.35s20.55,18.39,29.65,27.5c3.08,3.08,3.91,4.88,3.32,5.48s-2.15,0-5.48-3.32C198.58,35.9,180.15,15.39,180.19,15.35Z"/><path class="cls-47" d="M180.67,15.83s20.23,18.1,29.2,27.07c3,3,3.87,4.82,3.28,5.41s-2.12,0-5.41-3.28C198.77,36.06,180.62,15.88,180.67,15.83Z"/><path class="cls-48" d="M181.15,16.31S201.07,34.13,209.9,43c3,3,3.82,4.76,3.24,5.34s-2.09,0-5.34-3.24C199,36.23,181.1,16.36,181.15,16.31Z"/><path class="cls-49" d="M181.63,16.79s19.6,17.52,28.3,26.22c3,3,3.78,4.7,3.2,5.28s-2.07,0-5.28-3.2C199.16,36.39,181.58,16.84,181.63,16.79Z"/><path class="cls-50" d="M182.11,17.28c.05,0,19.28,17.23,27.84,25.8,2.94,2.94,3.73,4.65,3.16,5.21s-2,0-5.21-3.16C199.36,36.56,182.06,17.33,182.11,17.28Z"/><path class="cls-51" d="M182.59,17.76c.05,0,19,16.94,27.39,25.37,2.91,2.91,3.68,4.59,3.12,5.15s-2,0-5.15-3.12C199.54,36.72,182.54,17.81,182.59,17.76Z"/><path class="cls-52" d="M183.08,18.24c.05,0,18.65,16.65,26.94,25,2.88,2.88,3.64,4.53,3.08,5.08s-2,0-5.08-3.08C199.73,36.89,183,18.29,183.08,18.24Z"/><path class="cls-53" d="M183.56,18.72c.06-.06,18.33,16.36,26.49,24.52,2.84,2.84,3.59,4.47,3,5s-2,0-5-3C199.92,37,183.5,18.78,183.56,18.72Z"/><path class="cls-54" d="M184,19.2c.06-.06,18,16.07,26,24.09,2.81,2.81,3.54,4.41,3,5s-1.92,0-4.95-3C200.11,37.22,184,19.26,184,19.2Z"/><path class="cls-55" d="M184.52,19.68c.06-.06,17.7,15.79,25.58,23.67,2.78,2.78,3.5,4.35,3,4.88s-1.9,0-4.88-3C200.3,37.38,184.46,19.74,184.52,19.68Z"/><path class="cls-56" d="M185,20.16c.06-.06,17.38,15.5,25.13,23.24,2.74,2.74,3.45,4.29,2.93,4.81s-1.87,0-4.81-2.93C200.5,37.55,184.94,20.23,185,20.16Z"/><path class="cls-57" d="M185.48,20.65c.06-.06,17.07,15.21,24.68,22.82,2.71,2.71,3.4,4.23,2.89,4.75s-1.84,0-4.75-2.89C200.69,37.71,185.42,20.71,185.48,20.65Z"/><path class="cls-58" d="M186,21.13c.07-.07,16.75,14.92,24.23,22.39,2.67,2.67,3.36,4.18,2.85,4.68s-1.81,0-4.68-2.85C200.88,37.88,185.9,21.19,186,21.13Z"/><path class="cls-59" d="M186.45,21.61c.07-.07,16.43,14.63,23.77,22,2.64,2.64,3.31,4.12,2.81,4.62s-1.78,0-4.62-2.81C201.07,38,186.36,21.68,186.45,21.61Z"/><path class="cls-60" d="M186.93,22.09c.07-.07,16.12,14.34,23.32,21.54,2.61,2.61,3.26,4.06,2.77,4.55s-1.75,0-4.55-2.77C201.26,38.21,186.86,22.16,186.93,22.09Z"/><path class="cls-61" d="M187.36,22.57c.07-.07,15.8,14,22.87,21.12,2.57,2.57,3.22,4,2.73,4.48s-1.73,0-4.48-2.73C201.45,38.37,187.36,22.64,187.36,22.57Z"/><path class="cls-62" d="M187.89,23c.07,0,15.47,13.76,22.42,20.69,2.54,2.54,3.17,3.94,2.69,4.42s-1.7,0-4.42-2.69C201.65,38.53,187.82,23.13,187.89,23Z"/><path class="cls-63" d="M188.36,23.53c.08-.08,15.17,13.47,22,20.27,2.51,2.51,3.12,3.88,2.65,4.35s-1.67,0-4.35-2.65C201.84,38.7,188.29,23.61,188.36,23.53Z"/><path class="cls-64" d="M188.85,24c.08-.08,14.85,13.18,21.51,19.84,2.47,2.47,3.08,3.82,2.61,4.29s-1.64,0-4.29-2.61C202,38.86,188.77,24.09,188.85,24Z"/><path class="cls-65" d="M189.36,24.5c.08-.08,14.53,12.89,21.06,19.41,2.44,2.44,3,3.77,2.57,4.22s-1.61,0-4.22-2.57C202.22,39,189.25,24.57,189.36,24.5Z"/><path class="cls-66" d="M189.81,25c.08-.08,14.22,12.6,20.61,19,2.41,2.41,3,3.71,2.54,4.15s-1.58,0-4.15-2.54C202.41,39.19,189.73,25.06,189.81,25Z"/><path class="cls-67" d="M190.3,25.46c.08-.08,13.9,12.31,20.15,18.56,2.37,2.37,2.94,3.65,2.5,4.09s-1.56,0-4.09-2.5C202.6,39.36,190.21,25.54,190.3,25.46Z"/><path class="cls-68" d="M190.78,25.94c.09-.09,13.58,12,19.7,18.14,2.34,2.34,2.89,3.59,2.46,4s-1.53,0-4-2.46C202.8,39.52,190.69,26,190.78,25.94Z"/><path class="cls-69" d="M191.26,26.42c.09-.09,13.27,11.73,19.25,17.71,2.3,2.3,2.84,3.53,2.42,4s-1.5,0-4-2.42C203,39.69,191.17,26.51,191.26,26.42Z"/><path class="cls-70" d="M191.74,26.9c.09-.09,12.95,11.44,18.8,17.29,2.27,2.27,2.8,3.47,2.38,3.89s-1.47,0-3.89-2.38C203.18,39.85,191.65,27,191.74,26.9Z"/><path class="cls-71" d="M192.22,27.38c.09-.09,12.63,11.15,18.34,16.86,2.24,2.24,2.75,3.41,2.34,3.82s-1.44,0-3.82-2.34C203.36,40,192.13,27.47,192.22,27.38Z"/><path class="cls-72" d="M192.7,27.86c.09-.09,12.32,10.86,17.89,16.44,2.2,2.2,2.7,3.35,2.3,3.76s-1.41,0-3.76-2.3C203.56,40.18,192.61,28,192.7,27.86Z"/><path class="cls-73" d="M193.18,28.35c.09-.09,12,10.57,17.44,16,2.17,2.17,2.66,3.3,2.26,3.69s-1.39,0-3.69-2.26C203.75,40.35,193.09,28.44,193.18,28.35Z"/><path class="cls-74" d="M193.66,28.83c.1-.1,11.68,10.28,17,15.58,2.14,2.14,2.61,3.24,2.22,3.62s-1.36,0-3.62-2.22C203.95,40.51,193.57,28.92,193.66,28.83Z"/><path class="cls-75" d="M194.15,29.31c.1-.1,11.37,10,16.54,15.16,2.1,2.1,2.56,3.18,2.18,3.56s-1.33,0-3.56-2.18C204.14,40.68,194.05,29.41,194.15,29.31Z"/><path class="cls-76" d="M194.63,29.79c.1-.1,11,9.7,16.08,14.73,2.07,2.07,2.52,3.12,2.14,3.49s-1.3,0-3.49-2.14C204.36,40.84,194.53,29.89,194.63,29.79Z"/><path class="cls-77" d="M195.11,30.27c.1-.1,10.73,9.41,15.63,14.31,2,2,2.47,3.06,2.1,3.43s-1.27,0-3.43-2.1C204.52,41,195,30.37,195.11,30.27Z"/><path class="cls-78" d="M195.59,30.75c.1-.1,10.42,9.12,15.18,13.88,2,2,2.42,3,2.06,3.36s-1.24,0-3.36-2.06C204.71,41.17,195.49,30.86,195.59,30.75Z"/><path class="cls-79" d="M196.07,31.23c.11-.11,10.1,8.83,14.73,13.46,2,2,2.38,2.94,2,3.29s-1.22,0-3.29-2C204.9,41.33,196,31.34,196.07,31.23Z"/><path class="cls-80" d="M196.55,31.72c.11-.11,9.78,8.54,14.27,13,1.94,1.94,2.33,2.88,2,3.23s-1.19,0-3.23-2C205.09,41.5,196.44,31.82,196.55,31.72Z"/><path class="cls-81" d="M197,32.2c.11-.11,9.47,8.25,13.82,12.61,1.9,1.9,2.28,2.83,1.95,3.16s-1.16.06-3.16-2C205.29,41.66,196.92,32.31,197,32.2Z"/><path class="cls-82" d="M197.52,32.68c.11-.11,9.15,8,13.37,12.18,1.87,1.87,2.24,2.77,1.91,3.09s-1.13.06-3.1-1.91C205.48,41.83,197.36,32.79,197.52,32.68Z"/><path class="cls-83" d="M198,33.16c.11-.11,8.83,7.67,12.92,11.76,1.83,1.83,2.19,2.71,1.87,3s-1.1.06-3-1.87C205.67,42,197.88,33.27,198,33.16Z"/><path class="cls-84" d="M198.48,33.64C198.6,33.52,207,41,210.94,45c1.8,1.8,2.14,2.65,1.83,3s-1.07.06-3-1.83C205.86,42.16,198.36,33.76,198.48,33.64Z"/><path class="cls-85" d="M199,34.12c.12-.12,8.2,7.09,12,10.9,1.77,1.77,2.1,2.59,1.79,2.9s-1,.06-2.9-1.79C206.05,42.32,198.84,34.24,199,34.12Z"/><path class="cls-86" d="M199.44,34.6c.12-.12,7.88,6.8,11.56,10.48,1.73,1.73,2,2.53,1.75,2.83s-1,.06-2.83-1.75C206.24,42.49,199.36,34.72,199.44,34.6Z"/><path class="cls-87" d="M199.92,35.08c.12-.12,7.57,6.51,11.11,10,1.7,1.7,2,2.47,1.71,2.76s-1,.06-2.76-1.71C206.44,42.65,199.8,35.21,199.92,35.08Z"/><path class="cls-88" d="M200.36,35.57c.12-.12,7.25,6.22,10.65,9.63,1.67,1.67,2,2.41,1.67,2.7s-1,.07-2.7-1.67C206.63,42.82,200.28,35.69,200.36,35.57Z"/><path class="cls-89" d="M200.88,36c.13-.13,6.93,5.94,10.2,9.2,1.63,1.63,1.91,2.36,1.63,2.63s-.93.07-2.63-1.63C206.82,43,200.76,36.17,200.88,36Z"/><path class="cls-90" d="M201.36,36.53a130.21,130.21,0,0,1,9.75,8.78c1.6,1.6,1.86,2.3,1.59,2.57s-.9.07-2.57-1.59A130.29,130.29,0,0,1,201.36,36.53Z"/><path class="cls-91" d="M201.85,37a119,119,0,0,1,9.3,8.35c1.57,1.57,1.82,2.24,1.55,2.5s-.87.07-2.5-1.55A118.91,118.91,0,0,1,201.85,37Z"/><path class="cls-92" d="M202.36,37.49a108.09,108.09,0,0,1,8.84,7.93c1.53,1.53,1.77,2.18,1.52,2.43s-.85.07-2.43-1.52A108.1,108.1,0,0,1,202.36,37.49Z"/><path class="cls-93" d="M202.81,38a97.72,97.72,0,0,1,8.39,7.5c1.5,1.5,1.72,2.12,1.48,2.37s-.82.07-2.37-1.48A108,108,0,0,1,202.81,38Z"/><path class="cls-94" d="M203.29,38.45c.14-.14,5.35,4.49,7.94,7.08,1.47,1.47,1.68,2.06,1.44,2.3s-.79.07-2.3-1.44C207.78,43.8,203.16,38.59,203.29,38.45Z"/><path class="cls-95" d="M203.77,38.93c.14-.14,5,4.2,7.49,6.65,1.43,1.43,1.63,2,1.4,2.24s-.76.08-2.24-1.4C208,44,203.63,39.07,203.77,38.93Z"/><path class="cls-96" d="M204.25,39.42c.14-.14,4.72,3.91,7,6.22,1.4,1.4,1.58,2,1.36,2.17s-.73.08-2.17-1.36C208.16,44.13,204.11,39.56,204.25,39.42Z"/><path class="cls-97" d="M204.73,39.9c.14-.14,4.4,3.62,6.58,5.8,1.36,1.36,1.54,1.89,1.32,2.1s-.7.08-2.1-1.32A66.81,66.81,0,0,1,204.73,39.9Z"/><path class="cls-98" d="M205.22,40.38c.14-.14,4.08,3.33,6.13,5.37,1.33,1.33,1.49,1.83,1.28,2s-.68.08-2-1.28C208.54,44.46,205.07,40.52,205.22,40.38Z"/><path class="cls-99" d="M205.7,40.86c.15-.15,3.77,3,5.68,5,1.3,1.3,1.44,1.77,1.24,2s-.65.08-2-1.24C208.73,44.63,205.55,41,205.7,40.86Z"/><path class="cls-100" d="M206.18,41.34c.15-.15,3.45,2.75,5.23,4.52,1.26,1.26,1.4,1.71,1.2,1.9s-.62.08-1.9-1.2C208.93,44.79,206,41.49,206.18,41.34Z"/><path class="cls-101" d="M206.66,41.82c.15-.15,3.13,2.46,4.77,4.1,1.23,1.23,1.35,1.65,1.16,1.84s-.59.08-1.84-1.16C209.12,45,206.51,42,206.66,41.82Z"/><path class="cls-102" d="M207.14,42.3c.15-.15,2.82,2.17,4.32,3.67,1.2,1.2,1.3,1.59,1.12,1.77s-.56.09-1.77-1.12C209.31,45.12,207,42.46,207.14,42.3Z"/><path class="cls-103" d="M207.62,42.79c.15-.15,2.5,1.88,3.87,3.25,1.16,1.16,1.26,1.53,1.08,1.71s-.53.09-1.71-1.08C209.5,45.29,207.47,42.94,207.62,42.79Z"/><path class="cls-104" d="M208.1,43.27c.15-.16,2.18,1.59,3.42,2.82s1.21,1.48,1,1.64-.51.09-1.64-1S207.95,43.42,208.1,43.27Z"/><path class="cls-105" d="M208.59,43.75c.16-.16,1.87,1.3,3,2.4s1.16,1.42,1,1.57-.48.09-1.57-1S208.43,43.9,208.59,43.75Z"/><path class="cls-24" d="M109.46,1.17S128.64,18.29,137,26.68c2.65,2.65,3.4,4.32,2.83,4.89s-2,.06-4.89-2.83C126.58,20.35,109.46,1.17,109.46,1.17Z"/><path class="cls-25" d="M109.79,1.5s19,16.92,27.26,25.22c2.63,2.63,3.36,4.28,2.8,4.84s-2,.06-4.84-2.8C126.71,20.46,109.79,1.51,109.79,1.5Z"/><path class="cls-26" d="M110.13,1.84s18.74,16.72,27,24.92c2.6,2.6,3.33,4.24,2.77,4.8s-2,.06-4.8-2.77C126.85,20.58,110.13,1.84,110.13,1.84Z"/><path class="cls-27" d="M110.46,2.17S129,18.69,137.09,26.8c2.58,2.58,3.3,4.2,2.75,4.75s-1.94.06-4.75-2.75C127,20.69,110.46,2.18,110.46,2.17Z"/><path class="cls-28" d="M110.8,2.51s18.3,16.32,26.32,24.34c2.56,2.56,3.27,4.16,2.72,4.7s-1.92.06-4.7-2.72C127.11,20.8,110.79,2.51,110.8,2.51Z"/><path class="cls-29" d="M111.13,2.84s18.08,16.12,26,24c2.53,2.53,3.24,4.11,2.69,4.66s-1.9.06-4.66-2.69C127.25,20.92,111.12,2.85,111.13,2.84Z"/><path class="cls-30" d="M111.46,3.18s17.9,15.91,25.69,23.74c2.51,2.51,3.2,4.07,2.67,4.61s-1.88.06-4.61-2.67C127.36,21,111.46,3.18,111.46,3.18Z"/><path class="cls-31" d="M111.8,3.51S129.43,19.23,137.17,27c2.49,2.49,3.17,4,2.64,4.56s-1.86.06-4.56-2.64C127.51,21.15,111.79,3.52,111.8,3.51Z"/><path class="cls-32" d="M112.13,3.84S129.55,19.36,137.19,27c2.46,2.46,3.14,4,2.62,4.52s-1.84.06-4.52-2.62C127.65,21.26,112.12,3.86,112.13,3.84Z"/><path class="cls-33" d="M112.47,4.18S129.66,19.49,137.21,27c2.44,2.44,3.11,4,2.59,4.47s-1.82.06-4.47-2.59C127.78,21.37,112.45,4.19,112.47,4.18Z"/><path class="cls-34" d="M112.8,4.51s17,15.11,24.43,22.57c2.42,2.42,3.08,3.91,2.56,4.42s-1.8.06-4.42-2.56C127.92,21.49,112.79,4.53,112.8,4.51Z"/><path class="cls-35" d="M113.14,4.85s16.75,14.91,24.11,22.27c2.39,2.39,3,3.87,2.54,4.38s-1.78.06-4.38-2.54C128.05,21.6,113.12,4.86,113.14,4.85Z"/><path class="cls-36" d="M113.47,5.18s16.53,14.71,23.8,22c2.37,2.37,3,3.83,2.51,4.33s-1.76.06-4.33-2.51C128.18,21.71,113.45,5.2,113.47,5.18Z"/><path class="cls-37" d="M113.8,5.51S130.12,20,137.29,27.2c2.35,2.35,3,3.79,2.48,4.28s-1.74.06-4.28-2.48C128.36,21.83,113.79,5.53,113.8,5.51Z"/><path class="cls-38" d="M114.14,5.85s16.09,14.31,23.17,21.39c2.32,2.32,2.95,3.74,2.46,4.24s-1.72.06-4.24-2.46C128.45,21.94,114.12,5.87,114.14,5.85Z"/><path class="cls-39" d="M114.47,6.18s15.89,14.12,22.89,21.1c2.3,2.3,2.92,3.7,2.43,4.19s-1.7.06-4.19-2.43C128.58,22,114.45,6.2,114.47,6.18Z"/><path class="cls-40" d="M114.81,6.52s15.65,13.91,22.55,20.8c2.28,2.28,2.88,3.66,2.4,4.14s-1.68.06-4.14-2.4C128.72,22.17,114.78,6.54,114.81,6.52Z"/><path class="cls-41" d="M115.14,6.85s15.43,13.71,22.22,20.51c2.25,2.25,2.85,3.62,2.38,4.1s-1.66.06-4.1-2.38C128.85,22.28,115.12,6.88,115.14,6.85Z"/><path class="cls-42" d="M115.47,7.19S130.68,20.7,137.36,27.4c2.23,2.23,2.82,3.58,2.35,4s-1.64.06-4-2.35C129,22.39,115.45,7.21,115.47,7.19Z"/><path class="cls-43" d="M115.81,7.52s15,13.31,21.59,19.92c2.21,2.21,2.79,3.54,2.32,4s-1.61.06-4-2.32C129.12,22.51,115.78,7.55,115.81,7.52Z"/><path class="cls-44" d="M116.14,7.85S130.91,21,137.42,27.47c2.18,2.18,2.76,3.5,2.3,4s-1.59.06-4-2.3C129.25,22.62,116.11,7.88,116.14,7.85Z"/><path class="cls-45" d="M116.48,8.19s14.55,12.91,21,19.33c2.16,2.16,2.72,3.46,2.27,3.91s-1.57.06-3.91-2.27C129.36,22.74,116.45,8.22,116.48,8.19Z"/><path class="cls-46" d="M116.81,8.52s14.33,12.71,20.65,19c2.14,2.14,2.69,3.42,2.24,3.86s-1.55.06-3.86-2.24C129.52,22.85,116.78,8.55,116.81,8.52Z"/><path class="cls-47" d="M117.15,8.86s14.11,12.51,20.33,18.74c2.11,2.11,2.66,3.37,2.22,3.82s-1.53.06-3.82-2.22C129.65,23,117.11,8.89,117.15,8.86Z"/><path class="cls-48" d="M117.48,9.19s13.89,12.31,20,18.44c2.09,2.09,2.63,3.33,2.19,3.77s-1.51.06-3.77-2.19C129.79,23.08,117.45,9.23,117.48,9.19Z"/><path class="cls-49" d="M117.81,9.52s13.67,12.11,19.7,18.15c2.07,2.07,2.6,3.29,2.17,3.72s-1.49.06-3.72-2.17C129.92,23.19,117.78,9.56,117.81,9.52Z"/><path class="cls-50" d="M118.15,9.86s13.44,11.91,19.39,17.85c2,2,2.56,3.25,2.14,3.68s-1.47.06-3.68-2.14C130.06,23.3,118.11,9.9,118.15,9.86Z"/><path class="cls-51" d="M118.48,10.19s13.23,11.71,19.08,17.56c2,2,2.53,3.21,2.11,3.63s-1.45.07-3.63-2.11C130.19,23.42,118.44,10.23,118.48,10.19Z"/><path class="cls-52" d="M118.82,10.53s13,11.51,18.76,17.26c2,2,2.5,3.17,2.09,3.58s-1.43.07-3.58-2.09C130.36,23.53,118.78,10.57,118.82,10.53Z"/><path class="cls-53" d="M119.15,10.86s12.78,11.31,18.44,17c2,2,2.47,3.13,2.06,3.54s-1.41.07-3.54-2.06C130.46,23.64,119.11,10.9,119.15,10.86Z"/><path class="cls-54" d="M119.48,11.2S132,22.31,137.61,27.87c2,2,2.43,3.09,2,3.49s-1.39.07-3.49-2C130.59,23.76,119.44,11.24,119.48,11.2Z"/><path class="cls-55" d="M119.82,11.53s12.34,10.91,17.82,16.38c1.93,1.93,2.4,3,2,3.44s-1.37.07-3.44-2C130.73,23.87,119.77,11.57,119.82,11.53Z"/><path class="cls-56" d="M120.15,11.86s12.12,10.71,17.5,16.08c1.9,1.9,2.37,3,2,3.4s-1.35.07-3.4-2C130.86,24,120.11,11.91,120.15,11.86Z"/><path class="cls-57" d="M120.49,12.2S132.36,22.7,137.67,28c1.88,1.88,2.34,3,2,3.35s-1.33.07-3.35-2C131,24.1,120.44,12.25,120.49,12.2Z"/><path class="cls-58" d="M120.82,12.53S132.5,22.83,137.69,28c1.86,1.86,2.31,2.92,1.93,3.3s-1.26.07-3.26-1.93C131.13,24.21,120.77,12.58,120.82,12.53Z"/><path class="cls-59" d="M121.16,12.87c.05-.05,11.46,10.1,16.56,15.2,1.83,1.83,2.27,2.88,1.9,3.26s-1.29.07-3.26-1.9C131.26,24.33,121.1,12.92,121.16,12.87Z"/><path class="cls-60" d="M121.49,13.2c.05-.05,11.24,9.9,16.24,14.91,1.81,1.81,2.24,2.84,1.87,3.21s-1.27.07-3.21-1.87C131.36,24.44,121.44,13.25,121.49,13.2Z"/><path class="cls-61" d="M121.82,13.53c.05-.05,11,9.7,15.93,14.61,1.79,1.79,2.21,2.8,1.85,3.16s-1.25.07-3.16-1.85C131.53,24.55,121.77,13.59,121.82,13.53Z"/><path class="cls-62" d="M122.16,13.87c.06-.06,10.8,9.5,15.61,14.32,1.76,1.76,2.18,2.76,1.82,3.12s-1.23.07-3.12-1.82C131.66,24.67,122.1,13.92,122.16,13.87Z"/><path class="cls-63" d="M122.49,14.2c.06-.06,10.58,9.3,15.3,14,1.74,1.74,2.15,2.72,1.79,3.07s-1.21.07-3.07-1.79C131.8,24.78,122.44,14.26,122.49,14.2Z"/><path class="cls-64" d="M122.83,14.54c.06-.06,10.36,9.1,15,13.73,1.72,1.72,2.11,2.68,1.77,3s-1.19.07-3-1.77C131.93,24.89,122.77,14.6,122.83,14.54Z"/><path class="cls-65" d="M123.16,14.87c.06-.06,10.14,8.9,14.67,13.43,1.69,1.69,2.08,2.63,1.74,3s-1.17.07-3-1.74C132.06,25,123.1,14.93,123.16,14.87Z"/><path class="cls-66" d="M123.49,15.21c.06-.06,9.92,8.7,14.35,13.14,1.67,1.67,2.05,2.59,1.72,2.93s-1.14.07-2.93-1.72C132.2,25.12,123.43,15.27,123.49,15.21Z"/><path class="cls-67" d="M123.83,15.54c.06-.06,9.69,8.5,14,12.84,1.65,1.65,2,2.55,1.69,2.88s-1.12.07-2.88-1.69C132.36,25.23,123.77,15.6,123.83,15.54Z"/><path class="cls-68" d="M124.16,15.87c.06-.06,9.47,8.3,13.72,12.55,1.62,1.62,2,2.51,1.66,2.84s-1.1.07-2.84-1.66C132.46,25.35,124.1,15.94,124.16,15.87Z"/><path class="cls-69" d="M124.5,16.21c.07-.07,9.25,8.1,13.41,12.25,1.6,1.6,2,2.47,1.64,2.79s-1.08.07-2.79-1.64C132.6,25.46,124.43,16.27,124.5,16.21Z"/><path class="cls-70" d="M124.83,16.54c.07-.07,9,7.9,13.09,12,1.58,1.58,1.92,2.43,1.61,2.74s-1.06.07-2.74-1.61C132.73,25.57,124.76,16.61,124.83,16.54Z"/><path class="cls-71" d="M125.17,16.88c.07-.07,8.81,7.7,12.78,11.67,1.55,1.55,1.89,2.39,1.58,2.7s-1,.07-2.7-1.58C132.87,25.69,125.1,16.94,125.17,16.88Z"/><path class="cls-72" d="M125.5,17.21c.07-.07,8.59,7.5,12.46,11.37,1.53,1.53,1.86,2.35,1.56,2.65s-1,.07-2.65-1.56C133,25.8,125.43,17.28,125.5,17.21Z"/><path class="cls-73" d="M125.83,17.54c.07-.07,8.37,7.3,12.15,11.08,1.51,1.51,1.83,2.31,1.53,2.6s-1,.07-2.6-1.53C133.13,25.92,125.76,17.62,125.83,17.54Z"/><path class="cls-74" d="M126.17,17.88c.07-.07,8.15,7.1,11.83,10.78,1.48,1.48,1.79,2.26,1.5,2.56s-1,.07-2.56-1.5C133.27,26,126.1,18,126.17,17.88Z"/><path class="cls-75" d="M126.5,18.21c.07-.07,7.93,6.9,11.52,10.49,1.46,1.46,1.76,2.22,1.48,2.51s-1,.07-2.51-1.48C133.36,26.14,126.43,18.29,126.5,18.21Z"/><path class="cls-76" d="M126.84,18.55c.08-.08,7.71,6.7,11.2,10.19,1.44,1.44,1.73,2.18,1.45,2.46s-.94.07-2.46-1.45C133.53,26.26,126.76,18.62,126.84,18.55Z"/><path class="cls-77" d="M127.17,18.88c.08-.08,7.49,6.5,10.89,9.9,1.41,1.41,1.7,2.14,1.42,2.42s-.92.07-2.42-1.42C133.67,26.37,127.09,19,127.17,18.88Z"/><path class="cls-78" d="M127.5,19.22c.08-.08,7.27,6.3,10.57,9.6,1.39,1.39,1.67,2.1,1.4,2.37s-.9.07-2.37-1.4C133.8,26.48,127.43,19.29,127.5,19.22Z"/><path class="cls-79" d="M127.84,19.55c.08-.08,7,6.1,10.26,9.31,1.37,1.37,1.63,2.06,1.37,2.32s-.88.07-2.32-1.37C133.94,26.6,127.76,19.63,127.84,19.55Z"/><path class="cls-80" d="M128.17,19.88c.08-.08,6.83,5.9,9.94,9,1.34,1.34,1.6,2,1.34,2.28s-.86.07-2.28-1.34C134.07,26.71,128.09,20,128.17,19.88Z"/><path class="cls-81" d="M128.51,20.22c.08-.08,6.61,5.7,9.63,8.72,1.32,1.32,1.57,2,1.32,2.23s-.84.07-2.23-1.32C134.2,26.82,128.42,20.3,128.51,20.22Z"/><path class="cls-82" d="M128.84,20.55c.08-.08,6.39,5.5,9.31,8.42,1.3,1.3,1.54,1.94,1.29,2.18s-.82.07-2.18-1.29C134.36,26.94,128.76,20.64,128.84,20.55Z"/><path class="cls-83" d="M129.18,20.89c.09-.09,6.17,5.29,9,8.13,1.27,1.27,1.51,1.89,1.26,2.14s-.8.07-2.14-1.26C134.47,27,129.09,21,129.18,20.89Z"/><path class="cls-84" d="M129.51,21.22c.09-.09,5.94,5.09,8.68,7.83,1.25,1.25,1.47,1.85,1.24,2.09s-.78.07-2.09-1.24C134.6,27.17,129.42,21.31,129.51,21.22Z"/><path class="cls-85" d="M129.84,21.55c.09-.09,5.72,4.89,8.37,7.54,1.23,1.23,1.44,1.81,1.21,2s-.76.07-2-1.21C134.74,27.28,129.76,21.64,129.84,21.55Z"/><path class="cls-86" d="M130.18,21.89c.09-.09,5.5,4.69,8.06,7.25,1.2,1.2,1.41,1.77,1.19,2s-.74.07-2-1.19C134.87,27.39,130.09,22,130.18,21.89Z"/><path class="cls-87" d="M130.51,22.22a100.49,100.49,0,0,1,7.74,7c1.18,1.18,1.38,1.73,1.16,2s-.72.07-1.95-1.16C135,27.51,130.42,22.31,130.51,22.22Z"/><path class="cls-88" d="M130.85,22.56a99.13,99.13,0,0,1,7.43,6.66c1.16,1.16,1.34,1.69,1.13,1.9s-.69.07-1.9-1.13A99.18,99.18,0,0,1,130.85,22.56Z"/><path class="cls-89" d="M131.18,22.89a91.39,91.39,0,0,1,7.11,6.36c1.13,1.13,1.31,1.65,1.11,1.86s-.67.07-1.86-1.11A91.32,91.32,0,0,1,131.18,22.89Z"/><path class="cls-90" d="M131.51,23.23a83.79,83.79,0,0,1,6.8,6.07c1.11,1.11,1.28,1.61,1.08,1.81s-.65.07-1.81-1.08A83.75,83.75,0,0,1,131.51,23.23Z"/><path class="cls-91" d="M131.85,23.56a76.52,76.52,0,0,1,6.51,5.77c1.09,1.09,1.25,1.57,1.05,1.76s-.63.08-1.76-1A76.52,76.52,0,0,1,131.85,23.56Z"/><path class="cls-92" d="M132.18,23.89a69.53,69.53,0,0,1,6.18,5.48c1.06,1.06,1.22,1.52,1,1.72s-.61.08-1.72-1A69.57,69.57,0,0,1,132.18,23.89Z"/><path class="cls-93" d="M132.52,24.23a62.9,62.9,0,0,1,5.84,5.18c1,1,1.18,1.48,1,1.67s-.59.08-1.67-1A62.83,62.83,0,0,1,132.52,24.23Z"/><path class="cls-94" d="M132.85,24.56a56.48,56.48,0,0,1,5.51,4.89c1,1,1.15,1.44,1,1.62s-.57.08-1.62-1A56.4,56.4,0,0,1,132.85,24.56Z"/><path class="cls-95" d="M133.19,24.9a50.3,50.3,0,0,1,5.17,4.59c1,1,1.12,1.4.95,1.58s-.55.08-1.58-1A50.33,50.33,0,0,1,133.19,24.9Z"/><path class="cls-96" d="M133.52,25.23a44.49,44.49,0,0,1,4.91,4.3c1,1,1.09,1.36.92,1.53s-.53.08-1.53-.92A44.52,44.52,0,0,1,133.52,25.23Z"/><path class="cls-97" d="M133.85,25.56a39,39,0,0,1,4.59,4c.95,1,1.06,1.32.89,1.48s-.51.08-1.48-.89A39,39,0,0,1,133.85,25.56Z"/><path class="cls-98" d="M134.19,25.9a33.88,33.88,0,0,1,4.28,3.71c.92.92,1,1.28.87,1.44s-.49.08-1.44-.87A33.86,33.86,0,0,1,134.19,25.9Z"/><path class="cls-99" d="M134.52,26.23a29,29,0,0,1,4,3.42c.9.9,1,1.24.84,1.39s-.47.08-1.39-.84A29,29,0,0,1,134.52,26.23Z"/><path class="cls-100" d="M134.86,26.57a24.56,24.56,0,0,1,3.65,3.12c.88.88,1,1.2.81,1.34s-.45.08-1.34-.81A24.53,24.53,0,0,1,134.86,26.57Z"/><path class="cls-101" d="M135.19,26.9a20.4,20.4,0,0,1,3.33,2.83c.85.85.93,1.16.79,1.3s-.43.08-1.3-.79A20.39,20.39,0,0,1,135.19,26.9Z"/><path class="cls-102" d="M135.52,27.24a16.61,16.61,0,0,1,3,2.53c.83.83.9,1.11.76,1.25s-.41.08-1.25-.76A16.6,16.6,0,0,1,135.52,27.24Z"/><path class="cls-103" d="M135.86,27.57a13.18,13.18,0,0,1,2.7,2.24c.81.81.86,1.07.74,1.2s-.39.08-1.2-.74A13.18,13.18,0,0,1,135.86,27.57Z"/><path class="cls-104" d="M136.19,27.9a10.13,10.13,0,0,1,2.39,1.94c.78.78.83,1,.71,1.16s-.37.08-1.16-.71A10.13,10.13,0,0,1,136.19,27.9Z"/><path class="cls-105" d="M136.53,28.24c.12-.12,1.31.89,2.07,1.65s.8,1,.68,1.11-.35.08-1.11-.68S136.36,28.36,136.53,28.24Z"/><path class="cls-24" d="M149.9,13.1s19.18,17.12,27.58,25.51c2.65,2.65,3.4,4.32,2.83,4.89s-2,.06-4.89-2.83C167,32.28,149.9,13.1,149.9,13.1Z"/><path class="cls-25" d="M150.24,13.43s19,16.92,27.26,25.22c2.63,2.63,3.36,4.28,2.8,4.84s-2,.06-4.84-2.8C167.16,32.39,150.24,13.43,150.24,13.43Z"/><path class="cls-26" d="M150.57,13.76s18.79,16.72,26.95,24.93c2.6,2.6,3.33,4.24,2.77,4.8s-2,.06-4.8-2.77C167.29,32.5,150.57,13.77,150.57,13.76Z"/><path class="cls-27" d="M150.91,14.1s18.52,16.52,26.63,24.63c2.58,2.58,3.3,4.2,2.75,4.75s-1.94.06-4.75-2.75C167.42,32.62,150.9,14.1,150.91,14.1Z"/><path class="cls-28" d="M151.24,14.43s18.3,16.32,26.32,24.34c2.56,2.56,3.27,4.16,2.72,4.7s-1.92.06-4.7-2.72C167.56,32.73,151.23,14.44,151.24,14.43Z"/><path class="cls-29" d="M151.57,14.77s18.08,16.12,26,24c2.53,2.53,3.24,4.11,2.69,4.66s-1.9.06-4.66-2.69C167.69,32.84,151.57,14.77,151.57,14.77Z"/><path class="cls-30" d="M151.91,15.1S169.77,31,177.6,38.85c2.51,2.51,3.2,4.07,2.67,4.61s-1.88.06-4.61-2.67C167.82,33,151.9,15.11,151.91,15.1Z"/><path class="cls-31" d="M152.24,15.44s17.64,15.72,25.37,23.45c2.49,2.49,3.17,4,2.64,4.56s-1.86.06-4.56-2.64C168,33.07,152.23,15.45,152.24,15.44Z"/><path class="cls-32" d="M152.58,15.77S170,31.29,177.64,38.93c2.46,2.46,3.14,4,2.62,4.52s-1.84.06-4.52-2.62C168.09,33.18,152.57,15.78,152.58,15.77Z"/><path class="cls-33" d="M152.91,16.1s17.2,15.32,24.74,22.9c2.44,2.44,3.11,4,2.59,4.47s-1.82.06-4.47-2.59C168.23,33.3,152.9,16.12,152.91,16.1Z"/><path class="cls-34" d="M153.25,16.44s17,15.11,24.43,22.57c2.42,2.42,3.08,3.91,2.56,4.42s-1.8.06-4.42-2.56C168.36,33.41,153.23,16.45,153.25,16.44Z"/><path class="cls-35" d="M153.58,16.77S170.36,31.69,177.69,39c2.39,2.39,3,3.87,2.54,4.38s-1.78.06-4.38-2.54C168.49,33.53,153.56,16.79,153.58,16.77Z"/><path class="cls-36" d="M153.91,17.11s16.53,14.71,23.8,22c2.37,2.37,3,3.83,2.51,4.33s-1.76.06-4.33-2.51C168.63,33.64,153.9,17.12,153.91,17.11Z"/><path class="cls-37" d="M154.25,17.44S170.56,32,177.73,39.12c2.35,2.35,3,3.79,2.48,4.28s-1.74.06-4.28-2.48C168.76,33.75,154.23,17.46,154.25,17.44Z"/><path class="cls-38" d="M154.58,17.77s16.09,14.31,23.17,21.39c2.32,2.32,2.95,3.74,2.46,4.24s-1.72.06-4.24-2.46C168.9,33.87,154.56,17.79,154.58,17.77Z"/><path class="cls-39" d="M154.92,18.11s15.87,14.11,22.85,21.09c2.3,2.3,2.92,3.7,2.43,4.19s-1.7.06-4.19-2.43C169,34,154.89,18.13,154.92,18.11Z"/><path class="cls-40" d="M155.25,18.44s15.65,13.91,22.54,20.8c2.28,2.28,2.88,3.66,2.4,4.14s-1.68.06-4.14-2.4C169.16,34.09,155.23,18.47,155.25,18.44Z"/><path class="cls-41" d="M155.58,18.78S171,32.49,177.8,39.28c2.25,2.25,2.85,3.62,2.38,4.1s-1.66.06-4.1-2.38C169.3,34.21,155.56,18.8,155.58,18.78Z"/><path class="cls-42" d="M155.92,19.11s15.21,13.51,21.91,20.21c2.23,2.23,2.82,3.58,2.35,4s-1.64.06-4-2.35C169.43,34.32,155.89,19.14,155.92,19.11Z"/><path class="cls-43" d="M156.25,19.45s15,13.31,21.59,19.92c2.21,2.21,2.79,3.54,2.32,4s-1.61.06-4-2.32C169.56,34.43,156.23,19.47,156.25,19.45Z"/><path class="cls-44" d="M156.59,19.78s14.77,13.11,21.28,19.62c2.18,2.18,2.76,3.5,2.3,4s-1.59.06-4-2.3C169.7,34.55,156.56,19.81,156.59,19.78Z"/><path class="cls-45" d="M156.92,20.11s14.55,12.91,21,19.33c2.16,2.16,2.72,3.46,2.27,3.91s-1.57.06-3.91-2.27C169.83,34.66,156.89,20.14,156.92,20.11Z"/><path class="cls-46" d="M157.26,20.45s14.33,12.71,20.65,19c2.14,2.14,2.69,3.42,2.24,3.86s-1.55.06-3.86-2.24C170,34.77,157.22,20.48,157.26,20.45Z"/><path class="cls-47" d="M157.59,20.78s14.11,12.51,20.33,18.74c2.11,2.11,2.66,3.37,2.22,3.82s-1.53.06-3.82-2.22C170.1,34.89,157.56,20.82,157.59,20.78Z"/><path class="cls-48" d="M157.92,21.12s13.89,12.31,20,18.44c2.09,2.09,2.63,3.33,2.19,3.77s-1.51.06-3.77-2.19C170.23,35,157.89,21.15,157.92,21.12Z"/><path class="cls-49" d="M158.26,21.45S171.93,33.56,178,39.6c2.07,2.07,2.6,3.29,2.17,3.72s-1.49.06-3.72-2.17C170.36,35.12,158.22,21.49,158.26,21.45Z"/><path class="cls-50" d="M158.59,21.78S172,33.69,178,39.63c2,2,2.56,3.25,2.14,3.68s-1.47.06-3.68-2.14C170.5,35.23,158.55,21.82,158.59,21.78Z"/><path class="cls-51" d="M158.93,22.12S172.15,33.83,178,39.68c2,2,2.53,3.21,2.11,3.63s-1.45.07-3.63-2.11C170.63,35.34,158.89,22.16,158.93,22.12Z"/><path class="cls-52" d="M159.26,22.45S172.26,34,178,39.71c2,2,2.5,3.17,2.09,3.58s-1.43.07-3.58-2.09C170.77,35.46,159.22,22.49,159.26,22.45Z"/><path class="cls-53" d="M159.59,22.79s12.78,11.31,18.44,17c2,2,2.47,3.13,2.06,3.54s-1.41.07-3.54-2.06C170.9,35.57,159.55,22.83,159.59,22.79Z"/><path class="cls-54" d="M159.93,23.12s12.56,11.11,18.13,16.68c2,2,2.43,3.09,2,3.49s-1.39.07-3.49-2C171,35.68,159.89,23.16,159.93,23.12Z"/><path class="cls-55" d="M160.26,23.46s12.34,10.91,17.82,16.38c1.93,1.93,2.4,3,2,3.44s-1.37.07-3.44-2C171.17,35.8,160.22,23.5,160.26,23.46Z"/><path class="cls-56" d="M160.6,23.79s12.12,10.71,17.5,16.08c1.9,1.9,2.37,3,2,3.4s-1.35.07-3.4-2C171.3,35.91,160.55,23.84,160.6,23.79Z"/><path class="cls-57" d="M160.93,24.12s11.9,10.51,17.19,15.79c1.88,1.88,2.34,3,2,3.35s-1.33.07-3.35-2C171.44,36,160.88,24.17,160.93,24.12Z"/><path class="cls-58" d="M161.27,24.46s11.68,10.3,16.87,15.5c1.86,1.86,2.31,2.92,1.93,3.3s-1.31.07-3.3-1.93C171.57,36.14,161.22,24.51,161.27,24.46Z"/><path class="cls-59" d="M161.6,24.79c.05,0,11.46,10.1,16.56,15.2,1.83,1.83,2.27,2.88,1.9,3.26s-1.29.07-3.26-1.9C171.7,36.25,161.55,24.84,161.6,24.79Z"/><path class="cls-60" d="M161.93,25.13c.05,0,11.24,9.9,16.24,14.91,1.81,1.81,2.24,2.84,1.87,3.21s-1.27.07-3.21-1.87C171.84,36.36,161.88,25.18,161.93,25.13Z"/><path class="cls-61" d="M162.27,25.46c.05,0,11,9.7,15.93,14.61,1.79,1.79,2.21,2.8,1.85,3.16s-1.25.07-3.16-1.85C172,36.48,162.21,25.51,162.27,25.46Z"/><path class="cls-62" d="M162.6,25.79c.06-.06,10.8,9.5,15.61,14.32,1.76,1.76,2.18,2.76,1.82,3.12s-1.23.07-3.12-1.82C172.11,36.59,162.55,25.85,162.6,25.79Z"/><path class="cls-63" d="M162.94,26.13c.06-.06,10.58,9.3,15.3,14,1.74,1.74,2.15,2.72,1.79,3.07s-1.21.07-3.07-1.79C172.24,36.71,162.88,26.19,162.94,26.13Z"/><path class="cls-64" d="M163.27,26.46c.06-.06,10.36,9.1,15,13.73,1.72,1.72,2.11,2.68,1.77,3s-1.19.07-3-1.77C172.36,36.82,163.21,26.52,163.27,26.46Z"/><path class="cls-65" d="M163.6,26.8c.06-.06,10.14,8.9,14.67,13.43,1.69,1.69,2.08,2.63,1.74,3s-1.17.07-3-1.74C172.51,36.93,163.55,26.86,163.6,26.8Z"/><path class="cls-66" d="M163.94,27.13c.06-.06,9.92,8.7,14.35,13.14,1.67,1.67,2.05,2.59,1.72,2.93s-1.14.07-2.93-1.72C172.64,37,163.88,27.19,163.94,27.13Z"/><path class="cls-67" d="M164.27,27.47c.06-.06,9.69,8.5,14,12.84,1.65,1.65,2,2.55,1.69,2.88s-1.12.07-2.88-1.69C172.77,37.16,164.21,27.53,164.27,27.47Z"/><path class="cls-68" d="M164.61,27.8c.06-.06,9.47,8.3,13.72,12.55,1.62,1.62,2,2.51,1.66,2.84s-1.1.07-2.84-1.66C172.91,37.27,164.54,27.86,164.61,27.8Z"/><path class="cls-69" d="M164.94,28.13c.07-.07,9.25,8.1,13.41,12.25,1.6,1.6,2,2.47,1.64,2.79s-1.08.07-2.79-1.64C173,37.39,164.88,28.2,164.94,28.13Z"/><path class="cls-70" d="M165.28,28.47c.07-.07,9,7.9,13.09,12,1.58,1.58,1.92,2.43,1.61,2.74s-1.06.07-2.74-1.61C173.18,37.5,165.21,28.53,165.28,28.47Z"/><path class="cls-71" d="M165.61,28.8c.07-.07,8.81,7.7,12.78,11.67,1.55,1.55,1.89,2.39,1.58,2.7s-1,.07-2.7-1.58C173.31,37.61,165.54,28.87,165.61,28.8Z"/><path class="cls-72" d="M165.94,29.14c.07-.07,8.59,7.5,12.46,11.37,1.53,1.53,1.86,2.35,1.56,2.65s-1,.07-2.65-1.56C173.44,37.73,165.87,29.21,165.94,29.14Z"/><path class="cls-73" d="M166.28,29.47c.07-.07,8.37,7.3,12.15,11.08,1.51,1.51,1.83,2.31,1.53,2.6s-1,.07-2.6-1.53C173.58,37.84,166.21,29.54,166.28,29.47Z"/><path class="cls-74" d="M166.61,29.8c.07-.07,8.15,7.1,11.83,10.78,1.48,1.48,1.79,2.26,1.5,2.56s-1,.07-2.56-1.5C173.71,38,166.54,29.88,166.61,29.8Z"/><path class="cls-75" d="M166.95,30.14c.07-.07,7.93,6.9,11.52,10.49,1.46,1.46,1.76,2.22,1.48,2.51s-1,.07-2.51-1.48C173.84,38.07,166.87,30.21,166.95,30.14Z"/><path class="cls-76" d="M167.28,30.47c.08-.08,7.71,6.7,11.2,10.19,1.44,1.44,1.73,2.18,1.45,2.46s-.94.07-2.46-1.45C174,38.18,167.21,30.55,167.28,30.47Z"/><path class="cls-77" d="M167.61,30.81c.08-.08,7.49,6.5,10.89,9.9,1.41,1.41,1.7,2.14,1.42,2.42s-.92.07-2.42-1.42C174.11,38.3,167.54,30.88,167.61,30.81Z"/><path class="cls-78" d="M167.95,31.14c.08-.08,7.27,6.3,10.57,9.6,1.39,1.39,1.67,2.1,1.4,2.37s-.9.07-2.37-1.4C174.25,38.41,167.87,31.22,167.95,31.14Z"/><path class="cls-79" d="M168.28,31.48c.08-.08,7,6.1,10.26,9.31,1.37,1.37,1.63,2.06,1.37,2.32s-.88.07-2.32-1.37C174.36,38.52,168.2,31.56,168.28,31.48Z"/><path class="cls-80" d="M168.62,31.81c.08-.08,6.83,5.9,9.94,9,1.34,1.34,1.6,2,1.34,2.28s-.86.07-2.28-1.34C174.51,38.64,168.54,31.89,168.62,31.81Z"/><path class="cls-81" d="M168.95,32.14c.08-.08,6.61,5.7,9.63,8.72,1.32,1.32,1.57,2,1.32,2.23s-.84.07-2.23-1.32C174.65,38.75,168.87,32.23,168.95,32.14Z"/><path class="cls-82" d="M169.29,32.48c.08-.08,6.39,5.5,9.31,8.42,1.3,1.3,1.54,1.94,1.29,2.18s-.82.07-2.18-1.29C174.78,38.86,169.2,32.56,169.29,32.48Z"/><path class="cls-83" d="M169.62,32.81c.09-.09,6.17,5.3,9,8.13,1.27,1.27,1.51,1.89,1.26,2.14s-.8.07-2.14-1.26C174.91,39,169.53,32.9,169.62,32.81Z"/><path class="cls-84" d="M169.95,33.15c.09-.09,5.94,5.09,8.68,7.83,1.25,1.25,1.47,1.85,1.24,2.09s-.78.07-2.09-1.24C175.05,39.09,169.87,33.23,169.95,33.15Z"/><path class="cls-85" d="M170.29,33.48c.09-.09,5.72,4.89,8.37,7.54,1.23,1.23,1.44,1.81,1.21,2s-.76.07-2-1.21A110.23,110.23,0,0,1,170.29,33.48Z"/><path class="cls-86" d="M170.62,33.81c.09-.09,5.5,4.69,8.06,7.25,1.2,1.2,1.41,1.77,1.19,2s-.74.07-2-1.19C175.36,39.32,170.53,33.9,170.62,33.81Z"/><path class="cls-87" d="M171,34.15a100.49,100.49,0,0,1,7.74,7c1.18,1.18,1.38,1.73,1.16,2s-.72.07-1.95-1.16C175.45,39.43,170.86,34.24,171,34.15Z"/><path class="cls-88" d="M171.29,34.48a99.13,99.13,0,0,1,7.43,6.66c1.16,1.16,1.35,1.69,1.13,1.9s-.69.07-1.9-1.13A99.16,99.16,0,0,1,171.29,34.48Z"/><path class="cls-89" d="M171.62,34.82a91.31,91.31,0,0,1,7.11,6.36c1.13,1.13,1.31,1.65,1.11,1.86s-.67.07-1.86-1.11A91.37,91.37,0,0,1,171.62,34.82Z"/><path class="cls-90" d="M172,35.15a83.83,83.83,0,0,1,6.8,6.07c1.11,1.11,1.28,1.61,1.08,1.81s-.65.07-1.81-1.08A83.79,83.79,0,0,1,172,35.15Z"/><path class="cls-91" d="M172.29,35.49a76.57,76.57,0,0,1,6.48,5.77c1.09,1.09,1.25,1.57,1.05,1.76s-.63.08-1.76-1A76.52,76.52,0,0,1,172.29,35.49Z"/><path class="cls-92" d="M172.63,35.82a69.54,69.54,0,0,1,6.17,5.48c1.06,1.06,1.22,1.52,1,1.72s-.61.08-1.72-1A69.53,69.53,0,0,1,172.63,35.82Z"/><path class="cls-93" d="M173,36.15a62.83,62.83,0,0,1,5.85,5.18c1,1,1.18,1.48,1,1.67s-.59.08-1.67-1A62.84,62.84,0,0,1,173,36.15Z"/><path class="cls-94" d="M173.3,36.49a56.48,56.48,0,0,1,5.54,4.89c1,1,1.15,1.44,1,1.62s-.57.08-1.62-1A56.4,56.4,0,0,1,173.3,36.49Z"/><path class="cls-95" d="M173.63,36.82a50.36,50.36,0,0,1,5.22,4.59c1,1,1.12,1.4.95,1.58s-.55.08-1.58-1A50.32,50.32,0,0,1,173.63,36.82Z"/><path class="cls-96" d="M174,37.16a44.52,44.52,0,0,1,4.91,4.3c1,1,1.09,1.36.92,1.53s-.53.08-1.53-.92A44.54,44.54,0,0,1,174,37.16Z"/><path class="cls-97" d="M174.3,37.49a39,39,0,0,1,4.59,4c.95,1,1.06,1.32.89,1.48s-.51.08-1.48-.89A39,39,0,0,1,174.3,37.49Z"/><path class="cls-98" d="M174.63,37.82a33.9,33.9,0,0,1,4.28,3.71c.92.92,1,1.28.87,1.44s-.49.08-1.44-.87A33.85,33.85,0,0,1,174.63,37.82Z"/><path class="cls-99" d="M175,38.16a29,29,0,0,1,4,3.42c.9.9,1,1.24.84,1.39s-.47.08-1.39-.84A29,29,0,0,1,175,38.16Z"/><path class="cls-100" d="M175.3,38.49a24.54,24.54,0,0,1,3.65,3.12c.88.88,1,1.2.81,1.34s-.45.08-1.34-.81A24.55,24.55,0,0,1,175.3,38.49Z"/><path class="cls-101" d="M175.63,38.83A20.4,20.4,0,0,1,179,41.66c.85.85.93,1.16.79,1.3s-.43.08-1.3-.79A20.38,20.38,0,0,1,175.63,38.83Z"/><path class="cls-102" d="M176,39.16a16.6,16.6,0,0,1,3,2.53c.83.83.9,1.11.76,1.25s-.41.08-1.25-.76A16.59,16.59,0,0,1,176,39.16Z"/><path class="cls-103" d="M176.3,39.5a13.18,13.18,0,0,1,2.7,2.24c.81.81.86,1.07.74,1.2s-.39.08-1.2-.74A13.18,13.18,0,0,1,176.3,39.5Z"/><path class="cls-104" d="M176.64,39.83A10.13,10.13,0,0,1,179,41.77c.78.78.83,1,.71,1.16s-.37.08-1.16-.71A10.13,10.13,0,0,1,176.64,39.83Z"/><path class="cls-105" d="M177,40.16c.12-.12,1.31.89,2.07,1.65s.8,1,.68,1.11-.35.08-1.11-.68S176.85,40.28,177,40.16Z"/><path class="cls-24" d="M98.48,20.26a98.66,98.66,0,0,1,9.43,7.36,1.48,1.48,0,0,1,.19,2.25c-.57.57-1.34.72-2.25-.19A98.66,98.66,0,0,1,98.48,20.26Z"/><path class="cls-25" d="M98.58,20.37a96.92,96.92,0,0,1,9.32,7.28,1.46,1.46,0,0,1,.19,2.23c-.56.56-1.32.72-2.23-.19A96.9,96.9,0,0,1,98.58,20.37Z"/><path class="cls-26" d="M98.69,20.47a95.16,95.16,0,0,1,9.21,7.19,1.45,1.45,0,0,1,.19,2.21c-.56.56-1.31.71-2.21-.19A95.14,95.14,0,0,1,98.69,20.47Z"/><path class="cls-27" d="M98.8,20.58a93.42,93.42,0,0,1,9.11,7.11,1.43,1.43,0,0,1,.19,2.19c-.55.55-1.3.7-2.19-.19A93.4,93.4,0,0,1,98.8,20.58Z"/><path class="cls-28" d="M98.9,20.68a91.68,91.68,0,0,1,9,7,1.42,1.42,0,0,1,.18,2.16c-.55.55-1.28.7-2.16-.18A91.68,91.68,0,0,1,98.9,20.68Z"/><path class="cls-29" d="M99,20.79a90,90,0,0,1,8.89,6.93,1.41,1.41,0,0,1,.33,2l-.15.17c-.54.54-1.27.69-2.14-.18A90,90,0,0,1,99,20.79Z"/><path class="cls-30" d="M99.11,20.89a88.23,88.23,0,0,1,8.79,6.85,1.39,1.39,0,0,1,.18,2.12c-.54.54-1.26.68-2.12-.18A88.26,88.26,0,0,1,99.11,20.89Z"/><path class="cls-31" d="M99.22,21a86.53,86.53,0,0,1,8.68,6.76,1.38,1.38,0,0,1,.33,1.92l-.15.18c-.53.53-1.24.68-2.1-.18A86.52,86.52,0,0,1,99.22,21Z"/><path class="cls-32" d="M99.36,21.11a84.83,84.83,0,0,1,8.57,6.67,1.36,1.36,0,0,1,.18,2.08c-.52.52-1.23.67-2.08-.18A84.89,84.89,0,0,1,99.36,21.11Z"/><path class="cls-33" d="M99.43,21.21a83.14,83.14,0,0,1,8.47,6.59,1.35,1.35,0,0,1,.18,2.06c-.52.52-1.22.66-2.06-.18A83.2,83.2,0,0,1,99.43,21.21Z"/><path class="cls-34" d="M99.54,21.32a81.54,81.54,0,0,1,8.36,6.5,1.33,1.33,0,0,1,.29,1.86l-.12.14c-.51.51-1.2.65-2-.17A81.5,81.5,0,0,1,99.54,21.32Z"/><path class="cls-35" d="M99.64,21.42a79.87,79.87,0,0,1,8.26,6.42,1.32,1.32,0,0,1,.3,1.84l-.13.16c-.51.51-1.19.65-2-.17A79.81,79.81,0,0,1,99.64,21.42Z"/><path class="cls-36" d="M99.75,21.53a78.2,78.2,0,0,1,8.15,6.33,1.3,1.3,0,0,1,.17,2c-.5.5-1.18.64-2-.17A78.16,78.16,0,0,1,99.75,21.53Z"/><path class="cls-37" d="M99.85,21.63a76.54,76.54,0,0,1,8,6.24,1.29,1.29,0,0,1,.17,2c-.5.5-1.16.63-2-.17A76.5,76.5,0,0,1,99.85,21.63Z"/><path class="cls-38" d="M100,21.74a74.91,74.91,0,0,1,7.94,6.16,1.27,1.27,0,0,1,.17,2c-.49.49-1.15.63-1.95-.17A74.87,74.87,0,0,1,100,21.74Z"/><path class="cls-39" d="M100.06,21.85a73.3,73.3,0,0,1,7.83,6.07,1.26,1.26,0,0,1,.17,1.93c-.49.49-1.14.62-1.93-.17A73.27,73.27,0,0,1,100.06,21.85Z"/><path class="cls-40" d="M100.17,22a71.65,71.65,0,0,1,7.72,6,1.24,1.24,0,0,1,.17,1.9c-.48.48-1.12.61-1.9-.17A71.63,71.63,0,0,1,100.17,22Z"/><path class="cls-41" d="M100.28,22.06A70.07,70.07,0,0,1,107.9,28a1.23,1.23,0,0,1,.16,1.88c-.47.47-1.11.61-1.88-.16A70.05,70.05,0,0,1,100.28,22.06Z"/><path class="cls-42" d="M100.36,22.16A68.44,68.44,0,0,1,107.89,28a1.22,1.22,0,0,1,.29,1.7l-.13.16c-.47.47-1.1.6-1.86-.16A68.46,68.46,0,0,1,100.36,22.16Z"/><path class="cls-43" d="M100.49,22.27a66.87,66.87,0,0,1,7.4,5.73,1.2,1.2,0,0,1,.16,1.84c-.46.46-1.08.59-1.84-.16A66.87,66.87,0,0,1,100.49,22.27Z"/><path class="cls-44" d="M100.59,22.37a65.3,65.3,0,0,1,7.3,5.64c.69.69.62,1.36.16,1.82s-1.07.59-1.82-.16A65.28,65.28,0,0,1,100.59,22.37Z"/><path class="cls-45" d="M100.7,22.48A63.72,63.72,0,0,1,107.89,28a1.18,1.18,0,0,1,.16,1.8c-.45.46-1.06.58-1.8-.16A63.71,63.71,0,0,1,100.7,22.48Z"/><path class="cls-46" d="M100.8,22.59a62.18,62.18,0,0,1,7.08,5.47c.68.68.6,1.33.16,1.77s-1,.57-1.77-.16A62.16,62.16,0,0,1,100.8,22.59Z"/><path class="cls-47" d="M100.91,22.69a60.66,60.66,0,0,1,7,5.38c.67.67.6,1.31.16,1.75s-1,.57-1.75-.16A60.62,60.62,0,0,1,100.91,22.69Z"/><path class="cls-48" d="M101,22.8a59.09,59.09,0,0,1,6.87,5.29c.66.66.59,1.3.15,1.73s-1,.56-1.73-.15A59.1,59.1,0,0,1,101,22.8Z"/><path class="cls-49" d="M101.12,22.9a57.57,57.57,0,0,1,6.76,5.21c.65.65.58,1.28.15,1.71s-1,.55-1.71-.15A57.55,57.55,0,0,1,101.12,22.9Z"/><path class="cls-50" d="M101.23,23a56.11,56.11,0,0,1,6.66,5.12c.65.65.58,1.26.15,1.69s-1,.55-1.69-.15A56.07,56.07,0,0,1,101.23,23Z"/><path class="cls-51" d="M101.36,23.11a54.59,54.59,0,0,1,6.55,5c.64.64.57,1.25.15,1.67s-1,.54-1.67-.15A54.57,54.57,0,0,1,101.36,23.11Z"/><path class="cls-52" d="M101.44,23.22a53.12,53.12,0,0,1,6.44,4.95c.63.63.56,1.23.15,1.64s-1,.53-1.64-.15A53.09,53.09,0,0,1,101.44,23.22Z"/><path class="cls-53" d="M101.54,23.33a51.65,51.65,0,0,1,6.34,4.86c.62.62.55,1.22.15,1.62a1,1,0,0,1-1.62-.15A51.63,51.63,0,0,1,101.54,23.33Z"/><path class="cls-54" d="M101.65,23.43a50.16,50.16,0,0,1,6.23,4.78c.62.62.55,1.2.15,1.6s-.94.52-1.6-.15A50.17,50.17,0,0,1,101.65,23.43Z"/><path class="cls-55" d="M101.76,23.54a48.72,48.72,0,0,1,6.13,4.69c.61.61.54,1.18.14,1.58s-.92.51-1.58-.14A48.73,48.73,0,0,1,101.76,23.54Z"/><path class="cls-56" d="M101.86,23.64a47.28,47.28,0,0,1,6,4.6c.6.6.53,1.17.14,1.56s-.91.5-1.56-.14A47.3,47.3,0,0,1,101.86,23.64Z"/><path class="cls-57" d="M102,23.75a45.87,45.87,0,0,1,5.91,4.52c.59.59.53,1.15.14,1.54s-.9.5-1.54-.14A45.89,45.89,0,0,1,102,23.75Z"/><path class="cls-58" d="M102.07,23.85a44.51,44.51,0,0,1,5.81,4.43c.59.59.52,1.13.14,1.51s-.88.49-1.51-.14A44.47,44.47,0,0,1,102.07,23.85Z"/><path class="cls-59" d="M102.18,24a43.1,43.1,0,0,1,5.7,4.34c.58.58.51,1.12.14,1.49s-.87.48-1.49-.14A43.08,43.08,0,0,1,102.18,24Z"/><path class="cls-60" d="M102.28,24.07a41.74,41.74,0,0,1,5.59,4.26c.57.57.51,1.1.14,1.47s-.86.48-1.47-.14A41.72,41.72,0,0,1,102.28,24.07Z"/><path class="cls-61" d="M102.36,24.17a40.36,40.36,0,0,1,5.49,4.17c.57.57.5,1.09.14,1.45s-.84.47-1.45-.14A40.33,40.33,0,0,1,102.36,24.17Z"/><path class="cls-62" d="M102.5,24.28a39,39,0,0,1,5.38,4.09c.56.56.49,1.07.13,1.43s-.83.46-1.43-.13A39,39,0,0,1,102.5,24.28Z"/><path class="cls-63" d="M102.6,24.38a37.69,37.69,0,0,1,5.27,4c.55.55.48,1,.13,1.41s-.82.46-1.41-.13A37.68,37.68,0,0,1,102.6,24.38Z"/><path class="cls-64" d="M102.71,24.49a36.38,36.38,0,0,1,5.17,3.91c.54.54.48,1,.13,1.38s-.8.45-1.38-.13A36.37,36.37,0,0,1,102.71,24.49Z"/><path class="cls-65" d="M102.81,24.59a35.07,35.07,0,0,1,5.06,3.83c.54.54.47,1,.13,1.36s-.79.44-1.36-.13A35.07,35.07,0,0,1,102.81,24.59Z"/><path class="cls-66" d="M102.92,24.7a33.79,33.79,0,0,1,5,3.74c.53.53.46,1,.13,1.34s-.78.44-1.34-.13A33.79,33.79,0,0,1,102.92,24.7Z"/><path class="cls-67" d="M103,24.81a32.54,32.54,0,0,1,4.85,3.65c.52.52.46,1,.13,1.32s-.76.43-1.32-.13A32.52,32.52,0,0,1,103,24.81Z"/><path class="cls-68" d="M103.13,24.91a31.27,31.27,0,0,1,4.74,3.57c.51.51.45,1,.12,1.3s-.75.42-1.3-.12A31.28,31.28,0,0,1,103.13,24.91Z"/><path class="cls-69" d="M103.23,25a30.05,30.05,0,0,1,4.63,3.48c.51.51.44,1,.12,1.28s-.74.42-1.28-.12A30.06,30.06,0,0,1,103.23,25Z"/><path class="cls-70" d="M103.36,25.12a28.85,28.85,0,0,1,4.53,3.4c.5.5.43.94.12,1.25s-.72.41-1.25-.12A28.82,28.82,0,0,1,103.36,25.12Z"/><path class="cls-71" d="M103.45,25.23a27.66,27.66,0,0,1,4.42,3.31c.49.49.43.93.12,1.23s-.71.4-1.23-.12A27.63,27.63,0,0,1,103.45,25.23Z"/><path class="cls-72" d="M103.55,25.33a26.46,26.46,0,0,1,4.32,3.22c.48.48.42.91.12,1.21s-.7.4-1.21-.12A26.45,26.45,0,0,1,103.55,25.33Z"/><path class="cls-73" d="M103.66,25.44a25.31,25.31,0,0,1,4.21,3.14c.48.48.41.89.12,1.19s-.68.39-1.19-.12A25.29,25.29,0,0,1,103.66,25.44Z"/><path class="cls-74" d="M103.76,25.55a24.18,24.18,0,0,1,4.1,3c.47.47.41.88.12,1.17s-.67.38-1.17-.12A24.16,24.16,0,0,1,103.76,25.55Z"/><path class="cls-75" d="M103.87,25.65a23,23,0,0,1,4,3c.46.46.4.86.11,1.15s-.66.38-1.15-.11A23,23,0,0,1,103.87,25.65Z"/><path class="cls-76" d="M104,25.76a22,22,0,0,1,3.89,2.88c.45.45.39.84.11,1.12s-.64.37-1.12-.11A21.94,21.94,0,0,1,104,25.76Z"/><path class="cls-77" d="M104.08,25.86a20.86,20.86,0,0,1,3.78,2.79c.45.45.39.83.11,1.1s-.63.36-1.1-.11A20.86,20.86,0,0,1,104.08,25.86Z"/><path class="cls-78" d="M104.19,26a19.8,19.8,0,0,1,3.68,2.71c.44.44.38.81.11,1.08s-.62.35-1.08-.11A19.8,19.8,0,0,1,104.19,26Z"/><path class="cls-79" d="M104.29,26.07a18.76,18.76,0,0,1,3.57,2.62c.43.43.37.8.11,1.06s-.6.35-1.06-.11A18.76,18.76,0,0,1,104.29,26.07Z"/><path class="cls-80" d="M104.36,26.18a17.75,17.75,0,0,1,3.46,2.53c.43.43.36.78.11,1s-.59.34-1-.11A17.74,17.74,0,0,1,104.36,26.18Z"/><path class="cls-81" d="M104.5,26.29a16.75,16.75,0,0,1,3.36,2.45c.42.42.36.76.11,1s-.58.33-1-.11A16.74,16.74,0,0,1,104.5,26.29Z"/><path class="cls-82" d="M104.61,26.39a15.78,15.78,0,0,1,3.25,2.36c.41.41.35.75.1,1s-.56.33-1-.1A15.77,15.77,0,0,1,104.61,26.39Z"/><path class="cls-83" d="M104.71,26.5a14.83,14.83,0,0,1,3.14,2.27c.4.4.34.73.1,1s-.55.32-1-.1A14.82,14.82,0,0,1,104.71,26.5Z"/><path class="cls-84" d="M104.82,26.6a13.9,13.9,0,0,1,3,2.19c.4.4.34.72.1,1s-.54.31-1-.1A13.9,13.9,0,0,1,104.82,26.6Z"/><path class="cls-85" d="M104.93,26.71a13,13,0,0,1,2.93,2.1c.39.39.33.7.1.93s-.52.31-.93-.1A13,13,0,0,1,104.93,26.71Z"/><path class="cls-86" d="M105,26.81a12.12,12.12,0,0,1,2.82,2c.38.38.32.68.1.91s-.51.3-.91-.1A12.12,12.12,0,0,1,105,26.81Z"/><path class="cls-87" d="M105.14,26.92a11.26,11.26,0,0,1,2.72,1.93c.37.37.31.67.1.89s-.5.29-.89-.1A11.26,11.26,0,0,1,105.14,26.92Z"/><path class="cls-88" d="M105.24,27a10.44,10.44,0,0,1,2.61,1.84c.37.37.31.65.1.86s-.48.29-.86-.1A10.43,10.43,0,0,1,105.24,27Z"/><path class="cls-89" d="M105.36,27.13a9.63,9.63,0,0,1,2.51,1.76c.36.36.3.64.09.84s-.47.28-.84-.09A9.63,9.63,0,0,1,105.36,27.13Z"/><path class="cls-90" d="M105.45,27.24a8.86,8.86,0,0,1,2.4,1.67c.35.35.29.62.09.82s-.46.27-.82-.09A8.86,8.86,0,0,1,105.45,27.24Z"/><path class="cls-91" d="M105.56,27.34a8.11,8.11,0,0,1,2.29,1.58c.34.34.29.6.09.8s-.44.27-.8-.09A8.12,8.12,0,0,1,105.56,27.34Z"/><path class="cls-92" d="M105.67,27.45a7.4,7.4,0,0,1,2.19,1.5c.34.34.28.59.09.78s-.43.26-.78-.09A7.4,7.4,0,0,1,105.67,27.45Z"/><path class="cls-93" d="M105.77,27.55A6.71,6.71,0,0,1,107.85,29c.33.33.27.57.09.76s-.42.25-.76-.09A6.71,6.71,0,0,1,105.77,27.55Z"/><path class="cls-94" d="M105.88,27.66a6,6,0,0,1,2,1.32c.32.32.27.56.09.73s-.4.25-.73-.09A6,6,0,0,1,105.88,27.66Z"/><path class="cls-95" d="M106,27.76A5.43,5.43,0,0,1,107.85,29c.31.31.26.54.08.71s-.39.24-.71-.08A5.42,5.42,0,0,1,106,27.76Z"/><path class="cls-96" d="M106.09,27.87A4.9,4.9,0,0,1,107.85,29c.31.31.25.52.08.69s-.38.23-.69-.08C106.73,29.12,106,28,106.09,27.87Z"/><path class="cls-97" d="M106.19,28c.11-.11,1.17.59,1.65,1.07.3.3.24.51.08.67s-.36.23-.67-.08A4.91,4.91,0,0,1,106.19,28Z"/><path class="cls-98" d="M106.3,28.08c.11-.11,1.1.53,1.55,1,.29.29.24.49.08.65s-.35.22-.65-.08C106.83,29.18,106.19,28.19,106.3,28.08Z"/><path class="cls-99" d="M106.36,28.19c.11-.11,1,.47,1.44.89s.23.48.08.63-.34.21-.63-.08A4.64,4.64,0,0,1,106.36,28.19Z"/><path class="cls-100" d="M106.51,28.29c.11-.11.94.42,1.33.81s.22.46.08.6-.32.2-.6-.08S106.36,28.4,106.51,28.29Z"/><path class="cls-101" d="M106.62,28.4c.11-.11.87.36,1.23.72s.22.44.08.58-.31.2-.58-.08S106.51,28.51,106.62,28.4Z"/><path class="cls-102" d="M106.72,28.5c.11-.11.79.3,1.12.63s.21.43.07.56-.3.19-.56-.07S106.61,28.62,106.72,28.5Z"/><path class="cls-103" d="M106.83,28.61c.11-.11.71.25,1,.55s.2.41.07.54-.28.18-.54-.07S106.71,28.73,106.83,28.61Z"/><path class="cls-104" d="M106.93,28.72c.12-.12.64.19.91.46s.19.39.07.52-.27.18-.52-.07S106.82,28.83,106.93,28.72Z"/><path class="cls-105" d="M107,28.82c.12-.12.56.13.8.38s.19.38.07.5-.26.17-.5-.07S106.92,28.94,107,28.82Z"/></g></g></svg>