<svg xmlns="http://www.w3.org/2000/svg" viewBox="0 0 253.67 204.8"><defs><style>.cls-1{fill:#024c79;}.cls-2{fill:#fff;}.cls-3{fill:#ffc800;}.cls-4{fill:#00e02f;}.cls-5{fill:#ff4f0f;}.cls-6{fill:#ebf4fc;}.cls-7{fill:#ffc644;}.cls-8{fill:#00cd85;}.cls-9{fill:#cfdaff;}.cls-10{fill:#ff594c;}.cls-11{fill:#ffb338;}.cls-12{fill:#bd272d;}.cls-13{fill:#ffca00;}.cls-14{fill:#b1c4ca;}.cls-15{fill:#ff9500;}</style></defs><title>posicionaminetoRecurso 4</title><g id="Capa_2" data-name="Capa 2"><g id="Pagina_interna_Escritorio" data-name="Pagina interna Escritorio"><path class="cls-1" d="M24.63,27.94,243.87,47.39l2-23s1.46-5.41-6.63-6.13L33,0s-5.85-.19-6.37,5.63Z"/><rect class="cls-2" x="38.02" y="16.06" width="118.33" height="8.03" rx="4.02" ry="4.02" transform="translate(2.15 -8.51) rotate(5.07)"/><circle class="cls-3" cx="184.97" cy="29.33" r="4.02" transform="translate(139.41 210.99) rotate(-84.93)"/><circle class="cls-4" cx="205.59" cy="31.16" r="4.02" transform="translate(156.38 233.19) rotate(-84.93)"/><circle class="cls-5" cx="225.47" cy="32.93" r="4.02" transform="translate(172.75 254.61) rotate(-84.93)"/><rect class="cls-6" x="18.88" y="37.43" width="220.14" height="120.28" transform="translate(9.13 -11.01) rotate(5.07)"/><path class="cls-1" d="M0,76.78H220.1v-23s1-5.52-7.14-5.52H5.84S0,48.54,0,54.38Z"/><rect class="cls-2" x="12.42" y="58.52" width="118.33" height="8.03" rx="4.02" ry="4.02"/><circle class="cls-3" cx="159.84" cy="64" r="4.02"/><circle class="cls-4" cx="180.53" cy="64" r="4.02"/><circle class="cls-5" cx="200.5" cy="64" r="4.02"/><rect class="cls-6" y="76.78" width="220.14" height="120.28"/><path class="cls-7" d="M30.62,135.29A27.32,27.32,0,0,0,68.5,117.85l-13.11-3.66a13.73,13.73,0,0,1-14,10,13.56,13.56,0,0,1-5-1.26Z"/><path class="cls-2" d="M21.78,128.72c.2.23.41.44.62.66L32.25,120A13.72,13.72,0,1,1,54.8,105.15l12.53-5.32a27.06,27.06,0,0,0-4.76-7.52,27.34,27.34,0,1,0-40.79,36.41Z"/><path class="cls-8" d="M55.87,111.29a13.82,13.82,0,0,1-.48,2.91l13.11,3.66a27.2,27.2,0,0,0-1.17-18L54.8,105.15A13.57,13.57,0,0,1,55.87,111.29Z"/><path class="cls-9" d="M22.4,129.37a26.94,26.94,0,0,0,8.22,5.92l5.75-12.35a13.57,13.57,0,0,1-4.13-3Z"/><rect class="cls-10" x="21.68" y="187.74" width="13.66" height="4.82"/><rect class="cls-11" x="35.34" y="181.44" width="13.66" height="11.13"/><rect class="cls-10" x="49" y="170.37" width="13.66" height="22.19"/><rect class="cls-11" x="62.67" y="155.97" width="13.66" height="36.56"/><rect class="cls-10" x="76.33" y="141.71" width="13.66" height="50.82"/><rect class="cls-11" x="89.99" y="119.38" width="13.66" height="73.16"/><rect class="cls-2" x="124.2" y="113.34" width="81.39" height="73.19" rx="3.33" ry="3.33"/><path d="M150.42,164.34q6.78-18,12.68-36.23l-2.74.36,11.9,25.12c.59,1.26,2.36.76,2.74-.36l11.9-34.47-2.74.36,10.33,24.18c.55,1.29,2.37.73,2.74-.36l13.82-40.3h-2.89l10.53,29.24a1.51,1.51,0,0,0,2.89,0l16.28-43.82c.67-1.81-2.23-2.59-2.89-.8l-16.28,43.82h2.89l-10.53-29.24a1.51,1.51,0,0,0-2.89,0l-13.82,40.3,2.74-.36L186.75,117.6c-.55-1.29-2.37-.72-2.74.36l-11.9,34.47,2.74-.36L163,126.95c-.59-1.24-2.38-.77-2.74.36q-5.9,18.27-12.68,36.23c-.68,1.81,2.22,2.59,2.89.8Z"/><circle class="cls-12" cx="148.48" cy="165.18" r="6.99"/><circle class="cls-12" cx="161.69" cy="127.64" r="4.32"/><circle class="cls-12" cx="185.64" cy="118.51" r="4.32"/><circle class="cls-12" cx="209.91" cy="101.89" r="4.32"/><rect class="cls-13" x="186.51" y="168.02" width="11.67" height="42.67" transform="translate(-66.52 265.79) rotate(-61)"/><rect class="cls-14" x="167.43" y="175.43" width="8.27" height="4.83" transform="translate(-67.15 241.69) rotate(-61)"/><path d="M126.16,152.67a25.5,25.5,0,1,0,34.67-9.94A25.5,25.5,0,0,0,126.16,152.67Zm39.09,21.67a19.19,19.19,0,1,1-7.48-26.09A19.19,19.19,0,0,1,165.25,174.34Z"/><rect class="cls-15" x="191.92" y="164.83" width="4.37" height="42.67" transform="translate(-62.82 265.69) rotate(-61)"/><polygon class="cls-12" points="238.74 72.39 240.06 86.28 253.67 89.31 240.87 94.86 242.19 108.74 232.96 98.28 220.16 103.83 227.26 91.82 218.03 81.36 231.64 84.4 238.74 72.39"/></g></g></svg>