<svg xmlns="http://www.w3.org/2000/svg" xmlns:xlink="http://www.w3.org/1999/xlink" viewBox="0 0 338.47 696.55"><defs><style>.cls-1,.cls-3,.cls-7{fill:#fffbf8;}.cls-2{fill:url(#linear-gradient);}.cls-3{font-size:62.91px;letter-spacing:-0.02em;}.cls-3,.cls-7{font-family:Arial-BoldMT, Arial;font-weight:700;}.cls-4{fill:#e6e6e6;}.cls-5{fill:#1ecc6c;}.cls-6{font-size:21.69px;fill:#666;font-family:ArialNarrow, Arial;}.cls-7{font-size:57.72px;letter-spacing:-0.05em;}</style><linearGradient id="linear-gradient" x1="169.24" y1="-6.21" x2="169.24" y2="191.11" gradientUnits="userSpaceOnUse"><stop offset="0" stop-color="#9e00bd"/><stop offset="0.41" stop-color="#5a3ed3"/><stop offset="0.81" stop-color="#1b77e7"/><stop offset="1" stop-color="#038def"/></linearGradient></defs><title>pricing3Recurso 10</title><g id="Capa_2" data-name="Capa 2"><g id="Pagina_interna_Escritorio" data-name="Pagina interna Escritorio"><path class="cls-1" d="M290,696.55H48.52C21.72,696.55,0,679,0,657.27v-618C0,17.58,21.72,0,48.52,0H290c26.8,0,48.52,17.58,48.52,39.28v618C338.47,679,316.75,696.55,290,696.55Z"/><path class="cls-2" d="M290,0H48.52C21.72,0,0,17.58,0,39.28V147.06l59,10.68a621.35,621.35,0,0,0,220.44,0l59-10.68V39.28C338.47,17.58,316.75,0,290,0Z"/><text class="cls-3" transform="translate(24.66 71.39)">Marketing</text><ellipse class="cls-4" cx="169.24" cy="259.21" rx="169.24" ry="2.96"/><ellipse class="cls-4" cx="169.24" cy="308.63" rx="169.24" ry="2.96"/><ellipse class="cls-4" cx="169.24" cy="354.05" rx="169.24" ry="2.96"/><ellipse class="cls-4" cx="169.24" cy="397.24" rx="169.24" ry="2.96"/><ellipse class="cls-4" cx="169.24" cy="446.71" rx="169.24" ry="2.96"/><ellipse class="cls-4" cx="169.24" cy="496.13" rx="169.24" ry="2.96"/><ellipse class="cls-4" cx="169.24" cy="545.55" rx="169.24" ry="2.96"/><ellipse class="cls-4" cx="169.24" cy="593.74" rx="169.24" ry="2.96"/><circle class="cls-5" cx="287.56" cy="237.82" r="13.03"/><polygon class="cls-1" points="282.14 243.41 279.44 236.02 281.01 235.44 282.95 240.74 294.69 232.23 295.68 233.59 282.14 243.41"/><circle class="cls-5" cx="287.56" cy="283.94" r="13.03"/><polygon class="cls-1" points="282.14 289.53 279.44 282.14 281.01 281.57 282.95 286.86 294.69 278.35 295.68 279.71 282.14 289.53"/><circle class="cls-5" cx="287.56" cy="331.65" r="13.03"/><polygon class="cls-1" points="282.14 337.24 279.44 329.85 281.01 329.27 282.95 334.57 294.69 326.06 295.68 327.42 282.14 337.24"/><circle class="cls-5" cx="287.56" cy="376.92" r="13.03"/><polygon class="cls-1" points="282.14 382.5 279.44 375.12 281.01 374.54 282.95 379.84 294.69 371.33 295.68 372.69 282.14 382.5"/><circle class="cls-5" cx="287.56" cy="422.11" r="13.03"/><polygon class="cls-1" points="282.14 427.7 279.44 420.32 281.01 419.74 282.95 425.04 294.69 416.53 295.68 417.89 282.14 427.7"/><circle class="cls-5" cx="287.56" cy="471.43" r="13.03"/><polygon class="cls-1" points="282.14 477.02 279.44 469.64 281.01 469.06 282.95 474.36 294.69 465.85 295.68 467.21 282.14 477.02"/><circle class="cls-5" cx="287.56" cy="520.35" r="13.03"/><polygon class="cls-1" points="282.14 525.94 279.44 518.55 281.01 517.98 282.95 523.27 294.69 514.76 295.68 516.13 282.14 525.94"/><circle class="cls-5" cx="287.56" cy="570.59" r="13.03"/><polygon class="cls-1" points="282.14 576.17 279.44 568.79 281.01 568.21 282.95 573.51 294.69 565 295.68 566.36 282.14 576.17"/><text class="cls-6" transform="translate(35.84 337.63)">Envío de informes</text><text class="cls-6" transform="translate(35.84 243.8)">Diseños de anuncios</text><text class="cls-6" transform="translate(34.83 289.92)">Monitorización y revisión</text><text class="cls-6" transform="translate(35.84 382.89)">Configuración de objetivo</text><text class="cls-6" transform="translate(35.84 428.09)">Segimineto continuo</text><text class="cls-6" transform="translate(35.84 477.41)">Análisis de competencia</text><text class="cls-6" transform="translate(35.84 526.33)">Campañas de display</text><text class="cls-6" transform="translate(35.84 576.56)">Revisión de keywords</text><text class="cls-7" transform="translate(26.63 128.82)">SEO y SEM</text></g></g></svg>