<svg xmlns="http://www.w3.org/2000/svg" xmlns:xlink="http://www.w3.org/1999/xlink" viewBox="0 0 338.47 696.55"><defs><style>.cls-1,.cls-3{fill:#fffbf8;}.cls-2{fill:url(#linear-gradient);}.cls-3{font-size:67.02px;font-family:Arial-BoldMT, Arial;font-weight:700;}.cls-4{letter-spacing:-0.02em;}.cls-5{letter-spacing:0em;}.cls-6{fill:#e6e6e6;}.cls-7{fill:#1ecc6c;}.cls-8{font-size:21.69px;fill:#666;font-family:ArialNarrow, Arial;}</style><linearGradient id="linear-gradient" x1="169.24" y1="-6.21" x2="169.24" y2="191.11" gradientUnits="userSpaceOnUse"><stop offset="0" stop-color="#fd4588"/><stop offset="0.04" stop-color="#fb4691"/><stop offset="0.23" stop-color="#f54ab5"/><stop offset="0.42" stop-color="#f04dd1"/><stop offset="0.62" stop-color="#ed4fe5"/><stop offset="0.81" stop-color="#eb51f1"/><stop offset="1" stop-color="#ea51f5"/></linearGradient></defs><title>pricing2Recurso 9</title><g id="Capa_2" data-name="Capa 2"><g id="Pagina_interna_Escritorio" data-name="Pagina interna Escritorio"><path class="cls-1" d="M290,696.55H48.52C21.72,696.55,0,679,0,657.27v-618C0,17.58,21.72,0,48.52,0H290c26.8,0,48.52,17.58,48.52,39.28v618C338.47,679,316.75,696.55,290,696.55Z"/><path class="cls-2" d="M290,0H48.52C21.72,0,0,17.58,0,39.28V147.06l59,10.68a621.35,621.35,0,0,0,220.44,0l59-10.68V39.28C338.47,17.58,316.75,0,290,0Z"/><text class="cls-3" transform="translate(43.22 70.57)"><tspan class="cls-4">T<tspan class="cls-5" x="39.73" y="0">iendas</tspan></tspan><tspan x="27.36" y="67">online</tspan></text><ellipse class="cls-6" cx="169.24" cy="213.21" rx="169.24" ry="2.96"/><ellipse class="cls-6" cx="169.24" cy="268.63" rx="169.24" ry="2.96"/><ellipse class="cls-6" cx="169.24" cy="314.05" rx="169.24" ry="2.96"/><ellipse class="cls-6" cx="169.24" cy="357.24" rx="169.24" ry="2.96"/><ellipse class="cls-6" cx="169.24" cy="405.71" rx="169.24" ry="2.96"/><ellipse class="cls-6" cx="169.24" cy="455.13" rx="169.24" ry="2.96"/><ellipse class="cls-6" cx="169.24" cy="500.55" rx="169.24" ry="2.96"/><ellipse class="cls-6" cx="169.24" cy="548.74" rx="169.24" ry="2.96"/><circle class="cls-7" cx="287.56" cy="191.82" r="13.03"/><polygon class="cls-1" points="282.14 197.41 279.44 190.02 281.01 189.44 282.95 194.74 294.69 186.23 295.68 187.59 282.14 197.41"/><circle class="cls-7" cx="287.56" cy="242.94" r="13.03"/><polygon class="cls-1" points="282.14 248.53 279.44 241.14 281.01 240.57 282.95 245.86 294.69 237.35 295.68 238.71 282.14 248.53"/><circle class="cls-7" cx="287.56" cy="291.65" r="13.03"/><polygon class="cls-1" points="282.14 297.24 279.44 289.85 281.01 289.27 282.95 294.57 294.69 286.06 295.68 287.42 282.14 297.24"/><circle class="cls-7" cx="287.56" cy="336.92" r="13.03"/><polygon class="cls-1" points="282.14 342.5 279.44 335.12 281.01 334.54 282.95 339.84 294.69 331.33 295.68 332.69 282.14 342.5"/><circle class="cls-7" cx="287.56" cy="382.11" r="13.03"/><polygon class="cls-1" points="282.14 387.7 279.44 380.32 281.01 379.74 282.95 385.04 294.69 376.53 295.68 377.89 282.14 387.7"/><circle class="cls-7" cx="287.56" cy="430.43" r="13.03"/><polygon class="cls-1" points="282.14 436.02 279.44 428.64 281.01 428.06 282.95 433.36 294.69 424.85 295.68 426.21 282.14 436.02"/><circle class="cls-7" cx="287.56" cy="479.35" r="13.03"/><polygon class="cls-1" points="282.14 484.94 279.44 477.55 281.01 476.98 282.95 482.27 294.69 473.76 295.68 475.13 282.14 484.94"/><circle class="cls-7" cx="287.56" cy="525.59" r="13.03"/><polygon class="cls-1" points="282.14 531.17 279.44 523.79 281.01 523.21 282.95 528.51 294.69 520 295.68 521.36 282.14 531.17"/><circle class="cls-7" cx="287.56" cy="574.06" r="13.03"/><polygon class="cls-1" points="282.14 579.64 279.44 572.26 281.01 571.68 282.95 576.98 294.69 568.47 295.68 569.83 282.14 579.64"/><text class="cls-8" transform="translate(35.84 297.63)">Diseño profesional</text><text class="cls-8" transform="translate(35.84 197.8)">Productos 200</text><text class="cls-8" transform="translate(34.83 239.92)">Dominio perzonalizado:<tspan x="0" y="18">.com, .org, .co, . net</tspan></text><text class="cls-8" transform="translate(35.84 342.89)">Alojamiento web</text><text class="cls-8" transform="translate(35.84 388.09)">Panel de control</text><text class="cls-8" transform="translate(35.84 436.41)">Correos profesionales</text><text class="cls-8" transform="translate(35.84 485.33)">Hosting</text><text class="cls-8" transform="translate(35.84 531.56)">Modificaciones anuales</text><text class="cls-8" transform="translate(35.84 580.03)">Metodos de pago</text><ellipse class="cls-6" cx="169.24" cy="597.64" rx="169.24" ry="2.96"/><ellipse class="cls-6" cx="169.24" cy="645.83" rx="169.24" ry="2.96"/><circle class="cls-7" cx="287.56" cy="622.67" r="13.03"/><polygon class="cls-1" points="282.14 628.26 279.44 620.88 281.01 620.3 282.95 625.6 294.69 617.09 295.68 618.45 282.14 628.26"/><circle class="cls-7" cx="287.56" cy="671.15" r="13.03"/><polygon class="cls-1" points="282.14 676.73 279.44 669.35 281.01 668.77 282.95 674.07 294.69 665.56 295.68 666.92 282.14 676.73"/><text class="cls-8" transform="translate(35.84 628.65)">Panel autoadministrable</text><text class="cls-8" transform="translate(35.84 677.12)">Enlace a redes sociales</text></g></g></svg>