<svg xmlns="http://www.w3.org/2000/svg" xmlns:xlink="http://www.w3.org/1999/xlink" viewBox="0 0 338.47 696.55"><defs><style>.cls-1,.cls-3{fill:#fffbf8;}.cls-2{fill:url(#linear-gradient);}.cls-3{font-size:67.02px;font-family:Arial-BoldMT, Arial;font-weight:700;}.cls-4{letter-spacing:-0.02em;}.cls-5{fill:#e6e6e6;}.cls-6{fill:#1ecc6c;}.cls-7{font-size:21.69px;fill:#666;font-family:ArialNarrow, Arial;}</style><linearGradient id="linear-gradient" x1="169.24" y1="-6.21" x2="169.24" y2="191.11" gradientUnits="userSpaceOnUse"><stop offset="0" stop-color="#f6911e"/><stop offset="1" stop-color="#f8ec31"/></linearGradient></defs><title>pricing1Recurso 8</title><g id="Capa_2" data-name="Capa 2"><g id="Pagina_interna_Escritorio" data-name="Pagina interna Escritorio"><path class="cls-1" d="M290,696.55H48.52C21.72,696.55,0,679,0,657.27v-618C0,17.58,21.72,0,48.52,0H290c26.8,0,48.52,17.58,48.52,39.28v618C338.47,679,316.75,696.55,290,696.55Z"/><path class="cls-2" d="M290,0H48.52C21.72,0,0,17.58,0,39.28V147.06l59,10.68a621.35,621.35,0,0,0,220.44,0l59-10.68V39.28C338.47,17.58,316.75,0,290,0Z"/><text class="cls-3" transform="translate(40.73 70.57)">Paginas<tspan class="cls-4" x="39.74" y="67">W</tspan><tspan x="101.79" y="67">ebs</tspan></text><ellipse class="cls-5" cx="169.24" cy="253.21" rx="169.24" ry="2.96"/><ellipse class="cls-5" cx="169.24" cy="308.63" rx="169.24" ry="2.96"/><ellipse class="cls-5" cx="169.24" cy="354.05" rx="169.24" ry="2.96"/><ellipse class="cls-5" cx="169.24" cy="397.24" rx="169.24" ry="2.96"/><ellipse class="cls-5" cx="169.24" cy="446.71" rx="169.24" ry="2.96"/><ellipse class="cls-5" cx="169.24" cy="496.13" rx="169.24" ry="2.96"/><ellipse class="cls-5" cx="169.24" cy="545.55" rx="169.24" ry="2.96"/><ellipse class="cls-5" cx="169.24" cy="593.74" rx="169.24" ry="2.96"/><circle class="cls-6" cx="287.56" cy="231.82" r="13.03"/><polygon class="cls-1" points="282.14 237.41 279.44 230.02 281.01 229.44 282.95 234.74 294.69 226.23 295.68 227.59 282.14 237.41"/><circle class="cls-6" cx="287.56" cy="282.94" r="13.03"/><polygon class="cls-1" points="282.14 288.53 279.44 281.14 281.01 280.57 282.95 285.86 294.69 277.35 295.68 278.71 282.14 288.53"/><circle class="cls-6" cx="287.56" cy="331.65" r="13.03"/><polygon class="cls-1" points="282.14 337.24 279.44 329.85 281.01 329.27 282.95 334.57 294.69 326.06 295.68 327.42 282.14 337.24"/><circle class="cls-6" cx="287.56" cy="376.92" r="13.03"/><polygon class="cls-1" points="282.14 382.5 279.44 375.12 281.01 374.54 282.95 379.84 294.69 371.33 295.68 372.69 282.14 382.5"/><circle class="cls-6" cx="287.56" cy="422.11" r="13.03"/><polygon class="cls-1" points="282.14 427.7 279.44 420.32 281.01 419.74 282.95 425.04 294.69 416.53 295.68 417.89 282.14 427.7"/><circle class="cls-6" cx="287.56" cy="471.43" r="13.03"/><polygon class="cls-1" points="282.14 477.02 279.44 469.64 281.01 469.06 282.95 474.36 294.69 465.85 295.68 467.21 282.14 477.02"/><circle class="cls-6" cx="287.56" cy="520.35" r="13.03"/><polygon class="cls-1" points="282.14 525.94 279.44 518.55 281.01 517.98 282.95 523.27 294.69 514.76 295.68 516.13 282.14 525.94"/><circle class="cls-6" cx="287.56" cy="570.59" r="13.03"/><polygon class="cls-1" points="282.14 576.17 279.44 568.79 281.01 568.21 282.95 573.51 294.69 565 295.68 566.36 282.14 576.17"/><circle class="cls-6" cx="287.56" cy="619.06" r="13.03"/><polygon class="cls-1" points="282.14 624.64 279.44 617.26 281.01 616.68 282.95 621.98 294.69 613.47 295.68 614.83 282.14 624.64"/><text class="cls-7" transform="translate(35.84 337.63)">Diseño profesional</text><text class="cls-7" transform="translate(35.84 237.8)">Secciones 5</text><text class="cls-7" transform="translate(34.83 279.92)">Dominio perzonalizado:<tspan x="0" y="18">.com, .org, .co, . net</tspan></text><text class="cls-7" transform="translate(35.84 382.89)">Alojamiento web</text><text class="cls-7" transform="translate(35.84 428.09)">Panel de control</text><text class="cls-7" transform="translate(35.84 477.41)">Correos profesionales</text><text class="cls-7" transform="translate(35.84 526.33)">Hosting</text><text class="cls-7" transform="translate(35.84 576.56)">Modificaciones anuales</text><text class="cls-7" transform="translate(35.84 625.03)">Enlace a redes sociales</text></g></g></svg>