<svg xmlns="http://www.w3.org/2000/svg" xmlns:xlink="http://www.w3.org/1999/xlink" viewBox="0 0 240.87 229.47"><defs><style>.cls-1{fill:#ffbda1;}.cls-2{fill:#c1ddf7;}.cls-3{fill:#71addb;}.cls-4{fill:#214a81;}.cls-5{fill:#d7e8f7;}.cls-19,.cls-6{fill:#fff;}.cls-7{fill:#cadfef;}.cls-8{fill:#84b4fe;}.cls-9{fill:#ffd474;}.cls-10{fill:#241c2b;}.cls-11{fill:#03345f;}.cls-12{fill:#072042;}.cls-13{fill:#ffb398;}.cls-14{fill:#0e0e0e;}.cls-15{fill:#052e47;}.cls-16{fill:#faaaab;}.cls-17{fill:#f7c869;}.cls-18{clip-path:url(#clip-path);}.cls-19{stroke:#000;stroke-miterlimit:10;stroke-width:0.25px;}.cls-20{fill:#8cb8f2;}.cls-21{clip-path:url(#clip-path-2);}</style><clipPath id="clip-path"><circle class="cls-1" cx="111.7" cy="5.21" r="4.79" transform="translate(22.48 72.62) rotate(-39.74)"/></clipPath><clipPath id="clip-path-2"><circle class="cls-1" cx="12.93" cy="161.01" r="4.83" transform="translate(-148.02 147.44) rotate(-80.59)"/></clipPath></defs><title>webserviceRecurso 3</title><g id="Capa_2" data-name="Capa 2"><g id="Pagina_interna_Escritorio" data-name="Pagina interna Escritorio"><path class="cls-2" d="M22.63,152.84H215.35a0,0,0,0,1,0,0v6.72a12.76,12.76,0,0,1-12.76,12.76H35.39a12.76,12.76,0,0,1-12.76-12.76v-6.72A0,0,0,0,1,22.63,152.84Z"/><rect class="cls-3" x="99.6" y="172.31" width="39.55" height="17.04"/><path class="cls-4" d="M34.42,40.53H203.56a11.79,11.79,0,0,1,11.79,11.79V153.15a0,0,0,0,1,0,0H22.63a0,0,0,0,1,0,0V52.32A11.79,11.79,0,0,1,34.42,40.53Z"/><rect class="cls-5" x="30.46" y="48.63" width="178.27" height="97.56"/><circle class="cls-6" cx="118.99" cy="161.7" r="4.35"/><path class="cls-6" d="M113.66,57.52h80.54a3.59,3.59,0,0,1,3.59,3.59v71.7a3.58,3.58,0,0,1-3.58,3.58H113.66a3.59,3.59,0,0,1-3.59-3.59V61.1A3.59,3.59,0,0,1,113.66,57.52Z"/><path class="cls-6" d="M45.88,93.85h51.6a3.59,3.59,0,0,1,3.59,3.59V132.8a3.58,3.58,0,0,1-3.58,3.58H45.88a3.58,3.58,0,0,1-3.58-3.58V97.44A3.59,3.59,0,0,1,45.88,93.85Z"/><rect class="cls-5" x="48.98" y="121.4" width="45.35" height="2.55" rx="1.21" ry="1.21"/><rect class="cls-5" x="48.98" y="127.38" width="26.89" height="2.55" rx="1.21" ry="1.21"/><circle class="cls-5" cx="55.55" cy="106.84" r="8.08"/><path class="cls-7" d="M240.29,196.39H.59a.59.59,0,0,1,0-1.18h239.7a.59.59,0,0,1,0,1.18Z"/><rect class="cls-8" x="156.47" y="99.63" width="29.23" height="29.23" rx="5.27" ry="5.27"/><path class="cls-1" d="M174.29,121.91a2.73,2.73,0,0,1,2.64,2.74,2.6,2.6,0,0,1-2.62,2.66,2.73,2.73,0,0,1-2.64-2.74A2.6,2.6,0,0,1,174.29,121.91Z"/><path class="cls-1" d="M224.17,141.39a2.23,2.23,0,0,0-3.3,0,2.61,2.61,0,0,0-.16,3.52,2.23,2.23,0,0,0,3.3,0A2.61,2.61,0,0,0,224.17,141.39Z"/><path class="cls-9" d="M212.48,151.85,204,144.52a2,2,0,0,0-2.91.91,2.8,2.8,0,0,0,1,3.41l8.51,7.33a3.88,3.88,0,0,0,5.2-.75l7.13-8.91-3.43-3.33Z"/><polygon class="cls-1" points="192.86 209.56 196.29 209.43 196.24 203.4 192.75 203.56 192.86 209.56"/><path class="cls-10" d="M187.29,212.38l9.07-.1-.06-4-5.47.06a3.81,3.81,0,0,0-3.54,4Z"/><polygon class="cls-1" points="208.12 209.56 204.69 209.43 203.97 203.4 207.46 203.56 208.12 209.56"/><path class="cls-10" d="M213.69,212.38l-8.74-.11-.4-4,5.6.06a3.81,3.81,0,0,1,3.54,4Z"/><polygon class="cls-11" points="192.64 162.7 198.59 162.47 199.21 162.45 205.17 162.23 205.24 170.94 193.09 171.4 192.64 162.7"/><path class="cls-11" d="M203.5,206.28l5.41,0-2.85-22.44-.9-21.58-5.74.94L200.2,184a3.18,3.18,0,0,0,.06.71Z"/><path class="cls-11" d="M191.67,206l5.15,0-.76-21.37,2.88-21.36-6.31-.65-2.43,21.63a3.19,3.19,0,0,0,0,.65Z"/><rect class="cls-1" x="197.2" y="140.66" width="3.51" height="4.71"/><circle class="cls-1" cx="194.3" cy="137.83" r="1.17"/><circle class="cls-1" cx="203.66" cy="137.83" r="1.17"/><circle class="cls-12" cx="198.98" cy="136.82" r="4.79"/><path class="cls-9" d="M205.18,163.28H192.52L192,148.4c0-2.49,1.55-4.52,3.89-4.52h5.85c2.34,0,3.89,2,3.89,4.52Z"/><path class="cls-9" d="M192.76,149.35l-9.5-9.85-.13-.15-9.32-11.27,4-3.29L187,136l9.43,9.78Z"/><polygon class="cls-1" points="140.08 54.63 143.42 54.51 141.99 48.63 138.59 48.78 140.08 54.63"/><path class="cls-10" d="M134.66,57.37l8.83-.1-.05-3.87-5.32.06a3.71,3.71,0,0,0-3.45,3.91Z"/><polygon class="cls-13" points="124.48 37.07 127.82 36.95 125.95 31.88 122.56 32.03 124.48 37.07"/><path class="cls-14" d="M119.3,40.62l8.83-.1-.05-3.87-5.32.06a3.71,3.71,0,0,0-3.45,3.91Z"/><path class="cls-15" d="M142.14,17.31l-22.26,6.94,1.89-4.49,6.39,14.75-5.7.34-7-12.45A3.27,3.27,0,0,1,117,18.08l.35-.17,21-10.11Z"/><path class="cls-16" d="M100.18,27.91a2.17,2.17,0,0,0-3.21,0,2.54,2.54,0,0,0-.15,3.42,2.17,2.17,0,0,0,3.21,0A2.54,2.54,0,0,0,100.18,27.91Z"/><path class="cls-17" d="M101.63,30.65l-2.82-4.18,11.95-8.06,7.9-13.17L123,7.84l-8.19,13.64a2.52,2.52,0,0,1-.75.79Z"/><polygon class="cls-1" points="115.67 5.24 118.41 5.28 119.3 8.88 114.14 8.04 115.67 5.24"/><path class="cls-1" d="M106.41,6.5l.78-.91,1.21,1-.85.7-.84-.08A.45.45,0,0,1,106.41,6.5Z"/><circle class="cls-1" cx="111.7" cy="5.21" r="4.79" transform="translate(22.48 72.62) rotate(-39.74)"/><g class="cls-18"><polygon class="cls-12" points="107.57 0.5 117.64 8.22 116.01 0 107.57 0.5"/></g><circle class="cls-1" cx="113.55" cy="4.22" r="1.34" transform="translate(23.54 73.57) rotate(-39.74)"/><path class="cls-9" d="M134.38,4.43l.1,10-14.3,2.23L117.45,5.27l1.17-.51A11.81,11.81,0,0,1,125.56,4l2.24.2Z"/><path class="cls-11" d="M134.48,14.46l10,.68v-1a9.73,9.73,0,0,0-10.12-9.74h0Z"/><path class="cls-11" d="M144.5,15.14l-7,14.71.08-1.9,5.16,23.44-5.41.06-6.26-21.86a2.77,2.77,0,0,1,0-1.35l.12-.55,3.38-15.38Z"/><rect class="cls-19" x="56.06" y="25.54" width="75.99" height="14.46" rx="3.05" ry="3.05" transform="translate(7.84 -17.1) rotate(10.83)"/><path class="cls-20" d="M127.39,42.59,125.76,40a3.41,3.41,0,1,0-.9.61l1.6,2.59Zm-1.69-4.65a2.31,2.31,0,1,1-1.84-2.71A2.32,2.32,0,0,1,125.7,37.94Z"/><path class="cls-1" d="M114.38,38.24a2.17,2.17,0,0,0-3.21,0,2.54,2.54,0,0,0-.15,3.42,2.17,2.17,0,0,0,3.21,0A2.54,2.54,0,0,0,114.38,38.24Z"/><path class="cls-9" d="M115.87,39.52l-4.15-2.85,9.15-13.35-2.41-14,5-.86,2.58,15a2.52,2.52,0,0,1-.41,1.85Z"/><path class="cls-2" d="M156.07,195H82a5.7,5.7,0,0,1,5.7-5.7h62.7a5.7,5.7,0,0,1,5.7,5.7Z"/><path class="cls-1" d="M34.17,221.84c0-.28-.65-7.13-.65-7.13l3.56-.71.69,7.13Z"/><path class="cls-14" d="M44.41,221.34l-9.93,2-.61-3.05,6.86-1.4a3.12,3.12,0,0,1,3.68,2.42Z"/><path class="cls-15" d="M20.9,183.24l14,10.72.44.34a3.28,3.28,0,0,1,1.27,2.31l1.71,19.65-5,.73L30,196.81l1.71,2.65-16.53-6.92Z"/><path class="cls-17" d="M12,189.66l12-4.29A1.91,1.91,0,0,0,25.27,183l-5.11-16.5-9.62,3a6.54,6.54,0,0,0-4.31,8.19Z"/><rect class="cls-8" x="19.67" y="162.12" width="26.79" height="26.79" rx="4.83" ry="4.83" transform="translate(-41.81 13.37) rotate(-14.12)"/><path class="cls-1" d="M11.88,227.54c.06-.27,1-7,1-7l3.62.26-1,7Z"/><path class="cls-10" d="M22,229.47l-10.14,0,0-3.11,7,0A3.12,3.12,0,0,1,22,229.47Z"/><path class="cls-11" d="M20.28,186l1.77,14.12.13.72a2.67,2.67,0,0,1,0,1l-4.59,21.8-5.42-.4,3-22.12.1,1.76-3.37-13.74Z"/><circle class="cls-1" cx="33.07" cy="178.34" r="2.38" transform="translate(-148.11 169.63) rotate(-76.74)"/><polygon class="cls-1" points="31.66 177.06 26.88 179.67 28.38 181.87 33.98 179.28 31.66 177.06"/><path class="cls-1" d="M18.19,159.44,17,159l-.53,1.51,1.09.18.69-.5A.45.45,0,0,0,18.19,159.44Z"/><circle class="cls-1" cx="12.93" cy="161.01" r="4.83" transform="translate(-148.02 147.44) rotate(-80.59)"/><g class="cls-21"><polygon class="cls-12" points="14.13 154.8 9.29 166.66 6.52 158.67 14.13 154.8"/></g><circle class="cls-1" cx="10.81" cy="161.09" r="1.35" transform="translate(-149.87 145.41) rotate(-80.59)"/><circle class="cls-12" cx="4.96" cy="162.86" r="4.23" transform="translate(-146.52 102.85) rotate(-66.64)"/><path class="cls-1" d="M15,165l.48,6.69-4.38-2.49.16-4.09Z"/><path class="cls-9" d="M17.91,189.68a2.69,2.69,0,0,1-2.3-1.15L7.09,176.37a2.69,2.69,0,0,1,.66-3.75h0a2.69,2.69,0,0,1,3.75.66l7.1,10.14,10.43-6,2.69,4.66-12.56,7.23A2.68,2.68,0,0,1,17.91,189.68Z"/><rect class="cls-6" x="42.79" y="69.21" width="47.28" height="2.55" rx="1.21" ry="1.21"/><rect class="cls-6" x="42.79" y="85.24" width="47.28" height="2.55" rx="1.21" ry="1.21"/><rect class="cls-6" x="42.79" y="77.19" width="57.95" height="2.55" rx="1.21" ry="1.21"/></g></g></svg>