<svg xmlns="http://www.w3.org/2000/svg" viewBox="0 0 194.58 34.38"><defs><style>.cls-1{fill:#fff;}.cls-2{fill:aqua;}.cls-3{fill:#dadad9;}.cls-4{fill:#a4a6a9;}</style></defs><title>logo-entero-blancoRecurso 7</title><g id="Capa_2" data-name="Capa 2"><g id="Pagina_interna_Escritorio" data-name="Pagina interna Escritorio"><path class="cls-1" d="M63,15.91l-.65-.73q-1.67-1.8-3.5-3.46T55.32,8.86q-1.65-1.24-3.41-2.35-1.59-1-3.25-1.87-1.48-.78-3-1.45Q44.3,2.6,42.92,2.11q-1.14-.39-2.35-.75C39.94,1.2,39.31,1,38.67.86a27.58,27.58,0,0,0-7-.86,30,30,0,0,0-3.26.23,36.4,36.4,0,0,0-4,.73,43.68,43.68,0,0,0-4.75,1.43C9.26,6.16.67,15.52.67,15.52a2.77,2.77,0,0,0-.52,2.73c2.47,2.86,15.6,16.51,32.5,16.12S63,18.51,63,18.51,64,17.6,63,15.91Zm-7.07,1.7a5.46,5.46,0,0,1-.78,1.06q-.46.59-.94,1.16-.7.82-1.43,1.62-.91,1-1.87,1.94T48.6,25.47c-.84.73-1.71,1.43-2.61,2.09s-1.91,1.34-2.91,1.94a27.92,27.92,0,0,1-3.16,1.62,22,22,0,0,1-3.37,1.15A17.77,17.77,0,0,1,33,32.8h-.38q-1,0-2,0a18.37,18.37,0,0,1-1.91-.23q-.94-.16-1.86-.39t-1.81-.54q-.88-.31-1.75-.67t-1.68-.79q-.82-.41-1.61-.87t-1.5-.94l-1.48-1a14.61,14.61,0,0,1-1.38-1Q15,25.8,14.4,25.23t-1.18-1.07q-.58-.51-1.07-1t-1-1l-.89-.93-.78-.85-.66-.76L8.32,19c-.28-.34-.55-.68-.8-1s-.39-.88-.11-1.16c0,0,8.71-10.92,17.28-13.78A21.33,21.33,0,0,1,39,3.15c.32.12.64.23,1,.37.49.22,1,.45,1.52.71.69.35,1.35.73,2,1.13.83.49,1.64,1.06,2.43,1.63,1,.7,1.88,1.44,2.78,2.21,1.06.91,2.08,1.88,3.06,2.87Q53.48,13.8,55,15.69c.19.22.37.45.56.67A1.48,1.48,0,0,1,56,17a1,1,0,0,1-.12.58Z"/><path class="cls-1" d="M28.55,21.67c.25-.83.55-1.73.89-2.64a27.73,27.73,0,0,1,2.2-4.59,1.11,1.11,0,0,1-.23-.65,16,16,0,0,0-4-.31,1.12,1.12,0,0,1-.85,1,17.45,17.45,0,0,0,2,7.14Z"/><path class="cls-1" d="M30.64,25.83a18,18,0,0,1-1.6-2,1.11,1.11,0,0,1-.38.07c-.12.49-.23.94-.31,1.32A8.7,8.7,0,0,0,30.64,25.83Z"/><path class="cls-1" d="M37.78,17.54a10.86,10.86,0,0,0-4.33-3.13,1.11,1.11,0,0,1-1.23.43,27.15,27.15,0,0,0-2.12,4.44c-.34.89-.63,1.76-.87,2.57a1.12,1.12,0,0,1,.49.64,11.74,11.74,0,0,0,6.6-2.38,12.75,12.75,0,0,0,1.23-1,1.11,1.11,0,0,1,.24-1.55Z"/><path class="cls-1" d="M33.43,13.11a1.11,1.11,0,0,1,.22.62,11.7,11.7,0,0,1,4.87,3.59,1.11,1.11,0,0,1,.49.14,11.3,11.3,0,0,0,1.19-1.92l.11,0a8.66,8.66,0,0,0-2.5-4.65,8.83,8.83,0,0,0-.9-.76A10.15,10.15,0,0,0,33.43,13.11Z"/><path class="cls-1" d="M27.9,21.94a17.93,17.93,0,0,1-2.09-7.48,1.12,1.12,0,0,1-.64-.76q-.77.11-1.56.28a8.71,8.71,0,0,0,.68,7.77,18.16,18.16,0,0,0,3.29.67A1.12,1.12,0,0,1,27.9,21.94Z"/><path class="cls-1" d="M39.66,20.75A8.31,8.31,0,0,0,39,19.37a1.11,1.11,0,0,1-.91.13,13.62,13.62,0,0,1-1.4,1.19A12.42,12.42,0,0,1,31.14,23a13.42,13.42,0,0,1-1.48.14,1.11,1.11,0,0,1-.09.19,17,17,0,0,0,2.11,2.52,8.73,8.73,0,0,0,8-5.14Z"/><path class="cls-1" d="M39.47,18a1.11,1.11,0,0,1,0,.79,10.86,10.86,0,0,1,.52,1,8.72,8.72,0,0,0,.38-3.2A13.69,13.69,0,0,1,39.47,18Z"/><path class="cls-1" d="M26.52,12.36a1.12,1.12,0,0,1,.65.43l1,0a15.93,15.93,0,0,1,3.37.34h.06a1.11,1.11,0,0,1,1.21-.39,11.14,11.14,0,0,1,3.37-3,8.73,8.73,0,0,0-9.43.27A19.46,19.46,0,0,0,26.52,12.36Z"/><path class="cls-1" d="M25.25,13a1.12,1.12,0,0,1,.56-.55q0-.89.18-1.79-.27.24-.52.49A8.7,8.7,0,0,0,24,13.19Z"/><path class="cls-1" d="M28,23.7a1.12,1.12,0,0,1-.43-.58,18.1,18.1,0,0,1-2.64-.46,8.76,8.76,0,0,0,2.77,2.27C27.78,24.56,27.88,24.15,28,23.7Z"/><circle class="cls-2" cx="32.55" cy="13.82" r="1.17"/><circle class="cls-2" cx="26.29" cy="13.47" r="1.17"/><circle class="cls-2" cx="38.41" cy="18.5" r="1.17"/><circle class="cls-2" cx="28.65" cy="22.69" r="1.17"/><path class="cls-3" d="M39.7,23.85,42.34,26a13.76,13.76,0,0,0,2.73-5.25l-3.32-.9A10.34,10.34,0,0,1,39.7,23.85Z"/><path class="cls-3" d="M24.74,24.9a10.37,10.37,0,0,1-3.41-7.13L17.91,18a13.79,13.79,0,0,0,4.53,9.48l.54.46,2.17-2.66Z"/><path class="cls-3" d="M35.81,26.75l1.35,3.16a13.74,13.74,0,0,0,1.35-.66l-1.66-3A10.32,10.32,0,0,1,35.81,26.75Z"/><path class="cls-3" d="M29.93,27.44l-.59,3.39a13.91,13.91,0,0,0,5.92-.26l-.89-3.32A10.45,10.45,0,0,1,29.93,27.44Z"/><path class="cls-3" d="M37.19,26,39,29a13.75,13.75,0,0,0,1.48-1.06l-2.15-2.67A10.34,10.34,0,0,1,37.19,26Z"/><path class="cls-3" d="M40.92,27.52l.55-.52-2.42-2.44-.41.39Z"/><path class="cls-4" d="M42,19l3.39.59A13.82,13.82,0,0,0,41.52,7.43L39.09,9.85A10.37,10.37,0,0,1,42,19Z"/><path class="cls-3" d="M22.43,12.5,19.37,11a13.73,13.73,0,0,0-.72,1.69l3.24,1.13A10.32,10.32,0,0,1,22.43,12.5Z"/><path class="cls-3" d="M25.49,25.52l-2.06,2.75a13.75,13.75,0,0,0,3.74,2L28.3,27A10.33,10.33,0,0,1,25.49,25.52Z"/><path class="cls-3" d="M24,10.22a10.37,10.37,0,0,1,7.9-3.43L32,3.33a13.85,13.85,0,0,0-12.34,7.08l3,1.68A10.43,10.43,0,0,1,24,10.22Z"/><path class="cls-3" d="M21.39,16,18,15.56a13.9,13.9,0,0,0-.09,1.83l3.46,0A10.45,10.45,0,0,1,21.39,16Z"/><path class="cls-3" d="M28.71,27.14l-1,3.29.39.11.9-3.32Z"/><path class="cls-3" d="M18.08,15l3.39.55a10.37,10.37,0,0,1,.29-1.33l-3.29-1A13.82,13.82,0,0,0,18.08,15Z"/><path class="cls-3" d="M38.43,5.1l-1.66,3a10.41,10.41,0,0,1,1.6,1.1l2.2-2.64A13.82,13.82,0,0,0,38.43,5.1Z"/><path class="cls-3" d="M35.93,7.68,37.3,4.53a13.79,13.79,0,0,0-4.05-1.09l-.4,3.41A10.37,10.37,0,0,1,35.93,7.68Z"/><path class="cls-1" d="M70.18,21.63a1.19,1.19,0,0,1-.36-.87V15.84a2.92,2.92,0,0,1,2.92-2.92H76a2.92,2.92,0,0,1,2.92,2.92v3.29a.41.41,0,1,0,.83,0V15.84a2.92,2.92,0,1,1,5.74,0v1.64a1.17,1.17,0,0,1-.43.87,1.21,1.21,0,0,1-.81.36A1.23,1.23,0,0,1,83,17.52s0,0,0,0V15.84a.41.41,0,0,0-.42-.41.41.41,0,0,0-.41.41v3.29a2.92,2.92,0,0,1-5.75,0V15.84a.41.41,0,0,0-.41-.41H72.7a.42.42,0,0,0-.41.41v4.92a1.17,1.17,0,0,1-.42.87,1.21,1.21,0,0,1-.81.36A1.19,1.19,0,0,1,70.18,21.63Z"/><path class="cls-2" d="M83.33,21.63a1.22,1.22,0,1,1,.87.36A1.19,1.19,0,0,1,83.33,21.63Z"/><path class="cls-1" d="M95,16a2,2,0,0,0-1.49-.62H88.61a2.11,2.11,0,0,0-2.11,2.11,2.16,2.16,0,0,0,.1.64,2,2,0,0,0,.28.56,1.94,1.94,0,0,0-.28.56,2.12,2.12,0,0,0,2,2.75h3.62a.9.9,0,0,0,.9-.9h0a.88.88,0,0,0-.26-.59.86.86,0,0,0-.64-.31H88.65a.28.28,0,0,1-.21-.09.27.27,0,0,1-.09-.21.31.31,0,0,1,.3-.3h4.86A2.11,2.11,0,0,0,95,16Zm-1.26,1.7a.28.28,0,0,1-.21.09H88.62a.28.28,0,0,1-.21-.09.27.27,0,0,1-.09-.21.31.31,0,0,1,.3-.3h4.86a.28.28,0,0,1,.21.09.29.29,0,0,1,.09.21A.28.28,0,0,1,93.69,17.69Z"/><path class="cls-2" d="M94,21.73a.9.9,0,1,1,.64.26A.87.87,0,0,1,94,21.73Z"/><path class="cls-1" d="M102.94,22a2.11,2.11,0,0,1-2.11-2.11V16.28a.9.9,0,0,1,.9-.9h0a.88.88,0,0,1,.59.26.86.86,0,0,1,.31.64v3.62a.31.31,0,0,0,.3.3h2.42a.31.31,0,0,0,.3-.3,2.11,2.11,0,0,1,2.11-2.11.28.28,0,0,0,.21-.09.27.27,0,0,0,.09-.21V16.28a.87.87,0,0,1,.26-.64.87.87,0,0,1,.64-.26.88.88,0,0,1,.59.26.86.86,0,0,1,.31.64v1.21a2.11,2.11,0,0,1-2.11,2.11.3.3,0,0,0-.3.3,2.11,2.11,0,0,1-2.11,2.1Z"/><path class="cls-2" d="M103.5,19.32a.9.9,0,1,1,.64.26A.87.87,0,0,1,103.5,19.32Z"/><path class="cls-1" d="M119.38,16a2,2,0,0,0-1.49-.62H113a2.11,2.11,0,0,0-2.11,2.11,2.16,2.16,0,0,0,.1.64,2,2,0,0,0,.28.56,1.94,1.94,0,0,0-.28.56A2.12,2.12,0,0,0,113,22h3.62a.9.9,0,0,0,.9-.9h0a.88.88,0,0,0-.26-.59.86.86,0,0,0-.64-.31h-3.58a.28.28,0,0,1-.21-.09.27.27,0,0,1-.09-.21.31.31,0,0,1,.3-.3h4.86a2.11,2.11,0,0,0,1.49-3.6Zm-1.28,1.7a.28.28,0,0,1-.21.09H113a.28.28,0,0,1-.21-.09.27.27,0,0,1-.09-.21.31.31,0,0,1,.3-.3h4.86a.28.28,0,0,1,.21.09.29.29,0,0,1,.09.21.28.28,0,0,1-.08.21Z"/><path class="cls-2" d="M118.46,21.73a.9.9,0,1,1,.64.26A.87.87,0,0,1,118.46,21.73Z"/><path class="cls-1" d="M124.42,22a.86.86,0,0,1-.59-.26.88.88,0,0,1-.26-.59.9.9,0,0,1,.9-.9h3.62a.3.3,0,1,0,0-.6h-4.86a2.11,2.11,0,0,1,0-4.22h6a.9.9,0,0,1,.9.9h0a.88.88,0,0,1-.26.59.86.86,0,0,1-.64.31h-6a.31.31,0,0,0-.3.3.27.27,0,0,0,.09.21.28.28,0,0,0,.21.09h4.86a2.11,2.11,0,1,1,0,4.22h0Z"/><path class="cls-2" d="M121.38,21.73A.9.9,0,1,1,122,22,.87.87,0,0,1,121.38,21.73Z"/><path class="cls-1" d="M136.57,22a2.8,2.8,0,0,1-2.8-2.8V16a2.8,2.8,0,0,1,2.8-2.8h4.8a1.13,1.13,0,0,1,.85.42,1.17,1.17,0,0,1-.85,1.94h-4.8a.41.41,0,0,0-.4.4v3.2a.4.4,0,0,0,.4.4H143a.42.42,0,0,0,.41-.4V14.39a1.16,1.16,0,0,1,1.94-.85,1.14,1.14,0,0,1,.42.85v4.8a2.8,2.8,0,0,1-2.8,2.8Z"/><path class="cls-2" d="M143.72,12a1.2,1.2,0,1,1,.85.35A1.16,1.16,0,0,1,143.72,12Z"/><path class="cls-1" d="M149.55,21.73a.87.87,0,0,1-.26-.64V17.48a.3.3,0,0,0-.3-.3h-1.21a.87.87,0,0,1-.62-.31.85.85,0,0,1,0-1.2l0,0a.86.86,0,0,1,.64-.31H149a2.11,2.11,0,0,1,2.11,2.11V21a.86.86,0,0,1-.31.64.88.88,0,0,1-.59.26A.87.87,0,0,1,149.55,21.73Z"/><path class="cls-2" d="M149.55,14.5a.9.9,0,1,1,.64.26A.87.87,0,0,1,149.55,14.5Z"/><path class="cls-2" d="M152.47,24.14a.9.9,0,1,1,.64.26A.87.87,0,0,1,152.47,24.14Z"/><path class="cls-1" d="M161.24,19.89V17.48a2.11,2.11,0,0,0-2.11-2.11h-4.86a2.11,2.11,0,0,0-2.11,2.11v2.41A2.11,2.11,0,0,0,154.27,22h4.86a.3.3,0,0,1,0,.6h-3.62a.86.86,0,0,0-.64.31.88.88,0,0,0-.26.59.9.9,0,0,0,.9.9h3.62a2.12,2.12,0,0,0,2-2.75,1.94,1.94,0,0,0-.28-.56,2,2,0,0,0,.28-.56A2.1,2.1,0,0,0,161.24,19.89Zm-1.81,0a.31.31,0,0,1-.3.3h-4.86a.28.28,0,0,1-.21-.09.27.27,0,0,1-.09-.21V17.48a.31.31,0,0,1,.3-.3h4.86a.28.28,0,0,1,.21.09.29.29,0,0,1,.09.21Z"/><path class="cls-2" d="M157.28,19.32a.9.9,0,1,1,.64.26A.88.88,0,0,1,157.28,19.32Z"/><path class="cls-1" d="M165,21.73a.87.87,0,0,1-.26-.64V17.48a.3.3,0,0,0-.3-.3h-1.21a.87.87,0,0,1-.64-.26.85.85,0,0,1,0-1.2l0,0a.86.86,0,0,1,.64-.31h1.21a2.11,2.11,0,0,1,2.14,2.08V21.1a.86.86,0,0,1-.31.64.88.88,0,0,1-.59.26A.87.87,0,0,1,165,21.73Z"/><path class="cls-2" d="M165,14.5a.9.9,0,1,1,.64.26A.87.87,0,0,1,165,14.5Z"/><path class="cls-2" d="M167.93,16.87a.9.9,0,1,1,.64.26A.87.87,0,0,1,167.93,16.87Z"/><path class="cls-1" d="M172.18,22a2.11,2.11,0,0,1-2.11-2.11v-2.4a2.12,2.12,0,0,1,.1-.64,2,2,0,0,1,.28-.56,1.94,1.94,0,0,1-.28-.55,2.12,2.12,0,0,1-.1-.64V13.87a.85.85,0,0,1,.31-.64A.87.87,0,0,1,171,13a.9.9,0,0,1,.9.9h0v1.21a.3.3,0,0,0,.3.3h3.62a.86.86,0,0,1,.64.31.85.85,0,0,1,0,1.2l0,0a.87.87,0,0,1-.64.26h-3.62a.3.3,0,0,0-.3.3v2.41a.28.28,0,0,0,.09.21.27.27,0,0,0,.21.09h1.21a.86.86,0,0,1,.64.31.88.88,0,0,1,.26.59.9.9,0,0,1-.9.9h-1.21Z"/><path class="cls-1" d="M179.92,22a2.11,2.11,0,0,1-2.11-2.11v-2.4a2.11,2.11,0,0,1,2.11-2.11h4.86a2.11,2.11,0,0,1,2.11,2.11v1.21a.86.86,0,0,1-.31.64.88.88,0,0,1-.59.26.9.9,0,0,1-.9-.9V17.48a.3.3,0,0,0-.3-.3h-4.86a.3.3,0,0,0-.3.3v2.41a.31.31,0,0,0,.3.3h3.62a.86.86,0,0,1,.64.31.88.88,0,0,1,.26.59.9.9,0,0,1-.9.9Z"/><path class="cls-2" d="M185.3,21.73a.9.9,0,1,1,.64.26A.87.87,0,0,1,185.3,21.73Z"/><path class="cls-1" d="M190.06,22a2.11,2.11,0,0,1-2.08-2.1v-6a.9.9,0,0,1,.9-.9.88.88,0,0,1,.59.26.86.86,0,0,1,.31.64v6a.31.31,0,0,0,.3.3h1.21a.85.85,0,0,1,.64.31.87.87,0,0,1,.27.59.9.9,0,0,1-.9.9Z"/><path class="cls-2" d="M193,21.73a.9.9,0,1,1,1.28,0,.9.9,0,0,1-1.28,0Z"/></g></g></svg>