<svg xmlns="http://www.w3.org/2000/svg" xmlns:xlink="http://www.w3.org/1999/xlink" viewBox="0 0 175.92 175.93"><defs><style>.cls-1{fill:none;}.cls-2{isolation:isolate;}.cls-3{fill:url(#radial-gradient);}.cls-4{clip-path:url(#clip-path);}.cls-5{fill:#fb4435;}.cls-6,.cls-8{mix-blend-mode:multiply;}.cls-6{fill:url(#linear-gradient);}.cls-7{fill:#fff;}.cls-8{fill:url(#linear-gradient-2);}</style><radialGradient id="radial-gradient" cx="16.75" cy="192.78" r="173.72" gradientUnits="userSpaceOnUse"><stop offset="0.22" stop-color="#e7e7e7"/><stop offset="0.88" stop-color="#fcfcfc"/></radialGradient><clipPath id="clip-path"><circle class="cls-1" cx="87.96" cy="87.96" r="63.48"/></clipPath><linearGradient id="linear-gradient" x1="507.18" y1="1507.23" x2="508.01" y2="1616.28" gradientTransform="translate(-1488.64 -522.45) rotate(-45) scale(1.32 1)" gradientUnits="userSpaceOnUse"><stop offset="0" stop-color="#b3b3b3"/><stop offset="0.77" stop-color="#fff"/></linearGradient><linearGradient id="linear-gradient-2" x1="2811.89" y1="1146.92" x2="2812.57" y2="1235.62" gradientTransform="translate(-1350.7 778.19) rotate(-45) scale(0.54 0.48)" xlink:href="#linear-gradient"/></defs><title>googlemasRecurso 16</title><g class="cls-2"><g id="Capa_2" data-name="Capa 2"><g id="Pagina_interna_Escritorio" data-name="Pagina interna Escritorio"><path class="cls-3" d="M175.92,139.79a36.14,36.14,0,0,1-36.13,36.14H36.14A36.14,36.14,0,0,1,0,139.79V36.13A36.14,36.14,0,0,1,36.14,0H139.79a36.13,36.13,0,0,1,36.13,36.13Z"/><g class="cls-4"><circle class="cls-5" cx="87.96" cy="87.96" r="63.48"/><polygon class="cls-6" points="156.05 131.77 114.72 173.1 48.08 106.46 53.84 69.81 89.41 65.14 156.05 131.77"/><path class="cls-7" d="M99,83.43H70.65V93.56h17a18.25,18.25,0,1,1-17.2-24.51A17.92,17.92,0,0,1,82,73.29h.47L90,65.68A28.72,28.72,0,0,0,70.44,58a29.52,29.52,0,0,0,0,59,28.31,28.31,0,0,0,6.25-.69A28.72,28.72,0,0,0,88.14,111a29.69,29.69,0,0,0,8-9.7,30.11,30.11,0,0,0,2.32-6c.68-2.61.51-5.23.51-7.91Z"/><polygon class="cls-8" points="157.19 106.46 140.19 123.45 108.5 91.77 125.49 74.77 157.19 106.46"/><rect class="cls-7" x="116.97" y="74.74" width="8.51" height="25.43"/><rect class="cls-7" x="108.52" y="83.21" width="25.43" height="8.51"/></g></g></g></g></svg>