<svg xmlns="http://www.w3.org/2000/svg" xmlns:xlink="http://www.w3.org/1999/xlink" viewBox="0 0 175.92 175.93"><defs><style>.cls-1{fill:url(#radial-gradient);}.cls-2{fill:#fff;}</style><radialGradient id="radial-gradient" cx="51.53" cy="189.55" r="233.12" gradientUnits="userSpaceOnUse"><stop offset="0.1" stop-color="#ffd873"/><stop offset="0.15" stop-color="#ffcb70"/><stop offset="0.26" stop-color="#ffaa68"/><stop offset="0.4" stop-color="#ff755c"/><stop offset="0.45" stop-color="#ff5f57"/><stop offset="0.68" stop-color="#f3259f"/><stop offset="1" stop-color="#6a68e2"/></radialGradient></defs><title>instagramRecurso 13</title><g id="Capa_2" data-name="Capa 2"><g id="Pagina_interna_Escritorio" data-name="Pagina interna Escritorio"><rect class="cls-1" width="175.92" height="175.93" rx="36.13" ry="36.13"/><path class="cls-2" d="M113.42,21.63H62.5A40.88,40.88,0,0,0,21.62,62.51v50.92A40.88,40.88,0,0,0,62.5,154.3h50.92a40.87,40.87,0,0,0,40.88-40.87V62.51A40.88,40.88,0,0,0,113.42,21.63Zm28.14,86.91a33,33,0,0,1-33,33H67.39a33,33,0,0,1-33-33V67.39a33,33,0,0,1,33-33h41.15a33,33,0,0,1,33,33Z"/><path class="cls-2" d="M89.74,53.25a34.95,34.95,0,1,0,34.95,34.94A34.94,34.94,0,0,0,89.74,53.25Zm0,56a21,21,0,1,1,21-21A21,21,0,0,1,89.74,109.22Z"/><circle class="cls-2" cx="122.27" cy="52.7" r="8.89"/></g></g></svg>