<svg xmlns="http://www.w3.org/2000/svg" viewBox="0 0 175.92 175.92"><defs><style>.cls-1{fill:#007cb7;}.cls-2{fill:#fff;}</style></defs><title>linkedinRecurso 17</title><g id="Capa_2" data-name="Capa 2"><g id="Pagina_interna_Escritorio" data-name="Pagina interna Escritorio"><path class="cls-1" d="M175.92,139.79a36.13,36.13,0,0,1-36.13,36.13H36.14A36.13,36.13,0,0,1,0,139.79V36.14A36.14,36.14,0,0,1,36.14,0H139.78a36.14,36.14,0,0,1,36.13,36.14Z"/><path class="cls-2" d="M26.36,66.6h26.4v84.94H26.36ZM39.57,24.38A15.31,15.31,0,1,1,24.27,39.7a15.32,15.32,0,0,1,15.3-15.32"/><path class="cls-2" d="M69.32,66.6H94.65V78.22H95c3.52-6.68,12.13-13.72,25-13.72,26.74,0,31.67,17.59,31.67,40.45v46.59H125.27V110.24c0-9.85-.17-22.53-13.72-22.53-13.73,0-15.83,10.74-15.83,21.82v42H69.32Z"/></g></g></svg>