<svg xmlns="http://www.w3.org/2000/svg" viewBox="0 0 176.92 176.92"><defs><style>.cls-1,.cls-3{fill:#fff;}.cls-1{stroke:#e2e2e2;stroke-miterlimit:10;}.cls-2{fill:#db0216;}.cls-3{fill-rule:evenodd;}</style></defs><title>pinterestRecurso 20</title><g id="Capa_2" data-name="Capa 2"><g id="Pagina_interna_Escritorio" data-name="Pagina interna Escritorio"><path class="cls-1" d="M176.42,140.29a36.13,36.13,0,0,1-36.13,36.13H36.63A36.13,36.13,0,0,1,.5,140.29V36.64A36.14,36.14,0,0,1,36.63.5H140.29a36.14,36.14,0,0,1,36.13,36.14Z"/><circle class="cls-2" cx="88.46" cy="88.46" r="59.08"/><g id="UG8QpP"><path class="cls-3" d="M81.88,116.09A19.47,19.47,0,0,0,102,121.62a41.11,41.11,0,0,0,4.35-1.58,27,27,0,0,0,7.56-4.78c6.35-5.79,9.8-13.08,11.4-21.36,2.08-10.77.19-20.81-6.61-29.45-4.13-5.25-10-8.69-16.2-10.87A42.09,42.09,0,0,0,76,53a39,39,0,0,0-7.15,3.14A35.1,35.1,0,0,0,52.19,76.94a41.84,41.84,0,0,0-1.31,7.3,31.07,31.07,0,0,0,3.44,17.11c.42.84,1,1.61,1.36,2.45a14.93,14.93,0,0,0,4.16,5.36,4.45,4.45,0,0,0,2.91,1.12c1.49-.1,1.86-1.53,2.27-2.77a40.14,40.14,0,0,0,.9-4.2,3.41,3.41,0,0,0-.49-3.17C59.16,91.24,61.32,76.82,69,69.59c7-6.54,15-8.45,23.86-7.19A23.17,23.17,0,0,1,111,76.21a30.51,30.51,0,0,1,1.72,10.48,32.15,32.15,0,0,1-2.5,13.28,23.48,23.48,0,0,1-7.16,9.85c-4.82,3.63-14.93,5.21-17-2.35a14.6,14.6,0,0,1-.19-6.17c1-4.75,2.77-9.26,3.87-14a15.42,15.42,0,0,0,.28-7.59c-.81-3-2.68-5-5.82-5.4a8.65,8.65,0,0,0-8.4,3.17c-4,5.42-4.56,11.61-2.57,18a7,7,0,0,1,.22,4c-1.91,7.74-3.57,15.53-5.56,23.25a53.65,53.65,0,0,0-1.55,16,24.16,24.16,0,0,0,.45,4.47c.23,1,.59,2.39,1.55,2.9,1.33.71,2.47-1,3.09-1.92a51.94,51.94,0,0,0,5.87-11.88c1-2.7,1.69-5.46,2.41-8.23C80,123.1,81.43,118.08,81.88,116.09Z"/></g></g></g></svg>