<svg xmlns="http://www.w3.org/2000/svg" xmlns:xlink="http://www.w3.org/1999/xlink" viewBox="0 0 175.92 175.92"><defs><style>.cls-1{fill:url(#radial-gradient);}.cls-2{fill:url(#radial-gradient-2);}.cls-3{fill:url(#radial-gradient-3);}</style><radialGradient id="radial-gradient" cx="82.01" cy="211.31" r="226.32" gradientUnits="userSpaceOnUse"><stop offset="0.26" stop-color="#00b63d"/><stop offset="0.76" stop-color="#00c95d"/></radialGradient><radialGradient id="radial-gradient-2" cx="63.69" cy="156.44" r="138.83" gradientUnits="userSpaceOnUse"><stop offset="0.22" stop-color="#e7e7e7"/><stop offset="0.88" stop-color="#fcfcfc"/></radialGradient><radialGradient id="radial-gradient-3" cx="65.15" cy="127.36" r="62.11" gradientUnits="userSpaceOnUse"><stop offset="0.22" stop-color="#e7e7e7"/><stop offset="0.88" stop-color="#fff"/></radialGradient></defs><title>wsRecurso 11</title><g id="Capa_2" data-name="Capa 2"><g id="Pagina_interna_Escritorio" data-name="Pagina interna Escritorio"><path class="cls-1" d="M175.92,139.78a36.13,36.13,0,0,1-36.13,36.13H36.14A36.13,36.13,0,0,1,0,139.78V36.14A36.14,36.14,0,0,1,36.14,0H139.79a36.13,36.13,0,0,1,36.13,36.14Z"/><path class="cls-2" d="M89.14,23.1a64.24,64.24,0,0,0-55.24,97l-8.1,32.66L58,143.54A64.25,64.25,0,1,0,89.14,23.1Zm.73,117.83a53.07,53.07,0,0,1-30.22-9.4l-18.33,5.28L46,117.93a53.33,53.33,0,1,1,43.87,23Z"/><path class="cls-3" d="M72.9,82.26l2.23-2.57c1.25-1.45,3.13-2.85,3.22-4.94A14.61,14.61,0,0,0,77,68.92c-.46-1.17-.92-2.34-1.37-3.52-.81-2.14-1.86-5.13-3-6.38a5.7,5.7,0,0,0-6.5-1S53.5,64.07,57.39,76.19c0,0,7.51,34.18,45.34,41.21,0,0,13.57,1.94,17.21-6.3a14.54,14.54,0,0,0,1.19-6.21c-.13-1.88-1.45-3.12-3-4-2-1.14-3.77-2.21-6-3.33-2-1-4.24-2.4-6.5-1.78-1.66.46-2.86,2-4,3.19-1.47,1.56-3,3.09-4.46,4.64C97.15,103.59,78,96.56,72.9,82.26Z"/></g></g></svg>