<svg xmlns="http://www.w3.org/2000/svg" xmlns:xlink="http://www.w3.org/1999/xlink" viewBox="0 0 176.92 176.92"><defs><style>.cls-1,.cls-3{fill:#fff;}.cls-1{stroke:#e2e2e2;stroke-miterlimit:10;}.cls-2{fill:url(#radial-gradient);}.cls-4{fill:#ebe0e0;}</style><radialGradient id="radial-gradient" cx="86.31" cy="151.76" r="127.19" gradientUnits="userSpaceOnUse"><stop offset="0.17" stop-color="#e11118"/><stop offset="0.77" stop-color="#ff2420"/></radialGradient></defs><title>youtubeRecurso 14</title><g id="Capa_2" data-name="Capa 2"><g id="Pagina_interna_Escritorio" data-name="Pagina interna Escritorio"><path class="cls-1" d="M176.42,140.28a36.14,36.14,0,0,1-36.13,36.14H36.64A36.14,36.14,0,0,1,.5,140.28V36.63A36.13,36.13,0,0,1,36.64.5H140.29a36.14,36.14,0,0,1,36.13,36.13Z"/><path class="cls-2" d="M154.57,104.41c0,16.66-5.7,30.17-22.35,30.17H46.49c-16.66,0-24.14-13.51-24.14-30.17V72.51c0-16.66,6.77-30.17,23.43-30.17h87.14c16.66,0,21.65,13.5,21.65,30.17Z"/><polygon class="cls-3" points="75.21 70.44 111.22 89.23 75.21 108.03 75.21 70.44"/><polygon class="cls-4" points="75.21 70.72 106.53 91.67 111.22 89.23 77.99 71.89 75.21 70.68 75.21 70.72"/></g></g></svg>